G04 #@! TF.GenerationSoftware,KiCad,Pcbnew,(5.0.2)-1*
G04 #@! TF.CreationDate,2020-05-04T12:03:43+03:00*
G04 #@! TF.ProjectId,GrblCnc3040,4772626c-436e-4633-9330-34302e6b6963,rev?*
G04 #@! TF.SameCoordinates,Original*
G04 #@! TF.FileFunction,Legend,Top*
G04 #@! TF.FilePolarity,Positive*
%FSLAX46Y46*%
G04 Gerber Fmt 4.6, Leading zero omitted, Abs format (unit mm)*
G04 Created by KiCad (PCBNEW (5.0.2)-1) date 04/05/2020 12:03:43*
%MOMM*%
%LPD*%
G01*
G04 APERTURE LIST*
%ADD10C,0.150000*%
%ADD11C,0.304800*%
%ADD12C,0.120000*%
%ADD13C,0.222250*%
G04 APERTURE END LIST*
D10*
G04 #@! TO.C,U1*
X190826110Y-90200000D02*
G75*
G03X190826110Y-90200000I-721110J0D01*
G01*
X191305000Y-88600000D02*
X188705000Y-88600000D01*
X191305000Y-91600000D02*
X191305000Y-88600000D01*
X188705000Y-91600000D02*
X191305000Y-91600000D01*
X188705000Y-88600000D02*
X188705000Y-91600000D01*
X191705000Y-96600000D02*
X191705000Y-101600000D01*
X183705000Y-96600000D02*
X191705000Y-96600000D01*
X183705000Y-101600000D02*
X183705000Y-96600000D01*
D11*
X198825000Y-48210000D02*
X198825000Y-101610000D01*
X198825000Y-101610000D02*
X175825000Y-101610000D01*
X175825000Y-101610000D02*
X175825000Y-48210000D01*
X175825000Y-48210000D02*
X198825000Y-48210000D01*
D12*
G04 #@! TO.C,J1*
X229620000Y-101630000D02*
X219140000Y-101630000D01*
X219140000Y-101630000D02*
X219140000Y-48410000D01*
X219140000Y-48410000D02*
X229620000Y-48410000D01*
X218245662Y-58650000D02*
X218245662Y-58150000D01*
X218245662Y-58150000D02*
X218678675Y-58400000D01*
X218678675Y-58400000D02*
X218245662Y-58650000D01*
G04 #@! TO.C,J3*
X208670000Y-95970000D02*
X211330000Y-95970000D01*
X208670000Y-55270000D02*
X208670000Y-95970000D01*
X211330000Y-55270000D02*
X211330000Y-95970000D01*
X208670000Y-55270000D02*
X211330000Y-55270000D01*
X208670000Y-54000000D02*
X208670000Y-52670000D01*
X208670000Y-52670000D02*
X210000000Y-52670000D01*
G04 #@! TO.C,J4*
X215205000Y-52645000D02*
X216535000Y-52645000D01*
X215205000Y-53975000D02*
X215205000Y-52645000D01*
X215205000Y-55245000D02*
X217865000Y-55245000D01*
X217865000Y-55245000D02*
X217865000Y-95945000D01*
X215205000Y-55245000D02*
X215205000Y-95945000D01*
X215205000Y-95945000D02*
X217865000Y-95945000D01*
G04 #@! TO.C,J2*
X199965000Y-49470000D02*
X202565000Y-49470000D01*
X199965000Y-49470000D02*
X199965000Y-100390000D01*
X199965000Y-100390000D02*
X205165000Y-100390000D01*
X205165000Y-52070000D02*
X205165000Y-100390000D01*
X202565000Y-52070000D02*
X205165000Y-52070000D01*
X202565000Y-49470000D02*
X202565000Y-52070000D01*
X205165000Y-49470000D02*
X205165000Y-50800000D01*
X203835000Y-49470000D02*
X205165000Y-49470000D01*
G04 #@! TO.C,U1*
D13*
X186190466Y-99919366D02*
X186190466Y-100639033D01*
X186232800Y-100723700D01*
X186275133Y-100766033D01*
X186359800Y-100808366D01*
X186529133Y-100808366D01*
X186613800Y-100766033D01*
X186656133Y-100723700D01*
X186698466Y-100639033D01*
X186698466Y-99919366D01*
X187587466Y-100808366D02*
X187079466Y-100808366D01*
X187333466Y-100808366D02*
X187333466Y-99919366D01*
X187248800Y-100046366D01*
X187164133Y-100131033D01*
X187079466Y-100173366D01*
D11*
D10*
X189357380Y-88252380D02*
X189024047Y-87776190D01*
X188785952Y-88252380D02*
X188785952Y-87252380D01*
X189166904Y-87252380D01*
X189262142Y-87300000D01*
X189309761Y-87347619D01*
X189357380Y-87442857D01*
X189357380Y-87585714D01*
X189309761Y-87680952D01*
X189262142Y-87728571D01*
X189166904Y-87776190D01*
X188785952Y-87776190D01*
X189738333Y-88204761D02*
X189881190Y-88252380D01*
X190119285Y-88252380D01*
X190214523Y-88204761D01*
X190262142Y-88157142D01*
X190309761Y-88061904D01*
X190309761Y-87966666D01*
X190262142Y-87871428D01*
X190214523Y-87823809D01*
X190119285Y-87776190D01*
X189928809Y-87728571D01*
X189833571Y-87680952D01*
X189785952Y-87633333D01*
X189738333Y-87538095D01*
X189738333Y-87442857D01*
X189785952Y-87347619D01*
X189833571Y-87300000D01*
X189928809Y-87252380D01*
X190166904Y-87252380D01*
X190309761Y-87300000D01*
X190595476Y-87252380D02*
X191166904Y-87252380D01*
X190881190Y-88252380D02*
X190881190Y-87252380D01*
X183966904Y-95052380D02*
X183966904Y-95861904D01*
X184014523Y-95957142D01*
X184062142Y-96004761D01*
X184157380Y-96052380D01*
X184347857Y-96052380D01*
X184443095Y-96004761D01*
X184490714Y-95957142D01*
X184538333Y-95861904D01*
X184538333Y-95052380D01*
X184966904Y-96004761D02*
X185109761Y-96052380D01*
X185347857Y-96052380D01*
X185443095Y-96004761D01*
X185490714Y-95957142D01*
X185538333Y-95861904D01*
X185538333Y-95766666D01*
X185490714Y-95671428D01*
X185443095Y-95623809D01*
X185347857Y-95576190D01*
X185157380Y-95528571D01*
X185062142Y-95480952D01*
X185014523Y-95433333D01*
X184966904Y-95338095D01*
X184966904Y-95242857D01*
X185014523Y-95147619D01*
X185062142Y-95100000D01*
X185157380Y-95052380D01*
X185395476Y-95052380D01*
X185538333Y-95100000D01*
X186300238Y-95528571D02*
X186443095Y-95576190D01*
X186490714Y-95623809D01*
X186538333Y-95719047D01*
X186538333Y-95861904D01*
X186490714Y-95957142D01*
X186443095Y-96004761D01*
X186347857Y-96052380D01*
X185966904Y-96052380D01*
X185966904Y-95052380D01*
X186300238Y-95052380D01*
X186395476Y-95100000D01*
X186443095Y-95147619D01*
X186490714Y-95242857D01*
X186490714Y-95338095D01*
X186443095Y-95433333D01*
X186395476Y-95480952D01*
X186300238Y-95528571D01*
X185966904Y-95528571D01*
X187728809Y-96052380D02*
X187728809Y-95385714D01*
X187728809Y-95480952D02*
X187776428Y-95433333D01*
X187871666Y-95385714D01*
X188014523Y-95385714D01*
X188109761Y-95433333D01*
X188157380Y-95528571D01*
X188157380Y-96052380D01*
X188157380Y-95528571D02*
X188205000Y-95433333D01*
X188300238Y-95385714D01*
X188443095Y-95385714D01*
X188538333Y-95433333D01*
X188585952Y-95528571D01*
X188585952Y-96052380D01*
X189062142Y-96052380D02*
X189062142Y-95385714D01*
X189062142Y-95052380D02*
X189014523Y-95100000D01*
X189062142Y-95147619D01*
X189109761Y-95100000D01*
X189062142Y-95052380D01*
X189062142Y-95147619D01*
X189966904Y-96004761D02*
X189871666Y-96052380D01*
X189681190Y-96052380D01*
X189585952Y-96004761D01*
X189538333Y-95957142D01*
X189490714Y-95861904D01*
X189490714Y-95576190D01*
X189538333Y-95480952D01*
X189585952Y-95433333D01*
X189681190Y-95385714D01*
X189871666Y-95385714D01*
X189966904Y-95433333D01*
X190395476Y-96052380D02*
X190395476Y-95385714D01*
X190395476Y-95576190D02*
X190443095Y-95480952D01*
X190490714Y-95433333D01*
X190585952Y-95385714D01*
X190681190Y-95385714D01*
X191157380Y-96052380D02*
X191062142Y-96004761D01*
X191014523Y-95957142D01*
X190966904Y-95861904D01*
X190966904Y-95576190D01*
X191014523Y-95480952D01*
X191062142Y-95433333D01*
X191157380Y-95385714D01*
X191300238Y-95385714D01*
X191395476Y-95433333D01*
X191443095Y-95480952D01*
X191490714Y-95576190D01*
X191490714Y-95861904D01*
X191443095Y-95957142D01*
X191395476Y-96004761D01*
X191300238Y-96052380D01*
X191157380Y-96052380D01*
G04 #@! TO.C,J1*
X217652380Y-75353333D02*
X218366666Y-75353333D01*
X218509523Y-75400952D01*
X218604761Y-75496190D01*
X218652380Y-75639047D01*
X218652380Y-75734285D01*
X218652380Y-74353333D02*
X218652380Y-74924761D01*
X218652380Y-74639047D02*
X217652380Y-74639047D01*
X217795238Y-74734285D01*
X217890476Y-74829523D01*
X217938095Y-74924761D01*
G04 #@! TO.C,J3*
X209666666Y-51122380D02*
X209666666Y-51836666D01*
X209619047Y-51979523D01*
X209523809Y-52074761D01*
X209380952Y-52122380D01*
X209285714Y-52122380D01*
X210047619Y-51122380D02*
X210666666Y-51122380D01*
X210333333Y-51503333D01*
X210476190Y-51503333D01*
X210571428Y-51550952D01*
X210619047Y-51598571D01*
X210666666Y-51693809D01*
X210666666Y-51931904D01*
X210619047Y-52027142D01*
X210571428Y-52074761D01*
X210476190Y-52122380D01*
X210190476Y-52122380D01*
X210095238Y-52074761D01*
X210047619Y-52027142D01*
G04 #@! TO.C,J4*
X216201666Y-51097380D02*
X216201666Y-51811666D01*
X216154047Y-51954523D01*
X216058809Y-52049761D01*
X215915952Y-52097380D01*
X215820714Y-52097380D01*
X217106428Y-51430714D02*
X217106428Y-52097380D01*
X216868333Y-51049761D02*
X216630238Y-51764047D01*
X217249285Y-51764047D01*
G04 #@! TO.C,J2*
X202231666Y-47482380D02*
X202231666Y-48196666D01*
X202184047Y-48339523D01*
X202088809Y-48434761D01*
X201945952Y-48482380D01*
X201850714Y-48482380D01*
X202660238Y-47577619D02*
X202707857Y-47530000D01*
X202803095Y-47482380D01*
X203041190Y-47482380D01*
X203136428Y-47530000D01*
X203184047Y-47577619D01*
X203231666Y-47672857D01*
X203231666Y-47768095D01*
X203184047Y-47910952D01*
X202612619Y-48482380D01*
X203231666Y-48482380D01*
G04 #@! TD*
M02*
