G04 #@! TF.GenerationSoftware,KiCad,Pcbnew,(5.0.2)-1*
G04 #@! TF.CreationDate,2020-05-04T12:03:43+03:00*
G04 #@! TF.ProjectId,GrblCnc3040,4772626c-436e-4633-9330-34302e6b6963,rev?*
G04 #@! TF.SameCoordinates,Original*
G04 #@! TF.FileFunction,Legend,Bot*
G04 #@! TF.FilePolarity,Positive*
%FSLAX46Y46*%
G04 Gerber Fmt 4.6, Leading zero omitted, Abs format (unit mm)*
G04 Created by KiCad (PCBNEW (5.0.2)-1) date 04/05/2020 12:03:43*
%MOMM*%
%LPD*%
G01*
G04 APERTURE LIST*
%ADD10C,0.180000*%
%ADD11C,0.150000*%
%ADD12C,0.120000*%
G04 APERTURE END LIST*
D10*
X192950000Y-98452380D02*
X192350000Y-98452380D01*
X192950000Y-99452380D01*
X192350000Y-99452380D01*
X191578571Y-99452380D02*
X192007142Y-99452380D01*
X192007142Y-98452380D01*
X191278571Y-99452380D02*
X191278571Y-98452380D01*
X190850000Y-99452380D02*
X190850000Y-98452380D01*
X190550000Y-99166666D01*
X190250000Y-98452380D01*
X190250000Y-99452380D01*
X189821428Y-99452380D02*
X189821428Y-98452380D01*
X189521428Y-98452380D02*
X189007142Y-98452380D01*
X189264285Y-99452380D02*
X189264285Y-98452380D01*
X193014285Y-96952380D02*
X193014285Y-95952380D01*
X192671428Y-95952380D01*
X192585714Y-96000000D01*
X192542857Y-96047619D01*
X192500000Y-96142857D01*
X192500000Y-96285714D01*
X192542857Y-96380952D01*
X192585714Y-96428571D01*
X192671428Y-96476190D01*
X193014285Y-96476190D01*
X191600000Y-96952380D02*
X191900000Y-96476190D01*
X192114285Y-96952380D02*
X192114285Y-95952380D01*
X191771428Y-95952380D01*
X191685714Y-96000000D01*
X191642857Y-96047619D01*
X191600000Y-96142857D01*
X191600000Y-96285714D01*
X191642857Y-96380952D01*
X191685714Y-96428571D01*
X191771428Y-96476190D01*
X192114285Y-96476190D01*
X191042857Y-95952380D02*
X190871428Y-95952380D01*
X190785714Y-96000000D01*
X190700000Y-96095238D01*
X190657142Y-96285714D01*
X190657142Y-96619047D01*
X190700000Y-96809523D01*
X190785714Y-96904761D01*
X190871428Y-96952380D01*
X191042857Y-96952380D01*
X191128571Y-96904761D01*
X191214285Y-96809523D01*
X191257142Y-96619047D01*
X191257142Y-96285714D01*
X191214285Y-96095238D01*
X191128571Y-96000000D01*
X191042857Y-95952380D01*
X189971428Y-96428571D02*
X189842857Y-96476190D01*
X189800000Y-96523809D01*
X189757142Y-96619047D01*
X189757142Y-96761904D01*
X189800000Y-96857142D01*
X189842857Y-96904761D01*
X189928571Y-96952380D01*
X190271428Y-96952380D01*
X190271428Y-95952380D01*
X189971428Y-95952380D01*
X189885714Y-96000000D01*
X189842857Y-96047619D01*
X189800000Y-96142857D01*
X189800000Y-96238095D01*
X189842857Y-96333333D01*
X189885714Y-96380952D01*
X189971428Y-96428571D01*
X190271428Y-96428571D01*
X189371428Y-96428571D02*
X189071428Y-96428571D01*
X188942857Y-96952380D02*
X189371428Y-96952380D01*
X189371428Y-95952380D01*
X188942857Y-95952380D01*
X192921428Y-93928571D02*
X193221428Y-93928571D01*
X193221428Y-94452380D02*
X193221428Y-93452380D01*
X192792857Y-93452380D01*
X192450000Y-93928571D02*
X192150000Y-93928571D01*
X192021428Y-94452380D02*
X192450000Y-94452380D01*
X192450000Y-93452380D01*
X192021428Y-93452380D01*
X191635714Y-93928571D02*
X191335714Y-93928571D01*
X191207142Y-94452380D02*
X191635714Y-94452380D01*
X191635714Y-93452380D01*
X191207142Y-93452380D01*
X190821428Y-94452380D02*
X190821428Y-93452380D01*
X190607142Y-93452380D01*
X190478571Y-93500000D01*
X190392857Y-93595238D01*
X190350000Y-93690476D01*
X190307142Y-93880952D01*
X190307142Y-94023809D01*
X190350000Y-94214285D01*
X190392857Y-94309523D01*
X190478571Y-94404761D01*
X190607142Y-94452380D01*
X190821428Y-94452380D01*
X189921428Y-94452380D02*
X189921428Y-93452380D01*
X189921428Y-93928571D02*
X189407142Y-93928571D01*
X189407142Y-94452380D02*
X189407142Y-93452380D01*
X188550000Y-94452380D02*
X188978571Y-94452380D01*
X188978571Y-93452380D01*
X188250000Y-94452380D02*
X188250000Y-93452380D01*
X188035714Y-93452380D01*
X187907142Y-93500000D01*
X187821428Y-93595238D01*
X187778571Y-93690476D01*
X187735714Y-93880952D01*
X187735714Y-94023809D01*
X187778571Y-94214285D01*
X187821428Y-94309523D01*
X187907142Y-94404761D01*
X188035714Y-94452380D01*
X188250000Y-94452380D01*
X192621428Y-91857142D02*
X192664285Y-91904761D01*
X192792857Y-91952380D01*
X192878571Y-91952380D01*
X193007142Y-91904761D01*
X193092857Y-91809523D01*
X193135714Y-91714285D01*
X193178571Y-91523809D01*
X193178571Y-91380952D01*
X193135714Y-91190476D01*
X193092857Y-91095238D01*
X193007142Y-91000000D01*
X192878571Y-90952380D01*
X192792857Y-90952380D01*
X192664285Y-91000000D01*
X192621428Y-91047619D01*
X192064285Y-91476190D02*
X192064285Y-91952380D01*
X192364285Y-90952380D02*
X192064285Y-91476190D01*
X191764285Y-90952380D01*
X190950000Y-91857142D02*
X190992857Y-91904761D01*
X191121428Y-91952380D01*
X191207142Y-91952380D01*
X191335714Y-91904761D01*
X191421428Y-91809523D01*
X191464285Y-91714285D01*
X191507142Y-91523809D01*
X191507142Y-91380952D01*
X191464285Y-91190476D01*
X191421428Y-91095238D01*
X191335714Y-91000000D01*
X191207142Y-90952380D01*
X191121428Y-90952380D01*
X190992857Y-91000000D01*
X190950000Y-91047619D01*
X190607142Y-91904761D02*
X190478571Y-91952380D01*
X190264285Y-91952380D01*
X190178571Y-91904761D01*
X190135714Y-91857142D01*
X190092857Y-91761904D01*
X190092857Y-91666666D01*
X190135714Y-91571428D01*
X190178571Y-91523809D01*
X190264285Y-91476190D01*
X190435714Y-91428571D01*
X190521428Y-91380952D01*
X190564285Y-91333333D01*
X190607142Y-91238095D01*
X190607142Y-91142857D01*
X190564285Y-91047619D01*
X190521428Y-91000000D01*
X190435714Y-90952380D01*
X190221428Y-90952380D01*
X190092857Y-91000000D01*
X189835714Y-90952380D02*
X189321428Y-90952380D01*
X189578571Y-91952380D02*
X189578571Y-90952380D01*
X188507142Y-91952380D02*
X188807142Y-91476190D01*
X189021428Y-91952380D02*
X189021428Y-90952380D01*
X188678571Y-90952380D01*
X188592857Y-91000000D01*
X188550000Y-91047619D01*
X188507142Y-91142857D01*
X188507142Y-91285714D01*
X188550000Y-91380952D01*
X188592857Y-91428571D01*
X188678571Y-91476190D01*
X189021428Y-91476190D01*
X188250000Y-90952380D02*
X187735714Y-90952380D01*
X187992857Y-91952380D02*
X187992857Y-90952380D01*
X192871428Y-89404761D02*
X192742857Y-89452380D01*
X192528571Y-89452380D01*
X192442857Y-89404761D01*
X192400000Y-89357142D01*
X192357142Y-89261904D01*
X192357142Y-89166666D01*
X192400000Y-89071428D01*
X192442857Y-89023809D01*
X192528571Y-88976190D01*
X192700000Y-88928571D01*
X192785714Y-88880952D01*
X192828571Y-88833333D01*
X192871428Y-88738095D01*
X192871428Y-88642857D01*
X192828571Y-88547619D01*
X192785714Y-88500000D01*
X192700000Y-88452380D01*
X192485714Y-88452380D01*
X192357142Y-88500000D01*
X191971428Y-89452380D02*
X191971428Y-88452380D01*
X191628571Y-88452380D01*
X191542857Y-88500000D01*
X191500000Y-88547619D01*
X191457142Y-88642857D01*
X191457142Y-88785714D01*
X191500000Y-88880952D01*
X191542857Y-88928571D01*
X191628571Y-88976190D01*
X191971428Y-88976190D01*
X191071428Y-89452380D02*
X191071428Y-88452380D01*
X190642857Y-89452380D02*
X190642857Y-88452380D01*
X190128571Y-89452380D01*
X190128571Y-88452380D01*
X189700000Y-89452380D02*
X189700000Y-88452380D01*
X189357142Y-88452380D01*
X189271428Y-88500000D01*
X189228571Y-88547619D01*
X189185714Y-88642857D01*
X189185714Y-88785714D01*
X189228571Y-88880952D01*
X189271428Y-88928571D01*
X189357142Y-88976190D01*
X189700000Y-88976190D01*
X188885714Y-88452380D02*
X188671428Y-89452380D01*
X188500000Y-88738095D01*
X188328571Y-89452380D01*
X188114285Y-88452380D01*
X187771428Y-89452380D02*
X187771428Y-88452380D01*
X187471428Y-89166666D01*
X187171428Y-88452380D01*
X187171428Y-89452380D01*
X192564285Y-86428571D02*
X192435714Y-86476190D01*
X192392857Y-86523809D01*
X192350000Y-86619047D01*
X192350000Y-86761904D01*
X192392857Y-86857142D01*
X192435714Y-86904761D01*
X192521428Y-86952380D01*
X192864285Y-86952380D01*
X192864285Y-85952380D01*
X192564285Y-85952380D01*
X192478571Y-86000000D01*
X192435714Y-86047619D01*
X192392857Y-86142857D01*
X192392857Y-86238095D01*
X192435714Y-86333333D01*
X192478571Y-86380952D01*
X192564285Y-86428571D01*
X192864285Y-86428571D01*
X192007142Y-86904761D02*
X191878571Y-86952380D01*
X191664285Y-86952380D01*
X191578571Y-86904761D01*
X191535714Y-86857142D01*
X191492857Y-86761904D01*
X191492857Y-86666666D01*
X191535714Y-86571428D01*
X191578571Y-86523809D01*
X191664285Y-86476190D01*
X191835714Y-86428571D01*
X191921428Y-86380952D01*
X191964285Y-86333333D01*
X192007142Y-86238095D01*
X192007142Y-86142857D01*
X191964285Y-86047619D01*
X191921428Y-86000000D01*
X191835714Y-85952380D01*
X191621428Y-85952380D01*
X191492857Y-86000000D01*
X191235714Y-85952380D02*
X190721428Y-85952380D01*
X190978571Y-86952380D02*
X190978571Y-85952380D01*
X190421428Y-86428571D02*
X190121428Y-86428571D01*
X189992857Y-86952380D02*
X190421428Y-86952380D01*
X190421428Y-85952380D01*
X189992857Y-85952380D01*
X189607142Y-86952380D02*
X189607142Y-85952380D01*
X189264285Y-85952380D01*
X189178571Y-86000000D01*
X189135714Y-86047619D01*
X189092857Y-86142857D01*
X189092857Y-86285714D01*
X189135714Y-86380952D01*
X189178571Y-86428571D01*
X189264285Y-86476190D01*
X189607142Y-86476190D01*
X192550000Y-83928571D02*
X192421428Y-83976190D01*
X192378571Y-84023809D01*
X192335714Y-84119047D01*
X192335714Y-84261904D01*
X192378571Y-84357142D01*
X192421428Y-84404761D01*
X192507142Y-84452380D01*
X192850000Y-84452380D01*
X192850000Y-83452380D01*
X192550000Y-83452380D01*
X192464285Y-83500000D01*
X192421428Y-83547619D01*
X192378571Y-83642857D01*
X192378571Y-83738095D01*
X192421428Y-83833333D01*
X192464285Y-83880952D01*
X192550000Y-83928571D01*
X192850000Y-83928571D01*
X191950000Y-84452380D02*
X191950000Y-83452380D01*
X191735714Y-83452380D01*
X191607142Y-83500000D01*
X191521428Y-83595238D01*
X191478571Y-83690476D01*
X191435714Y-83880952D01*
X191435714Y-84023809D01*
X191478571Y-84214285D01*
X191521428Y-84309523D01*
X191607142Y-84404761D01*
X191735714Y-84452380D01*
X191950000Y-84452380D01*
X191050000Y-84452380D02*
X191050000Y-83452380D01*
X190107142Y-84452380D02*
X190407142Y-83976190D01*
X190621428Y-84452380D02*
X190621428Y-83452380D01*
X190278571Y-83452380D01*
X190192857Y-83500000D01*
X190150000Y-83547619D01*
X190107142Y-83642857D01*
X190107142Y-83785714D01*
X190150000Y-83880952D01*
X190192857Y-83928571D01*
X190278571Y-83976190D01*
X190621428Y-83976190D01*
X192692857Y-80952380D02*
X192692857Y-81761904D01*
X192650000Y-81857142D01*
X192607142Y-81904761D01*
X192521428Y-81952380D01*
X192350000Y-81952380D01*
X192264285Y-81904761D01*
X192221428Y-81857142D01*
X192178571Y-81761904D01*
X192178571Y-80952380D01*
X191792857Y-81904761D02*
X191664285Y-81952380D01*
X191450000Y-81952380D01*
X191364285Y-81904761D01*
X191321428Y-81857142D01*
X191278571Y-81761904D01*
X191278571Y-81666666D01*
X191321428Y-81571428D01*
X191364285Y-81523809D01*
X191450000Y-81476190D01*
X191621428Y-81428571D01*
X191707142Y-81380952D01*
X191750000Y-81333333D01*
X191792857Y-81238095D01*
X191792857Y-81142857D01*
X191750000Y-81047619D01*
X191707142Y-81000000D01*
X191621428Y-80952380D01*
X191407142Y-80952380D01*
X191278571Y-81000000D01*
X190592857Y-81428571D02*
X190464285Y-81476190D01*
X190421428Y-81523809D01*
X190378571Y-81619047D01*
X190378571Y-81761904D01*
X190421428Y-81857142D01*
X190464285Y-81904761D01*
X190550000Y-81952380D01*
X190892857Y-81952380D01*
X190892857Y-80952380D01*
X190592857Y-80952380D01*
X190507142Y-81000000D01*
X190464285Y-81047619D01*
X190421428Y-81142857D01*
X190421428Y-81238095D01*
X190464285Y-81333333D01*
X190507142Y-81380952D01*
X190592857Y-81428571D01*
X190892857Y-81428571D01*
X189992857Y-81571428D02*
X189307142Y-81571428D01*
X189650000Y-81952380D02*
X189650000Y-81190476D01*
X192692857Y-78452380D02*
X192692857Y-79261904D01*
X192650000Y-79357142D01*
X192607142Y-79404761D01*
X192521428Y-79452380D01*
X192350000Y-79452380D01*
X192264285Y-79404761D01*
X192221428Y-79357142D01*
X192178571Y-79261904D01*
X192178571Y-78452380D01*
X191792857Y-79404761D02*
X191664285Y-79452380D01*
X191450000Y-79452380D01*
X191364285Y-79404761D01*
X191321428Y-79357142D01*
X191278571Y-79261904D01*
X191278571Y-79166666D01*
X191321428Y-79071428D01*
X191364285Y-79023809D01*
X191450000Y-78976190D01*
X191621428Y-78928571D01*
X191707142Y-78880952D01*
X191750000Y-78833333D01*
X191792857Y-78738095D01*
X191792857Y-78642857D01*
X191750000Y-78547619D01*
X191707142Y-78500000D01*
X191621428Y-78452380D01*
X191407142Y-78452380D01*
X191278571Y-78500000D01*
X190592857Y-78928571D02*
X190464285Y-78976190D01*
X190421428Y-79023809D01*
X190378571Y-79119047D01*
X190378571Y-79261904D01*
X190421428Y-79357142D01*
X190464285Y-79404761D01*
X190550000Y-79452380D01*
X190892857Y-79452380D01*
X190892857Y-78452380D01*
X190592857Y-78452380D01*
X190507142Y-78500000D01*
X190464285Y-78547619D01*
X190421428Y-78642857D01*
X190421428Y-78738095D01*
X190464285Y-78833333D01*
X190507142Y-78880952D01*
X190592857Y-78928571D01*
X190892857Y-78928571D01*
X189992857Y-79071428D02*
X189307142Y-79071428D01*
X192450000Y-76952380D02*
X192750000Y-76476190D01*
X192964285Y-76952380D02*
X192964285Y-75952380D01*
X192621428Y-75952380D01*
X192535714Y-76000000D01*
X192492857Y-76047619D01*
X192450000Y-76142857D01*
X192450000Y-76285714D01*
X192492857Y-76380952D01*
X192535714Y-76428571D01*
X192621428Y-76476190D01*
X192964285Y-76476190D01*
X192064285Y-76952380D02*
X192064285Y-75952380D01*
X191721428Y-75952380D01*
X191635714Y-76000000D01*
X191592857Y-76047619D01*
X191550000Y-76142857D01*
X191550000Y-76285714D01*
X191592857Y-76380952D01*
X191635714Y-76428571D01*
X191721428Y-76476190D01*
X192064285Y-76476190D01*
X191164285Y-76952380D02*
X191164285Y-75952380D01*
X190864285Y-76666666D01*
X190564285Y-75952380D01*
X190564285Y-76952380D01*
X189621428Y-76857142D02*
X189664285Y-76904761D01*
X189792857Y-76952380D01*
X189878571Y-76952380D01*
X190007142Y-76904761D01*
X190092857Y-76809523D01*
X190135714Y-76714285D01*
X190178571Y-76523809D01*
X190178571Y-76380952D01*
X190135714Y-76190476D01*
X190092857Y-76095238D01*
X190007142Y-76000000D01*
X189878571Y-75952380D01*
X189792857Y-75952380D01*
X189664285Y-76000000D01*
X189621428Y-76047619D01*
X189235714Y-76952380D02*
X189235714Y-75952380D01*
X188721428Y-76952380D01*
X188721428Y-75952380D01*
X188421428Y-75952380D02*
X187907142Y-75952380D01*
X188164285Y-76952380D02*
X188164285Y-75952380D01*
X192628571Y-73428571D02*
X192928571Y-73428571D01*
X192928571Y-73952380D02*
X192928571Y-72952380D01*
X192500000Y-72952380D01*
X191728571Y-73952380D02*
X192157142Y-73952380D01*
X192157142Y-72952380D01*
X191257142Y-72952380D02*
X191085714Y-72952380D01*
X191000000Y-73000000D01*
X190914285Y-73095238D01*
X190871428Y-73285714D01*
X190871428Y-73619047D01*
X190914285Y-73809523D01*
X191000000Y-73904761D01*
X191085714Y-73952380D01*
X191257142Y-73952380D01*
X191342857Y-73904761D01*
X191428571Y-73809523D01*
X191471428Y-73619047D01*
X191471428Y-73285714D01*
X191428571Y-73095238D01*
X191342857Y-73000000D01*
X191257142Y-72952380D01*
X190314285Y-72952380D02*
X190142857Y-72952380D01*
X190057142Y-73000000D01*
X189971428Y-73095238D01*
X189928571Y-73285714D01*
X189928571Y-73619047D01*
X189971428Y-73809523D01*
X190057142Y-73904761D01*
X190142857Y-73952380D01*
X190314285Y-73952380D01*
X190400000Y-73904761D01*
X190485714Y-73809523D01*
X190528571Y-73619047D01*
X190528571Y-73285714D01*
X190485714Y-73095238D01*
X190400000Y-73000000D01*
X190314285Y-72952380D01*
X189542857Y-73952380D02*
X189542857Y-72952380D01*
X189328571Y-72952380D01*
X189200000Y-73000000D01*
X189114285Y-73095238D01*
X189071428Y-73190476D01*
X189028571Y-73380952D01*
X189028571Y-73523809D01*
X189071428Y-73714285D01*
X189114285Y-73809523D01*
X189200000Y-73904761D01*
X189328571Y-73952380D01*
X189542857Y-73952380D01*
X192785714Y-71452380D02*
X192785714Y-70452380D01*
X192485714Y-71166666D01*
X192185714Y-70452380D01*
X192185714Y-71452380D01*
X191757142Y-71452380D02*
X191757142Y-70452380D01*
X191371428Y-71404761D02*
X191242857Y-71452380D01*
X191028571Y-71452380D01*
X190942857Y-71404761D01*
X190900000Y-71357142D01*
X190857142Y-71261904D01*
X190857142Y-71166666D01*
X190900000Y-71071428D01*
X190942857Y-71023809D01*
X191028571Y-70976190D01*
X191200000Y-70928571D01*
X191285714Y-70880952D01*
X191328571Y-70833333D01*
X191371428Y-70738095D01*
X191371428Y-70642857D01*
X191328571Y-70547619D01*
X191285714Y-70500000D01*
X191200000Y-70452380D01*
X190985714Y-70452380D01*
X190857142Y-70500000D01*
X190600000Y-70452380D02*
X190085714Y-70452380D01*
X190342857Y-71452380D02*
X190342857Y-70452380D01*
X193178571Y-68904761D02*
X193050000Y-68952380D01*
X192835714Y-68952380D01*
X192750000Y-68904761D01*
X192707142Y-68857142D01*
X192664285Y-68761904D01*
X192664285Y-68666666D01*
X192707142Y-68571428D01*
X192750000Y-68523809D01*
X192835714Y-68476190D01*
X193007142Y-68428571D01*
X193092857Y-68380952D01*
X193135714Y-68333333D01*
X193178571Y-68238095D01*
X193178571Y-68142857D01*
X193135714Y-68047619D01*
X193092857Y-68000000D01*
X193007142Y-67952380D01*
X192792857Y-67952380D01*
X192664285Y-68000000D01*
X192107142Y-67952380D02*
X191935714Y-67952380D01*
X191850000Y-68000000D01*
X191764285Y-68095238D01*
X191721428Y-68285714D01*
X191721428Y-68619047D01*
X191764285Y-68809523D01*
X191850000Y-68904761D01*
X191935714Y-68952380D01*
X192107142Y-68952380D01*
X192192857Y-68904761D01*
X192278571Y-68809523D01*
X192321428Y-68619047D01*
X192321428Y-68285714D01*
X192278571Y-68095238D01*
X192192857Y-68000000D01*
X192107142Y-67952380D01*
X191035714Y-68428571D02*
X191335714Y-68428571D01*
X191335714Y-68952380D02*
X191335714Y-67952380D01*
X190907142Y-67952380D01*
X190692857Y-67952380D02*
X190178571Y-67952380D01*
X190435714Y-68952380D02*
X190435714Y-67952380D01*
X189364285Y-68952380D02*
X189664285Y-68476190D01*
X189878571Y-68952380D02*
X189878571Y-67952380D01*
X189535714Y-67952380D01*
X189450000Y-68000000D01*
X189407142Y-68047619D01*
X189364285Y-68142857D01*
X189364285Y-68285714D01*
X189407142Y-68380952D01*
X189450000Y-68428571D01*
X189535714Y-68476190D01*
X189878571Y-68476190D01*
X189021428Y-68904761D02*
X188892857Y-68952380D01*
X188678571Y-68952380D01*
X188592857Y-68904761D01*
X188550000Y-68857142D01*
X188507142Y-68761904D01*
X188507142Y-68666666D01*
X188550000Y-68571428D01*
X188592857Y-68523809D01*
X188678571Y-68476190D01*
X188850000Y-68428571D01*
X188935714Y-68380952D01*
X188978571Y-68333333D01*
X189021428Y-68238095D01*
X189021428Y-68142857D01*
X188978571Y-68047619D01*
X188935714Y-68000000D01*
X188850000Y-67952380D01*
X188635714Y-67952380D01*
X188507142Y-68000000D01*
X188250000Y-67952380D02*
X187735714Y-67952380D01*
X187992857Y-68952380D02*
X187992857Y-67952380D01*
X192078571Y-66452380D02*
X192378571Y-65976190D01*
X192592857Y-66452380D02*
X192592857Y-65452380D01*
X192250000Y-65452380D01*
X192164285Y-65500000D01*
X192121428Y-65547619D01*
X192078571Y-65642857D01*
X192078571Y-65785714D01*
X192121428Y-65880952D01*
X192164285Y-65928571D01*
X192250000Y-65976190D01*
X192592857Y-65976190D01*
X191778571Y-65452380D02*
X191178571Y-66452380D01*
X191178571Y-65452380D02*
X191778571Y-66452380D01*
X190364285Y-66452380D02*
X190878571Y-66452380D01*
X190621428Y-66452380D02*
X190621428Y-65452380D01*
X190707142Y-65595238D01*
X190792857Y-65690476D01*
X190878571Y-65738095D01*
X192614285Y-62952380D02*
X192100000Y-62952380D01*
X192357142Y-63952380D02*
X192357142Y-62952380D01*
X191885714Y-62952380D02*
X191285714Y-63952380D01*
X191285714Y-62952380D02*
X191885714Y-63952380D01*
X190471428Y-63952380D02*
X190985714Y-63952380D01*
X190728571Y-63952380D02*
X190728571Y-62952380D01*
X190814285Y-63095238D01*
X190900000Y-63190476D01*
X190985714Y-63238095D01*
X192885714Y-60928571D02*
X192585714Y-60928571D01*
X192457142Y-61452380D02*
X192885714Y-61452380D01*
X192885714Y-60452380D01*
X192457142Y-60452380D01*
X192114285Y-61404761D02*
X191985714Y-61452380D01*
X191771428Y-61452380D01*
X191685714Y-61404761D01*
X191642857Y-61357142D01*
X191600000Y-61261904D01*
X191600000Y-61166666D01*
X191642857Y-61071428D01*
X191685714Y-61023809D01*
X191771428Y-60976190D01*
X191942857Y-60928571D01*
X192028571Y-60880952D01*
X192071428Y-60833333D01*
X192114285Y-60738095D01*
X192114285Y-60642857D01*
X192071428Y-60547619D01*
X192028571Y-60500000D01*
X191942857Y-60452380D01*
X191728571Y-60452380D01*
X191600000Y-60500000D01*
X191342857Y-60452380D02*
X190828571Y-60452380D01*
X191085714Y-61452380D02*
X191085714Y-60452380D01*
X190357142Y-60452380D02*
X190185714Y-60452380D01*
X190100000Y-60500000D01*
X190014285Y-60595238D01*
X189971428Y-60785714D01*
X189971428Y-61119047D01*
X190014285Y-61309523D01*
X190100000Y-61404761D01*
X190185714Y-61452380D01*
X190357142Y-61452380D01*
X190442857Y-61404761D01*
X190528571Y-61309523D01*
X190571428Y-61119047D01*
X190571428Y-60785714D01*
X190528571Y-60595238D01*
X190442857Y-60500000D01*
X190357142Y-60452380D01*
X189585714Y-61452380D02*
X189585714Y-60452380D01*
X189242857Y-60452380D01*
X189157142Y-60500000D01*
X189114285Y-60547619D01*
X189071428Y-60642857D01*
X189071428Y-60785714D01*
X189114285Y-60880952D01*
X189157142Y-60928571D01*
X189242857Y-60976190D01*
X189585714Y-60976190D01*
X192614285Y-58666666D02*
X192185714Y-58666666D01*
X192700000Y-58952380D02*
X192400000Y-57952380D01*
X192100000Y-58952380D01*
X191800000Y-57952380D02*
X191800000Y-58761904D01*
X191757142Y-58857142D01*
X191714285Y-58904761D01*
X191628571Y-58952380D01*
X191457142Y-58952380D01*
X191371428Y-58904761D01*
X191328571Y-58857142D01*
X191285714Y-58761904D01*
X191285714Y-57952380D01*
X190942857Y-57952380D02*
X190342857Y-58952380D01*
X190342857Y-57952380D02*
X190942857Y-58952380D01*
X192657142Y-56071428D02*
X191971428Y-56071428D01*
X192314285Y-56452380D02*
X192314285Y-55690476D01*
X191114285Y-55452380D02*
X191542857Y-55452380D01*
X191585714Y-55928571D01*
X191542857Y-55880952D01*
X191457142Y-55833333D01*
X191242857Y-55833333D01*
X191157142Y-55880952D01*
X191114285Y-55928571D01*
X191071428Y-56023809D01*
X191071428Y-56261904D01*
X191114285Y-56357142D01*
X191157142Y-56404761D01*
X191242857Y-56452380D01*
X191457142Y-56452380D01*
X191542857Y-56404761D01*
X191585714Y-56357142D01*
X190814285Y-55452380D02*
X190514285Y-56452380D01*
X190214285Y-55452380D01*
X192185714Y-53000000D02*
X192271428Y-52952380D01*
X192400000Y-52952380D01*
X192528571Y-53000000D01*
X192614285Y-53095238D01*
X192657142Y-53190476D01*
X192700000Y-53380952D01*
X192700000Y-53523809D01*
X192657142Y-53714285D01*
X192614285Y-53809523D01*
X192528571Y-53904761D01*
X192400000Y-53952380D01*
X192314285Y-53952380D01*
X192185714Y-53904761D01*
X192142857Y-53857142D01*
X192142857Y-53523809D01*
X192314285Y-53523809D01*
X191757142Y-53952380D02*
X191757142Y-52952380D01*
X191242857Y-53952380D01*
X191242857Y-52952380D01*
X190814285Y-53952380D02*
X190814285Y-52952380D01*
X190600000Y-52952380D01*
X190471428Y-53000000D01*
X190385714Y-53095238D01*
X190342857Y-53190476D01*
X190300000Y-53380952D01*
X190300000Y-53523809D01*
X190342857Y-53714285D01*
X190385714Y-53809523D01*
X190471428Y-53904761D01*
X190600000Y-53952380D01*
X190814285Y-53952380D01*
X193085714Y-51071428D02*
X192400000Y-51071428D01*
X192742857Y-51452380D02*
X192742857Y-50690476D01*
X192057142Y-50452380D02*
X191500000Y-50452380D01*
X191800000Y-50833333D01*
X191671428Y-50833333D01*
X191585714Y-50880952D01*
X191542857Y-50928571D01*
X191500000Y-51023809D01*
X191500000Y-51261904D01*
X191542857Y-51357142D01*
X191585714Y-51404761D01*
X191671428Y-51452380D01*
X191928571Y-51452380D01*
X192014285Y-51404761D01*
X192057142Y-51357142D01*
X191242857Y-50452380D02*
X190942857Y-51452380D01*
X190642857Y-50452380D01*
X190428571Y-50452380D02*
X189871428Y-50452380D01*
X190171428Y-50833333D01*
X190042857Y-50833333D01*
X189957142Y-50880952D01*
X189914285Y-50928571D01*
X189871428Y-51023809D01*
X189871428Y-51261904D01*
X189914285Y-51357142D01*
X189957142Y-51404761D01*
X190042857Y-51452380D01*
X190300000Y-51452380D01*
X190385714Y-51404761D01*
X190428571Y-51357142D01*
X183685714Y-98500000D02*
X183771428Y-98452380D01*
X183900000Y-98452380D01*
X184028571Y-98500000D01*
X184114285Y-98595238D01*
X184157142Y-98690476D01*
X184200000Y-98880952D01*
X184200000Y-99023809D01*
X184157142Y-99214285D01*
X184114285Y-99309523D01*
X184028571Y-99404761D01*
X183900000Y-99452380D01*
X183814285Y-99452380D01*
X183685714Y-99404761D01*
X183642857Y-99357142D01*
X183642857Y-99023809D01*
X183814285Y-99023809D01*
X183257142Y-99452380D02*
X183257142Y-98452380D01*
X182742857Y-99452380D01*
X182742857Y-98452380D01*
X182314285Y-99452380D02*
X182314285Y-98452380D01*
X182100000Y-98452380D01*
X181971428Y-98500000D01*
X181885714Y-98595238D01*
X181842857Y-98690476D01*
X181800000Y-98880952D01*
X181800000Y-99023809D01*
X181842857Y-99214285D01*
X181885714Y-99309523D01*
X181971428Y-99404761D01*
X182100000Y-99452380D01*
X182314285Y-99452380D01*
X183685714Y-96000000D02*
X183771428Y-95952380D01*
X183900000Y-95952380D01*
X184028571Y-96000000D01*
X184114285Y-96095238D01*
X184157142Y-96190476D01*
X184200000Y-96380952D01*
X184200000Y-96523809D01*
X184157142Y-96714285D01*
X184114285Y-96809523D01*
X184028571Y-96904761D01*
X183900000Y-96952380D01*
X183814285Y-96952380D01*
X183685714Y-96904761D01*
X183642857Y-96857142D01*
X183642857Y-96523809D01*
X183814285Y-96523809D01*
X183257142Y-96952380D02*
X183257142Y-95952380D01*
X182742857Y-96952380D01*
X182742857Y-95952380D01*
X182314285Y-96952380D02*
X182314285Y-95952380D01*
X182100000Y-95952380D01*
X181971428Y-96000000D01*
X181885714Y-96095238D01*
X181842857Y-96190476D01*
X181800000Y-96380952D01*
X181800000Y-96523809D01*
X181842857Y-96714285D01*
X181885714Y-96809523D01*
X181971428Y-96904761D01*
X182100000Y-96952380D01*
X182314285Y-96952380D01*
X185085714Y-94071428D02*
X184400000Y-94071428D01*
X184742857Y-94452380D02*
X184742857Y-93690476D01*
X184057142Y-93452380D02*
X183500000Y-93452380D01*
X183800000Y-93833333D01*
X183671428Y-93833333D01*
X183585714Y-93880952D01*
X183542857Y-93928571D01*
X183500000Y-94023809D01*
X183500000Y-94261904D01*
X183542857Y-94357142D01*
X183585714Y-94404761D01*
X183671428Y-94452380D01*
X183928571Y-94452380D01*
X184014285Y-94404761D01*
X184057142Y-94357142D01*
X183242857Y-93452380D02*
X182942857Y-94452380D01*
X182642857Y-93452380D01*
X182428571Y-93452380D02*
X181871428Y-93452380D01*
X182171428Y-93833333D01*
X182042857Y-93833333D01*
X181957142Y-93880952D01*
X181914285Y-93928571D01*
X181871428Y-94023809D01*
X181871428Y-94261904D01*
X181914285Y-94357142D01*
X181957142Y-94404761D01*
X182042857Y-94452380D01*
X182300000Y-94452380D01*
X182385714Y-94404761D01*
X182428571Y-94357142D01*
X186764285Y-91952380D02*
X186764285Y-90952380D01*
X186764285Y-91428571D02*
X186250000Y-91428571D01*
X186250000Y-91952380D02*
X186250000Y-90952380D01*
X185864285Y-91666666D02*
X185435714Y-91666666D01*
X185950000Y-91952380D02*
X185650000Y-90952380D01*
X185350000Y-91952380D01*
X184535714Y-91952380D02*
X184835714Y-91476190D01*
X185050000Y-91952380D02*
X185050000Y-90952380D01*
X184707142Y-90952380D01*
X184621428Y-91000000D01*
X184578571Y-91047619D01*
X184535714Y-91142857D01*
X184535714Y-91285714D01*
X184578571Y-91380952D01*
X184621428Y-91428571D01*
X184707142Y-91476190D01*
X185050000Y-91476190D01*
X184150000Y-91952380D02*
X184150000Y-90952380D01*
X183935714Y-90952380D01*
X183807142Y-91000000D01*
X183721428Y-91095238D01*
X183678571Y-91190476D01*
X183635714Y-91380952D01*
X183635714Y-91523809D01*
X183678571Y-91714285D01*
X183721428Y-91809523D01*
X183807142Y-91904761D01*
X183935714Y-91952380D01*
X184150000Y-91952380D01*
X182735714Y-91952380D02*
X183035714Y-91476190D01*
X183250000Y-91952380D02*
X183250000Y-90952380D01*
X182907142Y-90952380D01*
X182821428Y-91000000D01*
X182778571Y-91047619D01*
X182735714Y-91142857D01*
X182735714Y-91285714D01*
X182778571Y-91380952D01*
X182821428Y-91428571D01*
X182907142Y-91476190D01*
X183250000Y-91476190D01*
X182392857Y-91904761D02*
X182264285Y-91952380D01*
X182050000Y-91952380D01*
X181964285Y-91904761D01*
X181921428Y-91857142D01*
X181878571Y-91761904D01*
X181878571Y-91666666D01*
X181921428Y-91571428D01*
X181964285Y-91523809D01*
X182050000Y-91476190D01*
X182221428Y-91428571D01*
X182307142Y-91380952D01*
X182350000Y-91333333D01*
X182392857Y-91238095D01*
X182392857Y-91142857D01*
X182350000Y-91047619D01*
X182307142Y-91000000D01*
X182221428Y-90952380D01*
X182007142Y-90952380D01*
X181878571Y-91000000D01*
X181621428Y-90952380D02*
X181107142Y-90952380D01*
X181364285Y-91952380D02*
X181364285Y-90952380D01*
X185650000Y-88976190D02*
X185650000Y-89452380D01*
X185950000Y-88452380D02*
X185650000Y-88976190D01*
X185350000Y-88452380D01*
X184621428Y-89452380D02*
X185050000Y-89452380D01*
X185050000Y-88452380D01*
X184321428Y-89452380D02*
X184321428Y-88452380D01*
X183892857Y-89452380D02*
X183892857Y-88452380D01*
X183592857Y-89166666D01*
X183292857Y-88452380D01*
X183292857Y-89452380D01*
X182864285Y-89452380D02*
X182864285Y-88452380D01*
X182564285Y-88452380D02*
X182050000Y-88452380D01*
X182307142Y-89452380D02*
X182307142Y-88452380D01*
X185950000Y-85952380D02*
X185350000Y-86952380D01*
X185350000Y-85952380D02*
X185950000Y-86952380D01*
X184578571Y-86952380D02*
X185007142Y-86952380D01*
X185007142Y-85952380D01*
X184278571Y-86952380D02*
X184278571Y-85952380D01*
X183850000Y-86952380D02*
X183850000Y-85952380D01*
X183550000Y-86666666D01*
X183250000Y-85952380D01*
X183250000Y-86952380D01*
X182821428Y-86952380D02*
X182821428Y-85952380D01*
X182521428Y-85952380D02*
X182007142Y-85952380D01*
X182264285Y-86952380D02*
X182264285Y-85952380D01*
X186271428Y-84404761D02*
X186142857Y-84452380D01*
X185928571Y-84452380D01*
X185842857Y-84404761D01*
X185800000Y-84357142D01*
X185757142Y-84261904D01*
X185757142Y-84166666D01*
X185800000Y-84071428D01*
X185842857Y-84023809D01*
X185928571Y-83976190D01*
X186100000Y-83928571D01*
X186185714Y-83880952D01*
X186228571Y-83833333D01*
X186271428Y-83738095D01*
X186271428Y-83642857D01*
X186228571Y-83547619D01*
X186185714Y-83500000D01*
X186100000Y-83452380D01*
X185885714Y-83452380D01*
X185757142Y-83500000D01*
X185371428Y-84452380D02*
X185371428Y-83452380D01*
X185028571Y-83452380D01*
X184942857Y-83500000D01*
X184900000Y-83547619D01*
X184857142Y-83642857D01*
X184857142Y-83785714D01*
X184900000Y-83880952D01*
X184942857Y-83928571D01*
X185028571Y-83976190D01*
X185371428Y-83976190D01*
X184471428Y-84452380D02*
X184471428Y-83452380D01*
X184042857Y-84452380D02*
X184042857Y-83452380D01*
X183528571Y-84452380D01*
X183528571Y-83452380D01*
X183100000Y-83928571D02*
X182800000Y-83928571D01*
X182671428Y-84452380D02*
X183100000Y-84452380D01*
X183100000Y-83452380D01*
X182671428Y-83452380D01*
X182285714Y-84452380D02*
X182285714Y-83452380D01*
X181771428Y-84452380D01*
X181771428Y-83452380D01*
X186507142Y-81404761D02*
X186378571Y-81452380D01*
X186164285Y-81452380D01*
X186078571Y-81404761D01*
X186035714Y-81357142D01*
X185992857Y-81261904D01*
X185992857Y-81166666D01*
X186035714Y-81071428D01*
X186078571Y-81023809D01*
X186164285Y-80976190D01*
X186335714Y-80928571D01*
X186421428Y-80880952D01*
X186464285Y-80833333D01*
X186507142Y-80738095D01*
X186507142Y-80642857D01*
X186464285Y-80547619D01*
X186421428Y-80500000D01*
X186335714Y-80452380D01*
X186121428Y-80452380D01*
X185992857Y-80500000D01*
X185607142Y-81452380D02*
X185607142Y-80452380D01*
X185264285Y-80452380D01*
X185178571Y-80500000D01*
X185135714Y-80547619D01*
X185092857Y-80642857D01*
X185092857Y-80785714D01*
X185135714Y-80880952D01*
X185178571Y-80928571D01*
X185264285Y-80976190D01*
X185607142Y-80976190D01*
X184707142Y-81452380D02*
X184707142Y-80452380D01*
X184278571Y-81452380D02*
X184278571Y-80452380D01*
X183764285Y-81452380D01*
X183764285Y-80452380D01*
X183335714Y-81452380D02*
X183335714Y-80452380D01*
X183121428Y-80452380D01*
X182992857Y-80500000D01*
X182907142Y-80595238D01*
X182864285Y-80690476D01*
X182821428Y-80880952D01*
X182821428Y-81023809D01*
X182864285Y-81214285D01*
X182907142Y-81309523D01*
X182992857Y-81404761D01*
X183121428Y-81452380D01*
X183335714Y-81452380D01*
X182435714Y-81452380D02*
X182435714Y-80452380D01*
X181492857Y-81452380D02*
X181792857Y-80976190D01*
X182007142Y-81452380D02*
X182007142Y-80452380D01*
X181664285Y-80452380D01*
X181578571Y-80500000D01*
X181535714Y-80547619D01*
X181492857Y-80642857D01*
X181492857Y-80785714D01*
X181535714Y-80880952D01*
X181578571Y-80928571D01*
X181664285Y-80976190D01*
X182007142Y-80976190D01*
X184828571Y-78666666D02*
X184400000Y-78666666D01*
X184914285Y-78952380D02*
X184614285Y-77952380D01*
X184314285Y-78952380D01*
X184014285Y-78952380D02*
X184014285Y-77952380D01*
X183800000Y-77952380D01*
X183671428Y-78000000D01*
X183585714Y-78095238D01*
X183542857Y-78190476D01*
X183500000Y-78380952D01*
X183500000Y-78523809D01*
X183542857Y-78714285D01*
X183585714Y-78809523D01*
X183671428Y-78904761D01*
X183800000Y-78952380D01*
X184014285Y-78952380D01*
X183114285Y-78952380D02*
X183114285Y-77952380D01*
X182171428Y-78952380D02*
X182471428Y-78476190D01*
X182685714Y-78952380D02*
X182685714Y-77952380D01*
X182342857Y-77952380D01*
X182257142Y-78000000D01*
X182214285Y-78047619D01*
X182171428Y-78142857D01*
X182171428Y-78285714D01*
X182214285Y-78380952D01*
X182257142Y-78428571D01*
X182342857Y-78476190D01*
X182685714Y-78476190D01*
X185342857Y-76166666D02*
X184914285Y-76166666D01*
X185428571Y-76452380D02*
X185128571Y-75452380D01*
X184828571Y-76452380D01*
X184571428Y-76404761D02*
X184442857Y-76452380D01*
X184228571Y-76452380D01*
X184142857Y-76404761D01*
X184100000Y-76357142D01*
X184057142Y-76261904D01*
X184057142Y-76166666D01*
X184100000Y-76071428D01*
X184142857Y-76023809D01*
X184228571Y-75976190D01*
X184400000Y-75928571D01*
X184485714Y-75880952D01*
X184528571Y-75833333D01*
X184571428Y-75738095D01*
X184571428Y-75642857D01*
X184528571Y-75547619D01*
X184485714Y-75500000D01*
X184400000Y-75452380D01*
X184185714Y-75452380D01*
X184057142Y-75500000D01*
X183800000Y-75452380D02*
X183285714Y-75452380D01*
X183542857Y-76452380D02*
X183542857Y-75452380D01*
X182985714Y-75928571D02*
X182685714Y-75928571D01*
X182557142Y-76452380D02*
X182985714Y-76452380D01*
X182985714Y-75452380D01*
X182557142Y-75452380D01*
X182171428Y-76452380D02*
X182171428Y-75452380D01*
X181828571Y-75452380D01*
X181742857Y-75500000D01*
X181700000Y-75547619D01*
X181657142Y-75642857D01*
X181657142Y-75785714D01*
X181700000Y-75880952D01*
X181742857Y-75928571D01*
X181828571Y-75976190D01*
X182171428Y-75976190D01*
X184914285Y-72952380D02*
X184314285Y-72952380D01*
X184914285Y-73952380D01*
X184314285Y-73952380D01*
X183971428Y-73952380D02*
X183971428Y-72952380D01*
X183757142Y-72952380D01*
X183628571Y-73000000D01*
X183542857Y-73095238D01*
X183500000Y-73190476D01*
X183457142Y-73380952D01*
X183457142Y-73523809D01*
X183500000Y-73714285D01*
X183542857Y-73809523D01*
X183628571Y-73904761D01*
X183757142Y-73952380D01*
X183971428Y-73952380D01*
X183071428Y-73952380D02*
X183071428Y-72952380D01*
X182128571Y-73952380D02*
X182428571Y-73476190D01*
X182642857Y-73952380D02*
X182642857Y-72952380D01*
X182300000Y-72952380D01*
X182214285Y-73000000D01*
X182171428Y-73047619D01*
X182128571Y-73142857D01*
X182128571Y-73285714D01*
X182171428Y-73380952D01*
X182214285Y-73428571D01*
X182300000Y-73476190D01*
X182642857Y-73476190D01*
X185428571Y-70452380D02*
X184828571Y-70452380D01*
X185428571Y-71452380D01*
X184828571Y-71452380D01*
X184528571Y-71404761D02*
X184400000Y-71452380D01*
X184185714Y-71452380D01*
X184100000Y-71404761D01*
X184057142Y-71357142D01*
X184014285Y-71261904D01*
X184014285Y-71166666D01*
X184057142Y-71071428D01*
X184100000Y-71023809D01*
X184185714Y-70976190D01*
X184357142Y-70928571D01*
X184442857Y-70880952D01*
X184485714Y-70833333D01*
X184528571Y-70738095D01*
X184528571Y-70642857D01*
X184485714Y-70547619D01*
X184442857Y-70500000D01*
X184357142Y-70452380D01*
X184142857Y-70452380D01*
X184014285Y-70500000D01*
X183757142Y-70452380D02*
X183242857Y-70452380D01*
X183500000Y-71452380D02*
X183500000Y-70452380D01*
X182942857Y-70928571D02*
X182642857Y-70928571D01*
X182514285Y-71452380D02*
X182942857Y-71452380D01*
X182942857Y-70452380D01*
X182514285Y-70452380D01*
X182128571Y-71452380D02*
X182128571Y-70452380D01*
X181785714Y-70452380D01*
X181700000Y-70500000D01*
X181657142Y-70547619D01*
X181614285Y-70642857D01*
X181614285Y-70785714D01*
X181657142Y-70880952D01*
X181700000Y-70928571D01*
X181785714Y-70976190D01*
X182128571Y-70976190D01*
X184614285Y-68476190D02*
X184614285Y-68952380D01*
X184914285Y-67952380D02*
X184614285Y-68476190D01*
X184314285Y-67952380D01*
X184014285Y-68952380D02*
X184014285Y-67952380D01*
X183800000Y-67952380D01*
X183671428Y-68000000D01*
X183585714Y-68095238D01*
X183542857Y-68190476D01*
X183500000Y-68380952D01*
X183500000Y-68523809D01*
X183542857Y-68714285D01*
X183585714Y-68809523D01*
X183671428Y-68904761D01*
X183800000Y-68952380D01*
X184014285Y-68952380D01*
X183114285Y-68952380D02*
X183114285Y-67952380D01*
X182171428Y-68952380D02*
X182471428Y-68476190D01*
X182685714Y-68952380D02*
X182685714Y-67952380D01*
X182342857Y-67952380D01*
X182257142Y-68000000D01*
X182214285Y-68047619D01*
X182171428Y-68142857D01*
X182171428Y-68285714D01*
X182214285Y-68380952D01*
X182257142Y-68428571D01*
X182342857Y-68476190D01*
X182685714Y-68476190D01*
X185128571Y-65976190D02*
X185128571Y-66452380D01*
X185428571Y-65452380D02*
X185128571Y-65976190D01*
X184828571Y-65452380D01*
X184571428Y-66404761D02*
X184442857Y-66452380D01*
X184228571Y-66452380D01*
X184142857Y-66404761D01*
X184100000Y-66357142D01*
X184057142Y-66261904D01*
X184057142Y-66166666D01*
X184100000Y-66071428D01*
X184142857Y-66023809D01*
X184228571Y-65976190D01*
X184400000Y-65928571D01*
X184485714Y-65880952D01*
X184528571Y-65833333D01*
X184571428Y-65738095D01*
X184571428Y-65642857D01*
X184528571Y-65547619D01*
X184485714Y-65500000D01*
X184400000Y-65452380D01*
X184185714Y-65452380D01*
X184057142Y-65500000D01*
X183800000Y-65452380D02*
X183285714Y-65452380D01*
X183542857Y-66452380D02*
X183542857Y-65452380D01*
X182985714Y-65928571D02*
X182685714Y-65928571D01*
X182557142Y-66452380D02*
X182985714Y-66452380D01*
X182985714Y-65452380D01*
X182557142Y-65452380D01*
X182171428Y-66452380D02*
X182171428Y-65452380D01*
X181828571Y-65452380D01*
X181742857Y-65500000D01*
X181700000Y-65547619D01*
X181657142Y-65642857D01*
X181657142Y-65785714D01*
X181700000Y-65880952D01*
X181742857Y-65928571D01*
X181828571Y-65976190D01*
X182171428Y-65976190D01*
X184414285Y-62952380D02*
X183814285Y-63952380D01*
X183814285Y-62952380D02*
X184414285Y-63952380D01*
X183471428Y-63952380D02*
X183471428Y-62952380D01*
X183257142Y-62952380D01*
X183128571Y-63000000D01*
X183042857Y-63095238D01*
X183000000Y-63190476D01*
X182957142Y-63380952D01*
X182957142Y-63523809D01*
X183000000Y-63714285D01*
X183042857Y-63809523D01*
X183128571Y-63904761D01*
X183257142Y-63952380D01*
X183471428Y-63952380D01*
X182571428Y-63952380D02*
X182571428Y-62952380D01*
X181628571Y-63952380D02*
X181928571Y-63476190D01*
X182142857Y-63952380D02*
X182142857Y-62952380D01*
X181800000Y-62952380D01*
X181714285Y-63000000D01*
X181671428Y-63047619D01*
X181628571Y-63142857D01*
X181628571Y-63285714D01*
X181671428Y-63380952D01*
X181714285Y-63428571D01*
X181800000Y-63476190D01*
X182142857Y-63476190D01*
X185428571Y-60452380D02*
X184828571Y-61452380D01*
X184828571Y-60452380D02*
X185428571Y-61452380D01*
X184528571Y-61404761D02*
X184400000Y-61452380D01*
X184185714Y-61452380D01*
X184100000Y-61404761D01*
X184057142Y-61357142D01*
X184014285Y-61261904D01*
X184014285Y-61166666D01*
X184057142Y-61071428D01*
X184100000Y-61023809D01*
X184185714Y-60976190D01*
X184357142Y-60928571D01*
X184442857Y-60880952D01*
X184485714Y-60833333D01*
X184528571Y-60738095D01*
X184528571Y-60642857D01*
X184485714Y-60547619D01*
X184442857Y-60500000D01*
X184357142Y-60452380D01*
X184142857Y-60452380D01*
X184014285Y-60500000D01*
X183757142Y-60452380D02*
X183242857Y-60452380D01*
X183500000Y-61452380D02*
X183500000Y-60452380D01*
X182942857Y-60928571D02*
X182642857Y-60928571D01*
X182514285Y-61452380D02*
X182942857Y-61452380D01*
X182942857Y-60452380D01*
X182514285Y-60452380D01*
X182128571Y-61452380D02*
X182128571Y-60452380D01*
X181785714Y-60452380D01*
X181700000Y-60500000D01*
X181657142Y-60547619D01*
X181614285Y-60642857D01*
X181614285Y-60785714D01*
X181657142Y-60880952D01*
X181700000Y-60928571D01*
X181785714Y-60976190D01*
X182128571Y-60976190D01*
X184542857Y-58952380D02*
X184542857Y-57952380D01*
X184200000Y-57952380D01*
X184114285Y-58000000D01*
X184071428Y-58047619D01*
X184028571Y-58142857D01*
X184028571Y-58285714D01*
X184071428Y-58380952D01*
X184114285Y-58428571D01*
X184200000Y-58476190D01*
X184542857Y-58476190D01*
X183128571Y-58857142D02*
X183171428Y-58904761D01*
X183300000Y-58952380D01*
X183385714Y-58952380D01*
X183514285Y-58904761D01*
X183600000Y-58809523D01*
X183642857Y-58714285D01*
X183685714Y-58523809D01*
X183685714Y-58380952D01*
X183642857Y-58190476D01*
X183600000Y-58095238D01*
X183514285Y-58000000D01*
X183385714Y-57952380D01*
X183300000Y-57952380D01*
X183171428Y-58000000D01*
X183128571Y-58047619D01*
X182271428Y-58952380D02*
X182785714Y-58952380D01*
X182528571Y-58952380D02*
X182528571Y-57952380D01*
X182614285Y-58095238D01*
X182700000Y-58190476D01*
X182785714Y-58238095D01*
X181457142Y-57952380D02*
X181885714Y-57952380D01*
X181928571Y-58428571D01*
X181885714Y-58380952D01*
X181800000Y-58333333D01*
X181585714Y-58333333D01*
X181500000Y-58380952D01*
X181457142Y-58428571D01*
X181414285Y-58523809D01*
X181414285Y-58761904D01*
X181457142Y-58857142D01*
X181500000Y-58904761D01*
X181585714Y-58952380D01*
X181800000Y-58952380D01*
X181885714Y-58904761D01*
X181928571Y-58857142D01*
X184542857Y-56452380D02*
X184542857Y-55452380D01*
X184200000Y-55452380D01*
X184114285Y-55500000D01*
X184071428Y-55547619D01*
X184028571Y-55642857D01*
X184028571Y-55785714D01*
X184071428Y-55880952D01*
X184114285Y-55928571D01*
X184200000Y-55976190D01*
X184542857Y-55976190D01*
X183128571Y-56357142D02*
X183171428Y-56404761D01*
X183300000Y-56452380D01*
X183385714Y-56452380D01*
X183514285Y-56404761D01*
X183600000Y-56309523D01*
X183642857Y-56214285D01*
X183685714Y-56023809D01*
X183685714Y-55880952D01*
X183642857Y-55690476D01*
X183600000Y-55595238D01*
X183514285Y-55500000D01*
X183385714Y-55452380D01*
X183300000Y-55452380D01*
X183171428Y-55500000D01*
X183128571Y-55547619D01*
X182271428Y-56452380D02*
X182785714Y-56452380D01*
X182528571Y-56452380D02*
X182528571Y-55452380D01*
X182614285Y-55595238D01*
X182700000Y-55690476D01*
X182785714Y-55738095D01*
X181500000Y-55785714D02*
X181500000Y-56452380D01*
X181714285Y-55404761D02*
X181928571Y-56119047D01*
X181371428Y-56119047D01*
X184542857Y-53952380D02*
X184542857Y-52952380D01*
X184200000Y-52952380D01*
X184114285Y-53000000D01*
X184071428Y-53047619D01*
X184028571Y-53142857D01*
X184028571Y-53285714D01*
X184071428Y-53380952D01*
X184114285Y-53428571D01*
X184200000Y-53476190D01*
X184542857Y-53476190D01*
X183128571Y-53857142D02*
X183171428Y-53904761D01*
X183300000Y-53952380D01*
X183385714Y-53952380D01*
X183514285Y-53904761D01*
X183600000Y-53809523D01*
X183642857Y-53714285D01*
X183685714Y-53523809D01*
X183685714Y-53380952D01*
X183642857Y-53190476D01*
X183600000Y-53095238D01*
X183514285Y-53000000D01*
X183385714Y-52952380D01*
X183300000Y-52952380D01*
X183171428Y-53000000D01*
X183128571Y-53047619D01*
X182271428Y-53952380D02*
X182785714Y-53952380D01*
X182528571Y-53952380D02*
X182528571Y-52952380D01*
X182614285Y-53095238D01*
X182700000Y-53190476D01*
X182785714Y-53238095D01*
X181971428Y-52952380D02*
X181414285Y-52952380D01*
X181714285Y-53333333D01*
X181585714Y-53333333D01*
X181500000Y-53380952D01*
X181457142Y-53428571D01*
X181414285Y-53523809D01*
X181414285Y-53761904D01*
X181457142Y-53857142D01*
X181500000Y-53904761D01*
X181585714Y-53952380D01*
X181842857Y-53952380D01*
X181928571Y-53904761D01*
X181971428Y-53857142D01*
X184478571Y-50452380D02*
X184178571Y-51452380D01*
X183878571Y-50452380D01*
X183278571Y-50928571D02*
X183150000Y-50976190D01*
X183107142Y-51023809D01*
X183064285Y-51119047D01*
X183064285Y-51261904D01*
X183107142Y-51357142D01*
X183150000Y-51404761D01*
X183235714Y-51452380D01*
X183578571Y-51452380D01*
X183578571Y-50452380D01*
X183278571Y-50452380D01*
X183192857Y-50500000D01*
X183150000Y-50547619D01*
X183107142Y-50642857D01*
X183107142Y-50738095D01*
X183150000Y-50833333D01*
X183192857Y-50880952D01*
X183278571Y-50928571D01*
X183578571Y-50928571D01*
X182721428Y-51166666D02*
X182292857Y-51166666D01*
X182807142Y-51452380D02*
X182507142Y-50452380D01*
X182207142Y-51452380D01*
X182035714Y-50452380D02*
X181521428Y-50452380D01*
X181778571Y-51452380D02*
X181778571Y-50452380D01*
D11*
X208466666Y-94692857D02*
X208233333Y-94692857D01*
X208133333Y-95111904D02*
X208466666Y-95111904D01*
X208466666Y-94311904D01*
X208133333Y-94311904D01*
X207866666Y-95073809D02*
X207766666Y-95111904D01*
X207600000Y-95111904D01*
X207533333Y-95073809D01*
X207500000Y-95035714D01*
X207466666Y-94959523D01*
X207466666Y-94883333D01*
X207500000Y-94807142D01*
X207533333Y-94769047D01*
X207600000Y-94730952D01*
X207733333Y-94692857D01*
X207800000Y-94654761D01*
X207833333Y-94616666D01*
X207866666Y-94540476D01*
X207866666Y-94464285D01*
X207833333Y-94388095D01*
X207800000Y-94350000D01*
X207733333Y-94311904D01*
X207566666Y-94311904D01*
X207466666Y-94350000D01*
X207266666Y-94311904D02*
X206866666Y-94311904D01*
X207066666Y-95111904D02*
X207066666Y-94311904D01*
X206500000Y-94311904D02*
X206366666Y-94311904D01*
X206300000Y-94350000D01*
X206233333Y-94426190D01*
X206200000Y-94578571D01*
X206200000Y-94845238D01*
X206233333Y-94997619D01*
X206300000Y-95073809D01*
X206366666Y-95111904D01*
X206500000Y-95111904D01*
X206566666Y-95073809D01*
X206633333Y-94997619D01*
X206666666Y-94845238D01*
X206666666Y-94578571D01*
X206633333Y-94426190D01*
X206566666Y-94350000D01*
X206500000Y-94311904D01*
X205900000Y-95111904D02*
X205900000Y-94311904D01*
X205633333Y-94311904D01*
X205566666Y-94350000D01*
X205533333Y-94388095D01*
X205500000Y-94464285D01*
X205500000Y-94578571D01*
X205533333Y-94654761D01*
X205566666Y-94692857D01*
X205633333Y-94730952D01*
X205900000Y-94730952D01*
X208433333Y-91811904D02*
X207966666Y-91811904D01*
X208433333Y-92611904D01*
X207966666Y-92611904D01*
X207366666Y-92611904D02*
X207700000Y-92611904D01*
X207700000Y-91811904D01*
X207133333Y-92611904D02*
X207133333Y-91811904D01*
X206900000Y-92383333D01*
X206666666Y-91811904D01*
X206666666Y-92611904D01*
X206433333Y-91811904D02*
X206033333Y-91811904D01*
X206233333Y-92611904D02*
X206233333Y-91811904D01*
X208200000Y-89730952D02*
X208200000Y-90111904D01*
X208433333Y-89311904D02*
X208200000Y-89730952D01*
X207966666Y-89311904D01*
X207400000Y-90111904D02*
X207733333Y-90111904D01*
X207733333Y-89311904D01*
X207166666Y-90111904D02*
X207166666Y-89311904D01*
X206933333Y-89883333D01*
X206700000Y-89311904D01*
X206700000Y-90111904D01*
X206466666Y-89311904D02*
X206066666Y-89311904D01*
X206266666Y-90111904D02*
X206266666Y-89311904D01*
X208433333Y-86561904D02*
X207966666Y-87361904D01*
X207966666Y-86561904D02*
X208433333Y-87361904D01*
X207366666Y-87361904D02*
X207700000Y-87361904D01*
X207700000Y-86561904D01*
X207133333Y-87361904D02*
X207133333Y-86561904D01*
X206900000Y-87133333D01*
X206666666Y-86561904D01*
X206666666Y-87361904D01*
X206433333Y-86561904D02*
X206033333Y-86561904D01*
X206233333Y-87361904D02*
X206233333Y-86561904D01*
X208283333Y-84633333D02*
X207950000Y-84633333D01*
X208350000Y-84861904D02*
X208116666Y-84061904D01*
X207883333Y-84861904D01*
X207650000Y-84861904D02*
X207650000Y-84061904D01*
X207483333Y-84061904D01*
X207383333Y-84100000D01*
X207316666Y-84176190D01*
X207283333Y-84252380D01*
X207250000Y-84404761D01*
X207250000Y-84519047D01*
X207283333Y-84671428D01*
X207316666Y-84747619D01*
X207383333Y-84823809D01*
X207483333Y-84861904D01*
X207650000Y-84861904D01*
X206950000Y-84861904D02*
X206950000Y-84061904D01*
X206216666Y-84861904D02*
X206450000Y-84480952D01*
X206616666Y-84861904D02*
X206616666Y-84061904D01*
X206350000Y-84061904D01*
X206283333Y-84100000D01*
X206250000Y-84138095D01*
X206216666Y-84214285D01*
X206216666Y-84328571D01*
X206250000Y-84404761D01*
X206283333Y-84442857D01*
X206350000Y-84480952D01*
X206616666Y-84480952D01*
X208433333Y-82133333D02*
X208100000Y-82133333D01*
X208500000Y-82361904D02*
X208266666Y-81561904D01*
X208033333Y-82361904D01*
X207833333Y-82323809D02*
X207733333Y-82361904D01*
X207566666Y-82361904D01*
X207500000Y-82323809D01*
X207466666Y-82285714D01*
X207433333Y-82209523D01*
X207433333Y-82133333D01*
X207466666Y-82057142D01*
X207500000Y-82019047D01*
X207566666Y-81980952D01*
X207700000Y-81942857D01*
X207766666Y-81904761D01*
X207800000Y-81866666D01*
X207833333Y-81790476D01*
X207833333Y-81714285D01*
X207800000Y-81638095D01*
X207766666Y-81600000D01*
X207700000Y-81561904D01*
X207533333Y-81561904D01*
X207433333Y-81600000D01*
X207233333Y-81561904D02*
X206833333Y-81561904D01*
X207033333Y-82361904D02*
X207033333Y-81561904D01*
X206600000Y-81942857D02*
X206366666Y-81942857D01*
X206266666Y-82361904D02*
X206600000Y-82361904D01*
X206600000Y-81561904D01*
X206266666Y-81561904D01*
X205966666Y-82361904D02*
X205966666Y-81561904D01*
X205700000Y-81561904D01*
X205633333Y-81600000D01*
X205600000Y-81638095D01*
X205566666Y-81714285D01*
X205566666Y-81828571D01*
X205600000Y-81904761D01*
X205633333Y-81942857D01*
X205700000Y-81980952D01*
X205966666Y-81980952D01*
X208350000Y-79061904D02*
X207883333Y-79061904D01*
X208350000Y-79861904D01*
X207883333Y-79861904D01*
X207616666Y-79861904D02*
X207616666Y-79061904D01*
X207450000Y-79061904D01*
X207350000Y-79100000D01*
X207283333Y-79176190D01*
X207250000Y-79252380D01*
X207216666Y-79404761D01*
X207216666Y-79519047D01*
X207250000Y-79671428D01*
X207283333Y-79747619D01*
X207350000Y-79823809D01*
X207450000Y-79861904D01*
X207616666Y-79861904D01*
X206916666Y-79861904D02*
X206916666Y-79061904D01*
X206183333Y-79861904D02*
X206416666Y-79480952D01*
X206583333Y-79861904D02*
X206583333Y-79061904D01*
X206316666Y-79061904D01*
X206250000Y-79100000D01*
X206216666Y-79138095D01*
X206183333Y-79214285D01*
X206183333Y-79328571D01*
X206216666Y-79404761D01*
X206250000Y-79442857D01*
X206316666Y-79480952D01*
X206583333Y-79480952D01*
X208500000Y-76561904D02*
X208033333Y-76561904D01*
X208500000Y-77361904D01*
X208033333Y-77361904D01*
X207800000Y-77323809D02*
X207700000Y-77361904D01*
X207533333Y-77361904D01*
X207466666Y-77323809D01*
X207433333Y-77285714D01*
X207400000Y-77209523D01*
X207400000Y-77133333D01*
X207433333Y-77057142D01*
X207466666Y-77019047D01*
X207533333Y-76980952D01*
X207666666Y-76942857D01*
X207733333Y-76904761D01*
X207766666Y-76866666D01*
X207800000Y-76790476D01*
X207800000Y-76714285D01*
X207766666Y-76638095D01*
X207733333Y-76600000D01*
X207666666Y-76561904D01*
X207500000Y-76561904D01*
X207400000Y-76600000D01*
X207200000Y-76561904D02*
X206800000Y-76561904D01*
X207000000Y-77361904D02*
X207000000Y-76561904D01*
X206566666Y-76942857D02*
X206333333Y-76942857D01*
X206233333Y-77361904D02*
X206566666Y-77361904D01*
X206566666Y-76561904D01*
X206233333Y-76561904D01*
X205933333Y-77361904D02*
X205933333Y-76561904D01*
X205666666Y-76561904D01*
X205600000Y-76600000D01*
X205566666Y-76638095D01*
X205533333Y-76714285D01*
X205533333Y-76828571D01*
X205566666Y-76904761D01*
X205600000Y-76942857D01*
X205666666Y-76980952D01*
X205933333Y-76980952D01*
X208116666Y-74230952D02*
X208116666Y-74611904D01*
X208350000Y-73811904D02*
X208116666Y-74230952D01*
X207883333Y-73811904D01*
X207650000Y-74611904D02*
X207650000Y-73811904D01*
X207483333Y-73811904D01*
X207383333Y-73850000D01*
X207316666Y-73926190D01*
X207283333Y-74002380D01*
X207250000Y-74154761D01*
X207250000Y-74269047D01*
X207283333Y-74421428D01*
X207316666Y-74497619D01*
X207383333Y-74573809D01*
X207483333Y-74611904D01*
X207650000Y-74611904D01*
X206950000Y-74611904D02*
X206950000Y-73811904D01*
X206216666Y-74611904D02*
X206450000Y-74230952D01*
X206616666Y-74611904D02*
X206616666Y-73811904D01*
X206350000Y-73811904D01*
X206283333Y-73850000D01*
X206250000Y-73888095D01*
X206216666Y-73964285D01*
X206216666Y-74078571D01*
X206250000Y-74154761D01*
X206283333Y-74192857D01*
X206350000Y-74230952D01*
X206616666Y-74230952D01*
X208350000Y-72323809D02*
X208250000Y-72361904D01*
X208083333Y-72361904D01*
X208016666Y-72323809D01*
X207983333Y-72285714D01*
X207950000Y-72209523D01*
X207950000Y-72133333D01*
X207983333Y-72057142D01*
X208016666Y-72019047D01*
X208083333Y-71980952D01*
X208216666Y-71942857D01*
X208283333Y-71904761D01*
X208316666Y-71866666D01*
X208350000Y-71790476D01*
X208350000Y-71714285D01*
X208316666Y-71638095D01*
X208283333Y-71600000D01*
X208216666Y-71561904D01*
X208050000Y-71561904D01*
X207950000Y-71600000D01*
X207650000Y-72361904D02*
X207650000Y-71561904D01*
X207383333Y-71561904D01*
X207316666Y-71600000D01*
X207283333Y-71638095D01*
X207250000Y-71714285D01*
X207250000Y-71828571D01*
X207283333Y-71904761D01*
X207316666Y-71942857D01*
X207383333Y-71980952D01*
X207650000Y-71980952D01*
X207016666Y-71561904D02*
X206850000Y-72361904D01*
X206716666Y-71790476D01*
X206583333Y-72361904D01*
X206416666Y-71561904D01*
X206150000Y-72361904D02*
X206150000Y-71561904D01*
X205916666Y-72133333D01*
X205683333Y-71561904D01*
X205683333Y-72361904D01*
X208266666Y-69480952D02*
X208266666Y-69861904D01*
X208500000Y-69061904D02*
X208266666Y-69480952D01*
X208033333Y-69061904D01*
X207833333Y-69823809D02*
X207733333Y-69861904D01*
X207566666Y-69861904D01*
X207500000Y-69823809D01*
X207466666Y-69785714D01*
X207433333Y-69709523D01*
X207433333Y-69633333D01*
X207466666Y-69557142D01*
X207500000Y-69519047D01*
X207566666Y-69480952D01*
X207700000Y-69442857D01*
X207766666Y-69404761D01*
X207800000Y-69366666D01*
X207833333Y-69290476D01*
X207833333Y-69214285D01*
X207800000Y-69138095D01*
X207766666Y-69100000D01*
X207700000Y-69061904D01*
X207533333Y-69061904D01*
X207433333Y-69100000D01*
X207233333Y-69061904D02*
X206833333Y-69061904D01*
X207033333Y-69861904D02*
X207033333Y-69061904D01*
X206600000Y-69442857D02*
X206366666Y-69442857D01*
X206266666Y-69861904D02*
X206600000Y-69861904D01*
X206600000Y-69061904D01*
X206266666Y-69061904D01*
X205966666Y-69861904D02*
X205966666Y-69061904D01*
X205700000Y-69061904D01*
X205633333Y-69100000D01*
X205600000Y-69138095D01*
X205566666Y-69214285D01*
X205566666Y-69328571D01*
X205600000Y-69404761D01*
X205633333Y-69442857D01*
X205700000Y-69480952D01*
X205966666Y-69480952D01*
X208116666Y-66883333D02*
X207783333Y-66883333D01*
X208183333Y-67111904D02*
X207950000Y-66311904D01*
X207716666Y-67111904D01*
X207483333Y-66311904D02*
X207483333Y-66959523D01*
X207450000Y-67035714D01*
X207416666Y-67073809D01*
X207350000Y-67111904D01*
X207216666Y-67111904D01*
X207150000Y-67073809D01*
X207116666Y-67035714D01*
X207083333Y-66959523D01*
X207083333Y-66311904D01*
X206816666Y-66311904D02*
X206350000Y-67111904D01*
X206350000Y-66311904D02*
X206816666Y-67111904D01*
X208350000Y-63561904D02*
X207883333Y-64361904D01*
X207883333Y-63561904D02*
X208350000Y-64361904D01*
X207616666Y-64361904D02*
X207616666Y-63561904D01*
X207450000Y-63561904D01*
X207350000Y-63600000D01*
X207283333Y-63676190D01*
X207250000Y-63752380D01*
X207216666Y-63904761D01*
X207216666Y-64019047D01*
X207250000Y-64171428D01*
X207283333Y-64247619D01*
X207350000Y-64323809D01*
X207450000Y-64361904D01*
X207616666Y-64361904D01*
X206916666Y-64361904D02*
X206916666Y-63561904D01*
X206183333Y-64361904D02*
X206416666Y-63980952D01*
X206583333Y-64361904D02*
X206583333Y-63561904D01*
X206316666Y-63561904D01*
X206250000Y-63600000D01*
X206216666Y-63638095D01*
X206183333Y-63714285D01*
X206183333Y-63828571D01*
X206216666Y-63904761D01*
X206250000Y-63942857D01*
X206316666Y-63980952D01*
X206583333Y-63980952D01*
X208250000Y-61861904D02*
X208250000Y-61061904D01*
X207983333Y-61061904D01*
X207916666Y-61100000D01*
X207883333Y-61138095D01*
X207850000Y-61214285D01*
X207850000Y-61328571D01*
X207883333Y-61404761D01*
X207916666Y-61442857D01*
X207983333Y-61480952D01*
X208250000Y-61480952D01*
X207150000Y-61861904D02*
X207383333Y-61480952D01*
X207550000Y-61861904D02*
X207550000Y-61061904D01*
X207283333Y-61061904D01*
X207216666Y-61100000D01*
X207183333Y-61138095D01*
X207150000Y-61214285D01*
X207150000Y-61328571D01*
X207183333Y-61404761D01*
X207216666Y-61442857D01*
X207283333Y-61480952D01*
X207550000Y-61480952D01*
X206716666Y-61061904D02*
X206583333Y-61061904D01*
X206516666Y-61100000D01*
X206450000Y-61176190D01*
X206416666Y-61328571D01*
X206416666Y-61595238D01*
X206450000Y-61747619D01*
X206516666Y-61823809D01*
X206583333Y-61861904D01*
X206716666Y-61861904D01*
X206783333Y-61823809D01*
X206850000Y-61747619D01*
X206883333Y-61595238D01*
X206883333Y-61328571D01*
X206850000Y-61176190D01*
X206783333Y-61100000D01*
X206716666Y-61061904D01*
X205883333Y-61442857D02*
X205783333Y-61480952D01*
X205750000Y-61519047D01*
X205716666Y-61595238D01*
X205716666Y-61709523D01*
X205750000Y-61785714D01*
X205783333Y-61823809D01*
X205850000Y-61861904D01*
X206116666Y-61861904D01*
X206116666Y-61061904D01*
X205883333Y-61061904D01*
X205816666Y-61100000D01*
X205783333Y-61138095D01*
X205750000Y-61214285D01*
X205750000Y-61290476D01*
X205783333Y-61366666D01*
X205816666Y-61404761D01*
X205883333Y-61442857D01*
X206116666Y-61442857D01*
X208500000Y-58811904D02*
X208033333Y-59611904D01*
X208033333Y-58811904D02*
X208500000Y-59611904D01*
X207800000Y-59573809D02*
X207700000Y-59611904D01*
X207533333Y-59611904D01*
X207466666Y-59573809D01*
X207433333Y-59535714D01*
X207400000Y-59459523D01*
X207400000Y-59383333D01*
X207433333Y-59307142D01*
X207466666Y-59269047D01*
X207533333Y-59230952D01*
X207666666Y-59192857D01*
X207733333Y-59154761D01*
X207766666Y-59116666D01*
X207800000Y-59040476D01*
X207800000Y-58964285D01*
X207766666Y-58888095D01*
X207733333Y-58850000D01*
X207666666Y-58811904D01*
X207500000Y-58811904D01*
X207400000Y-58850000D01*
X207200000Y-58811904D02*
X206800000Y-58811904D01*
X207000000Y-59611904D02*
X207000000Y-58811904D01*
X206566666Y-59192857D02*
X206333333Y-59192857D01*
X206233333Y-59611904D02*
X206566666Y-59611904D01*
X206566666Y-58811904D01*
X206233333Y-58811904D01*
X205933333Y-59611904D02*
X205933333Y-58811904D01*
X205666666Y-58811904D01*
X205600000Y-58850000D01*
X205566666Y-58888095D01*
X205533333Y-58964285D01*
X205533333Y-59078571D01*
X205566666Y-59154761D01*
X205600000Y-59192857D01*
X205666666Y-59230952D01*
X205933333Y-59230952D01*
X208416666Y-56823809D02*
X208316666Y-56861904D01*
X208150000Y-56861904D01*
X208083333Y-56823809D01*
X208050000Y-56785714D01*
X208016666Y-56709523D01*
X208016666Y-56633333D01*
X208050000Y-56557142D01*
X208083333Y-56519047D01*
X208150000Y-56480952D01*
X208283333Y-56442857D01*
X208350000Y-56404761D01*
X208383333Y-56366666D01*
X208416666Y-56290476D01*
X208416666Y-56214285D01*
X208383333Y-56138095D01*
X208350000Y-56100000D01*
X208283333Y-56061904D01*
X208116666Y-56061904D01*
X208016666Y-56100000D01*
X207716666Y-56861904D02*
X207716666Y-56061904D01*
X207450000Y-56061904D01*
X207383333Y-56100000D01*
X207350000Y-56138095D01*
X207316666Y-56214285D01*
X207316666Y-56328571D01*
X207350000Y-56404761D01*
X207383333Y-56442857D01*
X207450000Y-56480952D01*
X207716666Y-56480952D01*
X207016666Y-56861904D02*
X207016666Y-56061904D01*
X206850000Y-56061904D01*
X206750000Y-56100000D01*
X206683333Y-56176190D01*
X206650000Y-56252380D01*
X206616666Y-56404761D01*
X206616666Y-56519047D01*
X206650000Y-56671428D01*
X206683333Y-56747619D01*
X206750000Y-56823809D01*
X206850000Y-56861904D01*
X207016666Y-56861904D01*
X206316666Y-56861904D02*
X206316666Y-56061904D01*
X205583333Y-56861904D02*
X205816666Y-56480952D01*
X205983333Y-56861904D02*
X205983333Y-56061904D01*
X205716666Y-56061904D01*
X205650000Y-56100000D01*
X205616666Y-56138095D01*
X205583333Y-56214285D01*
X205583333Y-56328571D01*
X205616666Y-56404761D01*
X205650000Y-56442857D01*
X205716666Y-56480952D01*
X205983333Y-56480952D01*
X208233333Y-54323809D02*
X208133333Y-54361904D01*
X207966666Y-54361904D01*
X207900000Y-54323809D01*
X207866666Y-54285714D01*
X207833333Y-54209523D01*
X207833333Y-54133333D01*
X207866666Y-54057142D01*
X207900000Y-54019047D01*
X207966666Y-53980952D01*
X208100000Y-53942857D01*
X208166666Y-53904761D01*
X208200000Y-53866666D01*
X208233333Y-53790476D01*
X208233333Y-53714285D01*
X208200000Y-53638095D01*
X208166666Y-53600000D01*
X208100000Y-53561904D01*
X207933333Y-53561904D01*
X207833333Y-53600000D01*
X207533333Y-54361904D02*
X207533333Y-53561904D01*
X207266666Y-53561904D01*
X207200000Y-53600000D01*
X207166666Y-53638095D01*
X207133333Y-53714285D01*
X207133333Y-53828571D01*
X207166666Y-53904761D01*
X207200000Y-53942857D01*
X207266666Y-53980952D01*
X207533333Y-53980952D01*
X206833333Y-53942857D02*
X206600000Y-53942857D01*
X206500000Y-54361904D02*
X206833333Y-54361904D01*
X206833333Y-53561904D01*
X206500000Y-53561904D01*
X206200000Y-54361904D02*
X206200000Y-53561904D01*
X205800000Y-54361904D01*
X205800000Y-53561904D01*
D12*
G04 #@! TO.C,R1*
X213412779Y-53490000D02*
X213087221Y-53490000D01*
X213412779Y-54510000D02*
X213087221Y-54510000D01*
G04 #@! TO.C,R2*
X213412779Y-59510000D02*
X213087221Y-59510000D01*
X213412779Y-58490000D02*
X213087221Y-58490000D01*
G04 #@! TO.C,R3*
X213162779Y-63740000D02*
X212837221Y-63740000D01*
X213162779Y-64760000D02*
X212837221Y-64760000D01*
G04 #@! TO.C,R4*
X213412779Y-69760000D02*
X213087221Y-69760000D01*
X213412779Y-68740000D02*
X213087221Y-68740000D01*
G04 #@! TO.C,R5*
X213412779Y-73740000D02*
X213087221Y-73740000D01*
X213412779Y-74760000D02*
X213087221Y-74760000D01*
G04 #@! TO.C,R6*
X213412779Y-77260000D02*
X213087221Y-77260000D01*
X213412779Y-76240000D02*
X213087221Y-76240000D01*
G04 #@! TO.C,R7*
X213412779Y-78990000D02*
X213087221Y-78990000D01*
X213412779Y-80010000D02*
X213087221Y-80010000D01*
G04 #@! TO.C,R8*
X213412779Y-81490000D02*
X213087221Y-81490000D01*
X213412779Y-82510000D02*
X213087221Y-82510000D01*
G04 #@! TO.C,R9*
X213412779Y-85010000D02*
X213087221Y-85010000D01*
X213412779Y-83990000D02*
X213087221Y-83990000D01*
G04 #@! TO.C,R10*
X213412779Y-86490000D02*
X213087221Y-86490000D01*
X213412779Y-87510000D02*
X213087221Y-87510000D01*
G04 #@! TO.C,R11*
X213412779Y-90260000D02*
X213087221Y-90260000D01*
X213412779Y-89240000D02*
X213087221Y-89240000D01*
G04 #@! TO.C,R12*
X213412779Y-91740000D02*
X213087221Y-91740000D01*
X213412779Y-92760000D02*
X213087221Y-92760000D01*
G04 #@! TO.C,R13*
X213412779Y-95010000D02*
X213087221Y-95010000D01*
X213412779Y-93990000D02*
X213087221Y-93990000D01*
G04 #@! TO.C,R14*
X213162779Y-55990000D02*
X212837221Y-55990000D01*
X213162779Y-57010000D02*
X212837221Y-57010000D01*
G04 #@! TO.C,R15*
X213412779Y-62260000D02*
X213087221Y-62260000D01*
X213412779Y-61240000D02*
X213087221Y-61240000D01*
G04 #@! TO.C,R16*
X213412779Y-66240000D02*
X213087221Y-66240000D01*
X213412779Y-67260000D02*
X213087221Y-67260000D01*
G04 #@! TO.C,R17*
X213412779Y-72260000D02*
X213087221Y-72260000D01*
X213412779Y-71240000D02*
X213087221Y-71240000D01*
G04 #@! TO.C,R1*
D11*
X219166666Y-54452380D02*
X219500000Y-53976190D01*
X219738095Y-54452380D02*
X219738095Y-53452380D01*
X219357142Y-53452380D01*
X219261904Y-53500000D01*
X219214285Y-53547619D01*
X219166666Y-53642857D01*
X219166666Y-53785714D01*
X219214285Y-53880952D01*
X219261904Y-53928571D01*
X219357142Y-53976190D01*
X219738095Y-53976190D01*
X218214285Y-54452380D02*
X218785714Y-54452380D01*
X218500000Y-54452380D02*
X218500000Y-53452380D01*
X218595238Y-53595238D01*
X218690476Y-53690476D01*
X218785714Y-53738095D01*
G04 #@! TO.C,R2*
X219666666Y-59452380D02*
X220000000Y-58976190D01*
X220238095Y-59452380D02*
X220238095Y-58452380D01*
X219857142Y-58452380D01*
X219761904Y-58500000D01*
X219714285Y-58547619D01*
X219666666Y-58642857D01*
X219666666Y-58785714D01*
X219714285Y-58880952D01*
X219761904Y-58928571D01*
X219857142Y-58976190D01*
X220238095Y-58976190D01*
X219285714Y-58547619D02*
X219238095Y-58500000D01*
X219142857Y-58452380D01*
X218904761Y-58452380D01*
X218809523Y-58500000D01*
X218761904Y-58547619D01*
X218714285Y-58642857D01*
X218714285Y-58738095D01*
X218761904Y-58880952D01*
X219333333Y-59452380D01*
X218714285Y-59452380D01*
G04 #@! TO.C,R3*
X219666666Y-64452380D02*
X220000000Y-63976190D01*
X220238095Y-64452380D02*
X220238095Y-63452380D01*
X219857142Y-63452380D01*
X219761904Y-63500000D01*
X219714285Y-63547619D01*
X219666666Y-63642857D01*
X219666666Y-63785714D01*
X219714285Y-63880952D01*
X219761904Y-63928571D01*
X219857142Y-63976190D01*
X220238095Y-63976190D01*
X219333333Y-63452380D02*
X218714285Y-63452380D01*
X219047619Y-63833333D01*
X218904761Y-63833333D01*
X218809523Y-63880952D01*
X218761904Y-63928571D01*
X218714285Y-64023809D01*
X218714285Y-64261904D01*
X218761904Y-64357142D01*
X218809523Y-64404761D01*
X218904761Y-64452380D01*
X219190476Y-64452380D01*
X219285714Y-64404761D01*
X219333333Y-64357142D01*
G04 #@! TO.C,R4*
X219666666Y-69702380D02*
X220000000Y-69226190D01*
X220238095Y-69702380D02*
X220238095Y-68702380D01*
X219857142Y-68702380D01*
X219761904Y-68750000D01*
X219714285Y-68797619D01*
X219666666Y-68892857D01*
X219666666Y-69035714D01*
X219714285Y-69130952D01*
X219761904Y-69178571D01*
X219857142Y-69226190D01*
X220238095Y-69226190D01*
X218809523Y-69035714D02*
X218809523Y-69702380D01*
X219047619Y-68654761D02*
X219285714Y-69369047D01*
X218666666Y-69369047D01*
G04 #@! TO.C,R5*
X219666666Y-74702380D02*
X220000000Y-74226190D01*
X220238095Y-74702380D02*
X220238095Y-73702380D01*
X219857142Y-73702380D01*
X219761904Y-73750000D01*
X219714285Y-73797619D01*
X219666666Y-73892857D01*
X219666666Y-74035714D01*
X219714285Y-74130952D01*
X219761904Y-74178571D01*
X219857142Y-74226190D01*
X220238095Y-74226190D01*
X218761904Y-73702380D02*
X219238095Y-73702380D01*
X219285714Y-74178571D01*
X219238095Y-74130952D01*
X219142857Y-74083333D01*
X218904761Y-74083333D01*
X218809523Y-74130952D01*
X218761904Y-74178571D01*
X218714285Y-74273809D01*
X218714285Y-74511904D01*
X218761904Y-74607142D01*
X218809523Y-74654761D01*
X218904761Y-74702380D01*
X219142857Y-74702380D01*
X219238095Y-74654761D01*
X219285714Y-74607142D01*
G04 #@! TO.C,R6*
X219666666Y-77202380D02*
X220000000Y-76726190D01*
X220238095Y-77202380D02*
X220238095Y-76202380D01*
X219857142Y-76202380D01*
X219761904Y-76250000D01*
X219714285Y-76297619D01*
X219666666Y-76392857D01*
X219666666Y-76535714D01*
X219714285Y-76630952D01*
X219761904Y-76678571D01*
X219857142Y-76726190D01*
X220238095Y-76726190D01*
X218809523Y-76202380D02*
X219000000Y-76202380D01*
X219095238Y-76250000D01*
X219142857Y-76297619D01*
X219238095Y-76440476D01*
X219285714Y-76630952D01*
X219285714Y-77011904D01*
X219238095Y-77107142D01*
X219190476Y-77154761D01*
X219095238Y-77202380D01*
X218904761Y-77202380D01*
X218809523Y-77154761D01*
X218761904Y-77107142D01*
X218714285Y-77011904D01*
X218714285Y-76773809D01*
X218761904Y-76678571D01*
X218809523Y-76630952D01*
X218904761Y-76583333D01*
X219095238Y-76583333D01*
X219190476Y-76630952D01*
X219238095Y-76678571D01*
X219285714Y-76773809D01*
G04 #@! TO.C,R7*
X219666666Y-79702380D02*
X220000000Y-79226190D01*
X220238095Y-79702380D02*
X220238095Y-78702380D01*
X219857142Y-78702380D01*
X219761904Y-78750000D01*
X219714285Y-78797619D01*
X219666666Y-78892857D01*
X219666666Y-79035714D01*
X219714285Y-79130952D01*
X219761904Y-79178571D01*
X219857142Y-79226190D01*
X220238095Y-79226190D01*
X219333333Y-78702380D02*
X218666666Y-78702380D01*
X219095238Y-79702380D01*
G04 #@! TO.C,R8*
X219666666Y-82452380D02*
X220000000Y-81976190D01*
X220238095Y-82452380D02*
X220238095Y-81452380D01*
X219857142Y-81452380D01*
X219761904Y-81500000D01*
X219714285Y-81547619D01*
X219666666Y-81642857D01*
X219666666Y-81785714D01*
X219714285Y-81880952D01*
X219761904Y-81928571D01*
X219857142Y-81976190D01*
X220238095Y-81976190D01*
X219095238Y-81880952D02*
X219190476Y-81833333D01*
X219238095Y-81785714D01*
X219285714Y-81690476D01*
X219285714Y-81642857D01*
X219238095Y-81547619D01*
X219190476Y-81500000D01*
X219095238Y-81452380D01*
X218904761Y-81452380D01*
X218809523Y-81500000D01*
X218761904Y-81547619D01*
X218714285Y-81642857D01*
X218714285Y-81690476D01*
X218761904Y-81785714D01*
X218809523Y-81833333D01*
X218904761Y-81880952D01*
X219095238Y-81880952D01*
X219190476Y-81928571D01*
X219238095Y-81976190D01*
X219285714Y-82071428D01*
X219285714Y-82261904D01*
X219238095Y-82357142D01*
X219190476Y-82404761D01*
X219095238Y-82452380D01*
X218904761Y-82452380D01*
X218809523Y-82404761D01*
X218761904Y-82357142D01*
X218714285Y-82261904D01*
X218714285Y-82071428D01*
X218761904Y-81976190D01*
X218809523Y-81928571D01*
X218904761Y-81880952D01*
G04 #@! TO.C,R9*
X219666666Y-84702380D02*
X220000000Y-84226190D01*
X220238095Y-84702380D02*
X220238095Y-83702380D01*
X219857142Y-83702380D01*
X219761904Y-83750000D01*
X219714285Y-83797619D01*
X219666666Y-83892857D01*
X219666666Y-84035714D01*
X219714285Y-84130952D01*
X219761904Y-84178571D01*
X219857142Y-84226190D01*
X220238095Y-84226190D01*
X219190476Y-84702380D02*
X219000000Y-84702380D01*
X218904761Y-84654761D01*
X218857142Y-84607142D01*
X218761904Y-84464285D01*
X218714285Y-84273809D01*
X218714285Y-83892857D01*
X218761904Y-83797619D01*
X218809523Y-83750000D01*
X218904761Y-83702380D01*
X219095238Y-83702380D01*
X219190476Y-83750000D01*
X219238095Y-83797619D01*
X219285714Y-83892857D01*
X219285714Y-84130952D01*
X219238095Y-84226190D01*
X219190476Y-84273809D01*
X219095238Y-84321428D01*
X218904761Y-84321428D01*
X218809523Y-84273809D01*
X218761904Y-84226190D01*
X218714285Y-84130952D01*
G04 #@! TO.C,R10*
X219892857Y-87452380D02*
X220226190Y-86976190D01*
X220464285Y-87452380D02*
X220464285Y-86452380D01*
X220083333Y-86452380D01*
X219988095Y-86500000D01*
X219940476Y-86547619D01*
X219892857Y-86642857D01*
X219892857Y-86785714D01*
X219940476Y-86880952D01*
X219988095Y-86928571D01*
X220083333Y-86976190D01*
X220464285Y-86976190D01*
X218940476Y-87452380D02*
X219511904Y-87452380D01*
X219226190Y-87452380D02*
X219226190Y-86452380D01*
X219321428Y-86595238D01*
X219416666Y-86690476D01*
X219511904Y-86738095D01*
X218321428Y-86452380D02*
X218226190Y-86452380D01*
X218130952Y-86500000D01*
X218083333Y-86547619D01*
X218035714Y-86642857D01*
X217988095Y-86833333D01*
X217988095Y-87071428D01*
X218035714Y-87261904D01*
X218083333Y-87357142D01*
X218130952Y-87404761D01*
X218226190Y-87452380D01*
X218321428Y-87452380D01*
X218416666Y-87404761D01*
X218464285Y-87357142D01*
X218511904Y-87261904D01*
X218559523Y-87071428D01*
X218559523Y-86833333D01*
X218511904Y-86642857D01*
X218464285Y-86547619D01*
X218416666Y-86500000D01*
X218321428Y-86452380D01*
G04 #@! TO.C,R11*
X219892857Y-89952380D02*
X220226190Y-89476190D01*
X220464285Y-89952380D02*
X220464285Y-88952380D01*
X220083333Y-88952380D01*
X219988095Y-89000000D01*
X219940476Y-89047619D01*
X219892857Y-89142857D01*
X219892857Y-89285714D01*
X219940476Y-89380952D01*
X219988095Y-89428571D01*
X220083333Y-89476190D01*
X220464285Y-89476190D01*
X218940476Y-89952380D02*
X219511904Y-89952380D01*
X219226190Y-89952380D02*
X219226190Y-88952380D01*
X219321428Y-89095238D01*
X219416666Y-89190476D01*
X219511904Y-89238095D01*
X217988095Y-89952380D02*
X218559523Y-89952380D01*
X218273809Y-89952380D02*
X218273809Y-88952380D01*
X218369047Y-89095238D01*
X218464285Y-89190476D01*
X218559523Y-89238095D01*
G04 #@! TO.C,R12*
X219892857Y-92452380D02*
X220226190Y-91976190D01*
X220464285Y-92452380D02*
X220464285Y-91452380D01*
X220083333Y-91452380D01*
X219988095Y-91500000D01*
X219940476Y-91547619D01*
X219892857Y-91642857D01*
X219892857Y-91785714D01*
X219940476Y-91880952D01*
X219988095Y-91928571D01*
X220083333Y-91976190D01*
X220464285Y-91976190D01*
X218940476Y-92452380D02*
X219511904Y-92452380D01*
X219226190Y-92452380D02*
X219226190Y-91452380D01*
X219321428Y-91595238D01*
X219416666Y-91690476D01*
X219511904Y-91738095D01*
X218559523Y-91547619D02*
X218511904Y-91500000D01*
X218416666Y-91452380D01*
X218178571Y-91452380D01*
X218083333Y-91500000D01*
X218035714Y-91547619D01*
X217988095Y-91642857D01*
X217988095Y-91738095D01*
X218035714Y-91880952D01*
X218607142Y-92452380D01*
X217988095Y-92452380D01*
G04 #@! TO.C,R13*
X219892857Y-95202380D02*
X220226190Y-94726190D01*
X220464285Y-95202380D02*
X220464285Y-94202380D01*
X220083333Y-94202380D01*
X219988095Y-94250000D01*
X219940476Y-94297619D01*
X219892857Y-94392857D01*
X219892857Y-94535714D01*
X219940476Y-94630952D01*
X219988095Y-94678571D01*
X220083333Y-94726190D01*
X220464285Y-94726190D01*
X218940476Y-95202380D02*
X219511904Y-95202380D01*
X219226190Y-95202380D02*
X219226190Y-94202380D01*
X219321428Y-94345238D01*
X219416666Y-94440476D01*
X219511904Y-94488095D01*
X218607142Y-94202380D02*
X217988095Y-94202380D01*
X218321428Y-94583333D01*
X218178571Y-94583333D01*
X218083333Y-94630952D01*
X218035714Y-94678571D01*
X217988095Y-94773809D01*
X217988095Y-95011904D01*
X218035714Y-95107142D01*
X218083333Y-95154761D01*
X218178571Y-95202380D01*
X218464285Y-95202380D01*
X218559523Y-95154761D01*
X218607142Y-95107142D01*
G04 #@! TO.C,R14*
X220142857Y-56702380D02*
X220476190Y-56226190D01*
X220714285Y-56702380D02*
X220714285Y-55702380D01*
X220333333Y-55702380D01*
X220238095Y-55750000D01*
X220190476Y-55797619D01*
X220142857Y-55892857D01*
X220142857Y-56035714D01*
X220190476Y-56130952D01*
X220238095Y-56178571D01*
X220333333Y-56226190D01*
X220714285Y-56226190D01*
X219190476Y-56702380D02*
X219761904Y-56702380D01*
X219476190Y-56702380D02*
X219476190Y-55702380D01*
X219571428Y-55845238D01*
X219666666Y-55940476D01*
X219761904Y-55988095D01*
X218333333Y-56035714D02*
X218333333Y-56702380D01*
X218571428Y-55654761D02*
X218809523Y-56369047D01*
X218190476Y-56369047D01*
G04 #@! TO.C,R15*
X219892857Y-61952380D02*
X220226190Y-61476190D01*
X220464285Y-61952380D02*
X220464285Y-60952380D01*
X220083333Y-60952380D01*
X219988095Y-61000000D01*
X219940476Y-61047619D01*
X219892857Y-61142857D01*
X219892857Y-61285714D01*
X219940476Y-61380952D01*
X219988095Y-61428571D01*
X220083333Y-61476190D01*
X220464285Y-61476190D01*
X218940476Y-61952380D02*
X219511904Y-61952380D01*
X219226190Y-61952380D02*
X219226190Y-60952380D01*
X219321428Y-61095238D01*
X219416666Y-61190476D01*
X219511904Y-61238095D01*
X218035714Y-60952380D02*
X218511904Y-60952380D01*
X218559523Y-61428571D01*
X218511904Y-61380952D01*
X218416666Y-61333333D01*
X218178571Y-61333333D01*
X218083333Y-61380952D01*
X218035714Y-61428571D01*
X217988095Y-61523809D01*
X217988095Y-61761904D01*
X218035714Y-61857142D01*
X218083333Y-61904761D01*
X218178571Y-61952380D01*
X218416666Y-61952380D01*
X218511904Y-61904761D01*
X218559523Y-61857142D01*
G04 #@! TO.C,R16*
X219892857Y-66952380D02*
X220226190Y-66476190D01*
X220464285Y-66952380D02*
X220464285Y-65952380D01*
X220083333Y-65952380D01*
X219988095Y-66000000D01*
X219940476Y-66047619D01*
X219892857Y-66142857D01*
X219892857Y-66285714D01*
X219940476Y-66380952D01*
X219988095Y-66428571D01*
X220083333Y-66476190D01*
X220464285Y-66476190D01*
X218940476Y-66952380D02*
X219511904Y-66952380D01*
X219226190Y-66952380D02*
X219226190Y-65952380D01*
X219321428Y-66095238D01*
X219416666Y-66190476D01*
X219511904Y-66238095D01*
X218083333Y-65952380D02*
X218273809Y-65952380D01*
X218369047Y-66000000D01*
X218416666Y-66047619D01*
X218511904Y-66190476D01*
X218559523Y-66380952D01*
X218559523Y-66761904D01*
X218511904Y-66857142D01*
X218464285Y-66904761D01*
X218369047Y-66952380D01*
X218178571Y-66952380D01*
X218083333Y-66904761D01*
X218035714Y-66857142D01*
X217988095Y-66761904D01*
X217988095Y-66523809D01*
X218035714Y-66428571D01*
X218083333Y-66380952D01*
X218178571Y-66333333D01*
X218369047Y-66333333D01*
X218464285Y-66380952D01*
X218511904Y-66428571D01*
X218559523Y-66523809D01*
G04 #@! TO.C,R17*
X219892857Y-72202380D02*
X220226190Y-71726190D01*
X220464285Y-72202380D02*
X220464285Y-71202380D01*
X220083333Y-71202380D01*
X219988095Y-71250000D01*
X219940476Y-71297619D01*
X219892857Y-71392857D01*
X219892857Y-71535714D01*
X219940476Y-71630952D01*
X219988095Y-71678571D01*
X220083333Y-71726190D01*
X220464285Y-71726190D01*
X218940476Y-72202380D02*
X219511904Y-72202380D01*
X219226190Y-72202380D02*
X219226190Y-71202380D01*
X219321428Y-71345238D01*
X219416666Y-71440476D01*
X219511904Y-71488095D01*
X218607142Y-71202380D02*
X217940476Y-71202380D01*
X218369047Y-72202380D01*
G04 #@! TD*
M02*
