G04 #@! TF.GenerationSoftware,KiCad,Pcbnew,(5.0.2)-1*
G04 #@! TF.CreationDate,2020-05-04T12:03:43+03:00*
G04 #@! TF.ProjectId,GrblCnc3040,4772626c-436e-4633-9330-34302e6b6963,rev?*
G04 #@! TF.SameCoordinates,Original*
G04 #@! TF.FileFunction,Copper,L2,Bot*
G04 #@! TF.FilePolarity,Positive*
%FSLAX46Y46*%
G04 Gerber Fmt 4.6, Leading zero omitted, Abs format (unit mm)*
G04 Created by KiCad (PCBNEW (5.0.2)-1) date 04/05/2020 12:03:43*
%MOMM*%
%LPD*%
G01*
G04 APERTURE LIST*
G04 #@! TA.AperFunction,ComponentPad*
%ADD10R,2.250000X1.727200*%
G04 #@! TD*
G04 #@! TA.AperFunction,ComponentPad*
%ADD11O,2.250000X1.727200*%
G04 #@! TD*
G04 #@! TA.AperFunction,ComponentPad*
%ADD12O,1.727200X1.727200*%
G04 #@! TD*
G04 #@! TA.AperFunction,Conductor*
%ADD13C,0.100000*%
G04 #@! TD*
G04 #@! TA.AperFunction,SMDPad,CuDef*
%ADD14C,0.875000*%
G04 #@! TD*
G04 #@! TA.AperFunction,ComponentPad*
%ADD15R,1.600000X1.600000*%
G04 #@! TD*
G04 #@! TA.AperFunction,ComponentPad*
%ADD16C,1.600000*%
G04 #@! TD*
G04 #@! TA.AperFunction,ComponentPad*
%ADD17C,4.000000*%
G04 #@! TD*
G04 #@! TA.AperFunction,ComponentPad*
%ADD18R,1.700000X1.700000*%
G04 #@! TD*
G04 #@! TA.AperFunction,ComponentPad*
%ADD19O,1.700000X1.700000*%
G04 #@! TD*
G04 #@! TA.AperFunction,ViaPad*
%ADD20C,0.800000*%
G04 #@! TD*
G04 #@! TA.AperFunction,Conductor*
%ADD21C,0.400000*%
G04 #@! TD*
G04 #@! TA.AperFunction,Conductor*
%ADD22C,0.254000*%
G04 #@! TD*
G04 APERTURE END LIST*
D10*
G04 #@! TO.P,U1,1*
G04 #@! TO.N,/VBAT*
X179705000Y-50749200D03*
D11*
G04 #@! TO.P,U1,2*
G04 #@! TO.N,/PC13*
X179705000Y-53289200D03*
G04 #@! TO.P,U1,3*
G04 #@! TO.N,/PC14*
X179705000Y-55829200D03*
G04 #@! TO.P,U1,4*
G04 #@! TO.N,/PC15*
X179705000Y-58369200D03*
G04 #@! TO.P,U1,5*
G04 #@! TO.N,/XSTEP*
X179705000Y-60909200D03*
G04 #@! TO.P,U1,6*
G04 #@! TO.N,/XDIR*
X179705000Y-63449200D03*
G04 #@! TO.P,U1,7*
G04 #@! TO.N,/YSTEP*
X179705000Y-65989200D03*
G04 #@! TO.P,U1,8*
G04 #@! TO.N,/YDIR*
X179705000Y-68529200D03*
G04 #@! TO.P,U1,9*
G04 #@! TO.N,/ZSTEP*
X179705000Y-71069200D03*
G04 #@! TO.P,U1,10*
G04 #@! TO.N,/ZDIR*
X179705000Y-73609200D03*
G04 #@! TO.P,U1,11*
G04 #@! TO.N,/ASTEP*
X179705000Y-76149200D03*
G04 #@! TO.P,U1,12*
G04 #@! TO.N,/ADIR*
X179705000Y-78689200D03*
G04 #@! TO.P,U1,13*
G04 #@! TO.N,/SPINDIR*
X179705000Y-81229200D03*
G04 #@! TO.P,U1,14*
G04 #@! TO.N,/SPINEN*
X179705000Y-83769200D03*
G04 #@! TO.P,U1,15*
G04 #@! TO.N,/XLIMIT*
X179705000Y-86309200D03*
G04 #@! TO.P,U1,16*
G04 #@! TO.N,/YLIMIT*
X179705000Y-88849200D03*
G04 #@! TO.P,U1,17*
G04 #@! TO.N,/CHIP_RST*
X179705000Y-91389200D03*
G04 #@! TO.P,U1,18*
G04 #@! TO.N,+3V3*
X179705000Y-93929200D03*
G04 #@! TO.P,U1,19*
G04 #@! TO.N,GND*
X179705000Y-96469200D03*
G04 #@! TO.P,U1,20*
X179705000Y-99009200D03*
G04 #@! TO.P,U1,21*
G04 #@! TO.N,/ZLIMIT*
X194945000Y-99009200D03*
G04 #@! TO.P,U1,22*
G04 #@! TO.N,/PROBE*
X194945000Y-96469200D03*
G04 #@! TO.P,U1,23*
G04 #@! TO.N,/FEEDHOLD*
X194945000Y-93929200D03*
G04 #@! TO.P,U1,24*
G04 #@! TO.N,/CYCLESTART*
X194945000Y-91389200D03*
G04 #@! TO.P,U1,25*
G04 #@! TO.N,/SPINPWM*
X194945000Y-88849200D03*
G04 #@! TO.P,U1,26*
G04 #@! TO.N,/BSTEP*
X194945000Y-86309200D03*
G04 #@! TO.P,U1,27*
G04 #@! TO.N,/BDIR*
X194945000Y-83769200D03*
G04 #@! TO.P,U1,28*
G04 #@! TO.N,/USB+*
X194945000Y-81229200D03*
G04 #@! TO.P,U1,29*
G04 #@! TO.N,/USB-*
X194945000Y-78689200D03*
G04 #@! TO.P,U1,30*
G04 #@! TO.N,/RPMCNT*
X194945000Y-76149200D03*
G04 #@! TO.P,U1,31*
G04 #@! TO.N,/FLOOD*
X194945000Y-73609200D03*
G04 #@! TO.P,U1,32*
G04 #@! TO.N,/MIST*
X194945000Y-71069200D03*
G04 #@! TO.P,U1,33*
G04 #@! TO.N,/RESET*
X194945000Y-68529200D03*
G04 #@! TO.P,U1,34*
G04 #@! TO.N,/RX1*
X194945000Y-65989200D03*
G04 #@! TO.P,U1,35*
G04 #@! TO.N,/TX1*
X194945000Y-63449200D03*
G04 #@! TO.P,U1,36*
G04 #@! TO.N,/ESTOP*
X194945000Y-60909200D03*
G04 #@! TO.P,U1,37*
G04 #@! TO.N,/AUX*
X194945000Y-58369200D03*
G04 #@! TO.P,U1,38*
G04 #@! TO.N,+5V*
X194945000Y-55829200D03*
G04 #@! TO.P,U1,39*
G04 #@! TO.N,GND*
X194945000Y-53289200D03*
G04 #@! TO.P,U1,40*
G04 #@! TO.N,+3V3*
X194945000Y-50698400D03*
D12*
G04 #@! TO.P,U1,41*
G04 #@! TO.N,N/C*
X188605000Y-54559200D03*
G04 #@! TO.P,U1,42*
X186065000Y-54559200D03*
G04 #@! TD*
D13*
G04 #@! TO.N,Net-(J1-Pad1)*
G04 #@! TO.C,R1*
G36*
X214277691Y-53526053D02*
X214298926Y-53529203D01*
X214319750Y-53534419D01*
X214339962Y-53541651D01*
X214359368Y-53550830D01*
X214377781Y-53561866D01*
X214395024Y-53574654D01*
X214410930Y-53589070D01*
X214425346Y-53604976D01*
X214438134Y-53622219D01*
X214449170Y-53640632D01*
X214458349Y-53660038D01*
X214465581Y-53680250D01*
X214470797Y-53701074D01*
X214473947Y-53722309D01*
X214475000Y-53743750D01*
X214475000Y-54256250D01*
X214473947Y-54277691D01*
X214470797Y-54298926D01*
X214465581Y-54319750D01*
X214458349Y-54339962D01*
X214449170Y-54359368D01*
X214438134Y-54377781D01*
X214425346Y-54395024D01*
X214410930Y-54410930D01*
X214395024Y-54425346D01*
X214377781Y-54438134D01*
X214359368Y-54449170D01*
X214339962Y-54458349D01*
X214319750Y-54465581D01*
X214298926Y-54470797D01*
X214277691Y-54473947D01*
X214256250Y-54475000D01*
X213818750Y-54475000D01*
X213797309Y-54473947D01*
X213776074Y-54470797D01*
X213755250Y-54465581D01*
X213735038Y-54458349D01*
X213715632Y-54449170D01*
X213697219Y-54438134D01*
X213679976Y-54425346D01*
X213664070Y-54410930D01*
X213649654Y-54395024D01*
X213636866Y-54377781D01*
X213625830Y-54359368D01*
X213616651Y-54339962D01*
X213609419Y-54319750D01*
X213604203Y-54298926D01*
X213601053Y-54277691D01*
X213600000Y-54256250D01*
X213600000Y-53743750D01*
X213601053Y-53722309D01*
X213604203Y-53701074D01*
X213609419Y-53680250D01*
X213616651Y-53660038D01*
X213625830Y-53640632D01*
X213636866Y-53622219D01*
X213649654Y-53604976D01*
X213664070Y-53589070D01*
X213679976Y-53574654D01*
X213697219Y-53561866D01*
X213715632Y-53550830D01*
X213735038Y-53541651D01*
X213755250Y-53534419D01*
X213776074Y-53529203D01*
X213797309Y-53526053D01*
X213818750Y-53525000D01*
X214256250Y-53525000D01*
X214277691Y-53526053D01*
X214277691Y-53526053D01*
G37*
D14*
G04 #@! TD*
G04 #@! TO.P,R1,1*
G04 #@! TO.N,Net-(J1-Pad1)*
X214037500Y-54000000D03*
D13*
G04 #@! TO.N,/SPINEN*
G04 #@! TO.C,R1*
G36*
X212702691Y-53526053D02*
X212723926Y-53529203D01*
X212744750Y-53534419D01*
X212764962Y-53541651D01*
X212784368Y-53550830D01*
X212802781Y-53561866D01*
X212820024Y-53574654D01*
X212835930Y-53589070D01*
X212850346Y-53604976D01*
X212863134Y-53622219D01*
X212874170Y-53640632D01*
X212883349Y-53660038D01*
X212890581Y-53680250D01*
X212895797Y-53701074D01*
X212898947Y-53722309D01*
X212900000Y-53743750D01*
X212900000Y-54256250D01*
X212898947Y-54277691D01*
X212895797Y-54298926D01*
X212890581Y-54319750D01*
X212883349Y-54339962D01*
X212874170Y-54359368D01*
X212863134Y-54377781D01*
X212850346Y-54395024D01*
X212835930Y-54410930D01*
X212820024Y-54425346D01*
X212802781Y-54438134D01*
X212784368Y-54449170D01*
X212764962Y-54458349D01*
X212744750Y-54465581D01*
X212723926Y-54470797D01*
X212702691Y-54473947D01*
X212681250Y-54475000D01*
X212243750Y-54475000D01*
X212222309Y-54473947D01*
X212201074Y-54470797D01*
X212180250Y-54465581D01*
X212160038Y-54458349D01*
X212140632Y-54449170D01*
X212122219Y-54438134D01*
X212104976Y-54425346D01*
X212089070Y-54410930D01*
X212074654Y-54395024D01*
X212061866Y-54377781D01*
X212050830Y-54359368D01*
X212041651Y-54339962D01*
X212034419Y-54319750D01*
X212029203Y-54298926D01*
X212026053Y-54277691D01*
X212025000Y-54256250D01*
X212025000Y-53743750D01*
X212026053Y-53722309D01*
X212029203Y-53701074D01*
X212034419Y-53680250D01*
X212041651Y-53660038D01*
X212050830Y-53640632D01*
X212061866Y-53622219D01*
X212074654Y-53604976D01*
X212089070Y-53589070D01*
X212104976Y-53574654D01*
X212122219Y-53561866D01*
X212140632Y-53550830D01*
X212160038Y-53541651D01*
X212180250Y-53534419D01*
X212201074Y-53529203D01*
X212222309Y-53526053D01*
X212243750Y-53525000D01*
X212681250Y-53525000D01*
X212702691Y-53526053D01*
X212702691Y-53526053D01*
G37*
D14*
G04 #@! TD*
G04 #@! TO.P,R1,2*
G04 #@! TO.N,/SPINEN*
X212462500Y-54000000D03*
D13*
G04 #@! TO.N,/XSTEP*
G04 #@! TO.C,R2*
G36*
X212702691Y-58526053D02*
X212723926Y-58529203D01*
X212744750Y-58534419D01*
X212764962Y-58541651D01*
X212784368Y-58550830D01*
X212802781Y-58561866D01*
X212820024Y-58574654D01*
X212835930Y-58589070D01*
X212850346Y-58604976D01*
X212863134Y-58622219D01*
X212874170Y-58640632D01*
X212883349Y-58660038D01*
X212890581Y-58680250D01*
X212895797Y-58701074D01*
X212898947Y-58722309D01*
X212900000Y-58743750D01*
X212900000Y-59256250D01*
X212898947Y-59277691D01*
X212895797Y-59298926D01*
X212890581Y-59319750D01*
X212883349Y-59339962D01*
X212874170Y-59359368D01*
X212863134Y-59377781D01*
X212850346Y-59395024D01*
X212835930Y-59410930D01*
X212820024Y-59425346D01*
X212802781Y-59438134D01*
X212784368Y-59449170D01*
X212764962Y-59458349D01*
X212744750Y-59465581D01*
X212723926Y-59470797D01*
X212702691Y-59473947D01*
X212681250Y-59475000D01*
X212243750Y-59475000D01*
X212222309Y-59473947D01*
X212201074Y-59470797D01*
X212180250Y-59465581D01*
X212160038Y-59458349D01*
X212140632Y-59449170D01*
X212122219Y-59438134D01*
X212104976Y-59425346D01*
X212089070Y-59410930D01*
X212074654Y-59395024D01*
X212061866Y-59377781D01*
X212050830Y-59359368D01*
X212041651Y-59339962D01*
X212034419Y-59319750D01*
X212029203Y-59298926D01*
X212026053Y-59277691D01*
X212025000Y-59256250D01*
X212025000Y-58743750D01*
X212026053Y-58722309D01*
X212029203Y-58701074D01*
X212034419Y-58680250D01*
X212041651Y-58660038D01*
X212050830Y-58640632D01*
X212061866Y-58622219D01*
X212074654Y-58604976D01*
X212089070Y-58589070D01*
X212104976Y-58574654D01*
X212122219Y-58561866D01*
X212140632Y-58550830D01*
X212160038Y-58541651D01*
X212180250Y-58534419D01*
X212201074Y-58529203D01*
X212222309Y-58526053D01*
X212243750Y-58525000D01*
X212681250Y-58525000D01*
X212702691Y-58526053D01*
X212702691Y-58526053D01*
G37*
D14*
G04 #@! TD*
G04 #@! TO.P,R2,2*
G04 #@! TO.N,/XSTEP*
X212462500Y-59000000D03*
D13*
G04 #@! TO.N,Net-(J1-Pad2)*
G04 #@! TO.C,R2*
G36*
X214277691Y-58526053D02*
X214298926Y-58529203D01*
X214319750Y-58534419D01*
X214339962Y-58541651D01*
X214359368Y-58550830D01*
X214377781Y-58561866D01*
X214395024Y-58574654D01*
X214410930Y-58589070D01*
X214425346Y-58604976D01*
X214438134Y-58622219D01*
X214449170Y-58640632D01*
X214458349Y-58660038D01*
X214465581Y-58680250D01*
X214470797Y-58701074D01*
X214473947Y-58722309D01*
X214475000Y-58743750D01*
X214475000Y-59256250D01*
X214473947Y-59277691D01*
X214470797Y-59298926D01*
X214465581Y-59319750D01*
X214458349Y-59339962D01*
X214449170Y-59359368D01*
X214438134Y-59377781D01*
X214425346Y-59395024D01*
X214410930Y-59410930D01*
X214395024Y-59425346D01*
X214377781Y-59438134D01*
X214359368Y-59449170D01*
X214339962Y-59458349D01*
X214319750Y-59465581D01*
X214298926Y-59470797D01*
X214277691Y-59473947D01*
X214256250Y-59475000D01*
X213818750Y-59475000D01*
X213797309Y-59473947D01*
X213776074Y-59470797D01*
X213755250Y-59465581D01*
X213735038Y-59458349D01*
X213715632Y-59449170D01*
X213697219Y-59438134D01*
X213679976Y-59425346D01*
X213664070Y-59410930D01*
X213649654Y-59395024D01*
X213636866Y-59377781D01*
X213625830Y-59359368D01*
X213616651Y-59339962D01*
X213609419Y-59319750D01*
X213604203Y-59298926D01*
X213601053Y-59277691D01*
X213600000Y-59256250D01*
X213600000Y-58743750D01*
X213601053Y-58722309D01*
X213604203Y-58701074D01*
X213609419Y-58680250D01*
X213616651Y-58660038D01*
X213625830Y-58640632D01*
X213636866Y-58622219D01*
X213649654Y-58604976D01*
X213664070Y-58589070D01*
X213679976Y-58574654D01*
X213697219Y-58561866D01*
X213715632Y-58550830D01*
X213735038Y-58541651D01*
X213755250Y-58534419D01*
X213776074Y-58529203D01*
X213797309Y-58526053D01*
X213818750Y-58525000D01*
X214256250Y-58525000D01*
X214277691Y-58526053D01*
X214277691Y-58526053D01*
G37*
D14*
G04 #@! TD*
G04 #@! TO.P,R2,1*
G04 #@! TO.N,Net-(J1-Pad2)*
X214037500Y-59000000D03*
D13*
G04 #@! TO.N,Net-(J1-Pad3)*
G04 #@! TO.C,R3*
G36*
X214027691Y-63776053D02*
X214048926Y-63779203D01*
X214069750Y-63784419D01*
X214089962Y-63791651D01*
X214109368Y-63800830D01*
X214127781Y-63811866D01*
X214145024Y-63824654D01*
X214160930Y-63839070D01*
X214175346Y-63854976D01*
X214188134Y-63872219D01*
X214199170Y-63890632D01*
X214208349Y-63910038D01*
X214215581Y-63930250D01*
X214220797Y-63951074D01*
X214223947Y-63972309D01*
X214225000Y-63993750D01*
X214225000Y-64506250D01*
X214223947Y-64527691D01*
X214220797Y-64548926D01*
X214215581Y-64569750D01*
X214208349Y-64589962D01*
X214199170Y-64609368D01*
X214188134Y-64627781D01*
X214175346Y-64645024D01*
X214160930Y-64660930D01*
X214145024Y-64675346D01*
X214127781Y-64688134D01*
X214109368Y-64699170D01*
X214089962Y-64708349D01*
X214069750Y-64715581D01*
X214048926Y-64720797D01*
X214027691Y-64723947D01*
X214006250Y-64725000D01*
X213568750Y-64725000D01*
X213547309Y-64723947D01*
X213526074Y-64720797D01*
X213505250Y-64715581D01*
X213485038Y-64708349D01*
X213465632Y-64699170D01*
X213447219Y-64688134D01*
X213429976Y-64675346D01*
X213414070Y-64660930D01*
X213399654Y-64645024D01*
X213386866Y-64627781D01*
X213375830Y-64609368D01*
X213366651Y-64589962D01*
X213359419Y-64569750D01*
X213354203Y-64548926D01*
X213351053Y-64527691D01*
X213350000Y-64506250D01*
X213350000Y-63993750D01*
X213351053Y-63972309D01*
X213354203Y-63951074D01*
X213359419Y-63930250D01*
X213366651Y-63910038D01*
X213375830Y-63890632D01*
X213386866Y-63872219D01*
X213399654Y-63854976D01*
X213414070Y-63839070D01*
X213429976Y-63824654D01*
X213447219Y-63811866D01*
X213465632Y-63800830D01*
X213485038Y-63791651D01*
X213505250Y-63784419D01*
X213526074Y-63779203D01*
X213547309Y-63776053D01*
X213568750Y-63775000D01*
X214006250Y-63775000D01*
X214027691Y-63776053D01*
X214027691Y-63776053D01*
G37*
D14*
G04 #@! TD*
G04 #@! TO.P,R3,1*
G04 #@! TO.N,Net-(J1-Pad3)*
X213787500Y-64250000D03*
D13*
G04 #@! TO.N,/XDIR*
G04 #@! TO.C,R3*
G36*
X212452691Y-63776053D02*
X212473926Y-63779203D01*
X212494750Y-63784419D01*
X212514962Y-63791651D01*
X212534368Y-63800830D01*
X212552781Y-63811866D01*
X212570024Y-63824654D01*
X212585930Y-63839070D01*
X212600346Y-63854976D01*
X212613134Y-63872219D01*
X212624170Y-63890632D01*
X212633349Y-63910038D01*
X212640581Y-63930250D01*
X212645797Y-63951074D01*
X212648947Y-63972309D01*
X212650000Y-63993750D01*
X212650000Y-64506250D01*
X212648947Y-64527691D01*
X212645797Y-64548926D01*
X212640581Y-64569750D01*
X212633349Y-64589962D01*
X212624170Y-64609368D01*
X212613134Y-64627781D01*
X212600346Y-64645024D01*
X212585930Y-64660930D01*
X212570024Y-64675346D01*
X212552781Y-64688134D01*
X212534368Y-64699170D01*
X212514962Y-64708349D01*
X212494750Y-64715581D01*
X212473926Y-64720797D01*
X212452691Y-64723947D01*
X212431250Y-64725000D01*
X211993750Y-64725000D01*
X211972309Y-64723947D01*
X211951074Y-64720797D01*
X211930250Y-64715581D01*
X211910038Y-64708349D01*
X211890632Y-64699170D01*
X211872219Y-64688134D01*
X211854976Y-64675346D01*
X211839070Y-64660930D01*
X211824654Y-64645024D01*
X211811866Y-64627781D01*
X211800830Y-64609368D01*
X211791651Y-64589962D01*
X211784419Y-64569750D01*
X211779203Y-64548926D01*
X211776053Y-64527691D01*
X211775000Y-64506250D01*
X211775000Y-63993750D01*
X211776053Y-63972309D01*
X211779203Y-63951074D01*
X211784419Y-63930250D01*
X211791651Y-63910038D01*
X211800830Y-63890632D01*
X211811866Y-63872219D01*
X211824654Y-63854976D01*
X211839070Y-63839070D01*
X211854976Y-63824654D01*
X211872219Y-63811866D01*
X211890632Y-63800830D01*
X211910038Y-63791651D01*
X211930250Y-63784419D01*
X211951074Y-63779203D01*
X211972309Y-63776053D01*
X211993750Y-63775000D01*
X212431250Y-63775000D01*
X212452691Y-63776053D01*
X212452691Y-63776053D01*
G37*
D14*
G04 #@! TD*
G04 #@! TO.P,R3,2*
G04 #@! TO.N,/XDIR*
X212212500Y-64250000D03*
D13*
G04 #@! TO.N,/YSTEP*
G04 #@! TO.C,R4*
G36*
X212702691Y-68776053D02*
X212723926Y-68779203D01*
X212744750Y-68784419D01*
X212764962Y-68791651D01*
X212784368Y-68800830D01*
X212802781Y-68811866D01*
X212820024Y-68824654D01*
X212835930Y-68839070D01*
X212850346Y-68854976D01*
X212863134Y-68872219D01*
X212874170Y-68890632D01*
X212883349Y-68910038D01*
X212890581Y-68930250D01*
X212895797Y-68951074D01*
X212898947Y-68972309D01*
X212900000Y-68993750D01*
X212900000Y-69506250D01*
X212898947Y-69527691D01*
X212895797Y-69548926D01*
X212890581Y-69569750D01*
X212883349Y-69589962D01*
X212874170Y-69609368D01*
X212863134Y-69627781D01*
X212850346Y-69645024D01*
X212835930Y-69660930D01*
X212820024Y-69675346D01*
X212802781Y-69688134D01*
X212784368Y-69699170D01*
X212764962Y-69708349D01*
X212744750Y-69715581D01*
X212723926Y-69720797D01*
X212702691Y-69723947D01*
X212681250Y-69725000D01*
X212243750Y-69725000D01*
X212222309Y-69723947D01*
X212201074Y-69720797D01*
X212180250Y-69715581D01*
X212160038Y-69708349D01*
X212140632Y-69699170D01*
X212122219Y-69688134D01*
X212104976Y-69675346D01*
X212089070Y-69660930D01*
X212074654Y-69645024D01*
X212061866Y-69627781D01*
X212050830Y-69609368D01*
X212041651Y-69589962D01*
X212034419Y-69569750D01*
X212029203Y-69548926D01*
X212026053Y-69527691D01*
X212025000Y-69506250D01*
X212025000Y-68993750D01*
X212026053Y-68972309D01*
X212029203Y-68951074D01*
X212034419Y-68930250D01*
X212041651Y-68910038D01*
X212050830Y-68890632D01*
X212061866Y-68872219D01*
X212074654Y-68854976D01*
X212089070Y-68839070D01*
X212104976Y-68824654D01*
X212122219Y-68811866D01*
X212140632Y-68800830D01*
X212160038Y-68791651D01*
X212180250Y-68784419D01*
X212201074Y-68779203D01*
X212222309Y-68776053D01*
X212243750Y-68775000D01*
X212681250Y-68775000D01*
X212702691Y-68776053D01*
X212702691Y-68776053D01*
G37*
D14*
G04 #@! TD*
G04 #@! TO.P,R4,2*
G04 #@! TO.N,/YSTEP*
X212462500Y-69250000D03*
D13*
G04 #@! TO.N,Net-(J1-Pad4)*
G04 #@! TO.C,R4*
G36*
X214277691Y-68776053D02*
X214298926Y-68779203D01*
X214319750Y-68784419D01*
X214339962Y-68791651D01*
X214359368Y-68800830D01*
X214377781Y-68811866D01*
X214395024Y-68824654D01*
X214410930Y-68839070D01*
X214425346Y-68854976D01*
X214438134Y-68872219D01*
X214449170Y-68890632D01*
X214458349Y-68910038D01*
X214465581Y-68930250D01*
X214470797Y-68951074D01*
X214473947Y-68972309D01*
X214475000Y-68993750D01*
X214475000Y-69506250D01*
X214473947Y-69527691D01*
X214470797Y-69548926D01*
X214465581Y-69569750D01*
X214458349Y-69589962D01*
X214449170Y-69609368D01*
X214438134Y-69627781D01*
X214425346Y-69645024D01*
X214410930Y-69660930D01*
X214395024Y-69675346D01*
X214377781Y-69688134D01*
X214359368Y-69699170D01*
X214339962Y-69708349D01*
X214319750Y-69715581D01*
X214298926Y-69720797D01*
X214277691Y-69723947D01*
X214256250Y-69725000D01*
X213818750Y-69725000D01*
X213797309Y-69723947D01*
X213776074Y-69720797D01*
X213755250Y-69715581D01*
X213735038Y-69708349D01*
X213715632Y-69699170D01*
X213697219Y-69688134D01*
X213679976Y-69675346D01*
X213664070Y-69660930D01*
X213649654Y-69645024D01*
X213636866Y-69627781D01*
X213625830Y-69609368D01*
X213616651Y-69589962D01*
X213609419Y-69569750D01*
X213604203Y-69548926D01*
X213601053Y-69527691D01*
X213600000Y-69506250D01*
X213600000Y-68993750D01*
X213601053Y-68972309D01*
X213604203Y-68951074D01*
X213609419Y-68930250D01*
X213616651Y-68910038D01*
X213625830Y-68890632D01*
X213636866Y-68872219D01*
X213649654Y-68854976D01*
X213664070Y-68839070D01*
X213679976Y-68824654D01*
X213697219Y-68811866D01*
X213715632Y-68800830D01*
X213735038Y-68791651D01*
X213755250Y-68784419D01*
X213776074Y-68779203D01*
X213797309Y-68776053D01*
X213818750Y-68775000D01*
X214256250Y-68775000D01*
X214277691Y-68776053D01*
X214277691Y-68776053D01*
G37*
D14*
G04 #@! TD*
G04 #@! TO.P,R4,1*
G04 #@! TO.N,Net-(J1-Pad4)*
X214037500Y-69250000D03*
D13*
G04 #@! TO.N,Net-(J1-Pad5)*
G04 #@! TO.C,R5*
G36*
X214277691Y-73776053D02*
X214298926Y-73779203D01*
X214319750Y-73784419D01*
X214339962Y-73791651D01*
X214359368Y-73800830D01*
X214377781Y-73811866D01*
X214395024Y-73824654D01*
X214410930Y-73839070D01*
X214425346Y-73854976D01*
X214438134Y-73872219D01*
X214449170Y-73890632D01*
X214458349Y-73910038D01*
X214465581Y-73930250D01*
X214470797Y-73951074D01*
X214473947Y-73972309D01*
X214475000Y-73993750D01*
X214475000Y-74506250D01*
X214473947Y-74527691D01*
X214470797Y-74548926D01*
X214465581Y-74569750D01*
X214458349Y-74589962D01*
X214449170Y-74609368D01*
X214438134Y-74627781D01*
X214425346Y-74645024D01*
X214410930Y-74660930D01*
X214395024Y-74675346D01*
X214377781Y-74688134D01*
X214359368Y-74699170D01*
X214339962Y-74708349D01*
X214319750Y-74715581D01*
X214298926Y-74720797D01*
X214277691Y-74723947D01*
X214256250Y-74725000D01*
X213818750Y-74725000D01*
X213797309Y-74723947D01*
X213776074Y-74720797D01*
X213755250Y-74715581D01*
X213735038Y-74708349D01*
X213715632Y-74699170D01*
X213697219Y-74688134D01*
X213679976Y-74675346D01*
X213664070Y-74660930D01*
X213649654Y-74645024D01*
X213636866Y-74627781D01*
X213625830Y-74609368D01*
X213616651Y-74589962D01*
X213609419Y-74569750D01*
X213604203Y-74548926D01*
X213601053Y-74527691D01*
X213600000Y-74506250D01*
X213600000Y-73993750D01*
X213601053Y-73972309D01*
X213604203Y-73951074D01*
X213609419Y-73930250D01*
X213616651Y-73910038D01*
X213625830Y-73890632D01*
X213636866Y-73872219D01*
X213649654Y-73854976D01*
X213664070Y-73839070D01*
X213679976Y-73824654D01*
X213697219Y-73811866D01*
X213715632Y-73800830D01*
X213735038Y-73791651D01*
X213755250Y-73784419D01*
X213776074Y-73779203D01*
X213797309Y-73776053D01*
X213818750Y-73775000D01*
X214256250Y-73775000D01*
X214277691Y-73776053D01*
X214277691Y-73776053D01*
G37*
D14*
G04 #@! TD*
G04 #@! TO.P,R5,1*
G04 #@! TO.N,Net-(J1-Pad5)*
X214037500Y-74250000D03*
D13*
G04 #@! TO.N,/YDIR*
G04 #@! TO.C,R5*
G36*
X212702691Y-73776053D02*
X212723926Y-73779203D01*
X212744750Y-73784419D01*
X212764962Y-73791651D01*
X212784368Y-73800830D01*
X212802781Y-73811866D01*
X212820024Y-73824654D01*
X212835930Y-73839070D01*
X212850346Y-73854976D01*
X212863134Y-73872219D01*
X212874170Y-73890632D01*
X212883349Y-73910038D01*
X212890581Y-73930250D01*
X212895797Y-73951074D01*
X212898947Y-73972309D01*
X212900000Y-73993750D01*
X212900000Y-74506250D01*
X212898947Y-74527691D01*
X212895797Y-74548926D01*
X212890581Y-74569750D01*
X212883349Y-74589962D01*
X212874170Y-74609368D01*
X212863134Y-74627781D01*
X212850346Y-74645024D01*
X212835930Y-74660930D01*
X212820024Y-74675346D01*
X212802781Y-74688134D01*
X212784368Y-74699170D01*
X212764962Y-74708349D01*
X212744750Y-74715581D01*
X212723926Y-74720797D01*
X212702691Y-74723947D01*
X212681250Y-74725000D01*
X212243750Y-74725000D01*
X212222309Y-74723947D01*
X212201074Y-74720797D01*
X212180250Y-74715581D01*
X212160038Y-74708349D01*
X212140632Y-74699170D01*
X212122219Y-74688134D01*
X212104976Y-74675346D01*
X212089070Y-74660930D01*
X212074654Y-74645024D01*
X212061866Y-74627781D01*
X212050830Y-74609368D01*
X212041651Y-74589962D01*
X212034419Y-74569750D01*
X212029203Y-74548926D01*
X212026053Y-74527691D01*
X212025000Y-74506250D01*
X212025000Y-73993750D01*
X212026053Y-73972309D01*
X212029203Y-73951074D01*
X212034419Y-73930250D01*
X212041651Y-73910038D01*
X212050830Y-73890632D01*
X212061866Y-73872219D01*
X212074654Y-73854976D01*
X212089070Y-73839070D01*
X212104976Y-73824654D01*
X212122219Y-73811866D01*
X212140632Y-73800830D01*
X212160038Y-73791651D01*
X212180250Y-73784419D01*
X212201074Y-73779203D01*
X212222309Y-73776053D01*
X212243750Y-73775000D01*
X212681250Y-73775000D01*
X212702691Y-73776053D01*
X212702691Y-73776053D01*
G37*
D14*
G04 #@! TD*
G04 #@! TO.P,R5,2*
G04 #@! TO.N,/YDIR*
X212462500Y-74250000D03*
D13*
G04 #@! TO.N,/ZSTEP*
G04 #@! TO.C,R6*
G36*
X212702691Y-76276053D02*
X212723926Y-76279203D01*
X212744750Y-76284419D01*
X212764962Y-76291651D01*
X212784368Y-76300830D01*
X212802781Y-76311866D01*
X212820024Y-76324654D01*
X212835930Y-76339070D01*
X212850346Y-76354976D01*
X212863134Y-76372219D01*
X212874170Y-76390632D01*
X212883349Y-76410038D01*
X212890581Y-76430250D01*
X212895797Y-76451074D01*
X212898947Y-76472309D01*
X212900000Y-76493750D01*
X212900000Y-77006250D01*
X212898947Y-77027691D01*
X212895797Y-77048926D01*
X212890581Y-77069750D01*
X212883349Y-77089962D01*
X212874170Y-77109368D01*
X212863134Y-77127781D01*
X212850346Y-77145024D01*
X212835930Y-77160930D01*
X212820024Y-77175346D01*
X212802781Y-77188134D01*
X212784368Y-77199170D01*
X212764962Y-77208349D01*
X212744750Y-77215581D01*
X212723926Y-77220797D01*
X212702691Y-77223947D01*
X212681250Y-77225000D01*
X212243750Y-77225000D01*
X212222309Y-77223947D01*
X212201074Y-77220797D01*
X212180250Y-77215581D01*
X212160038Y-77208349D01*
X212140632Y-77199170D01*
X212122219Y-77188134D01*
X212104976Y-77175346D01*
X212089070Y-77160930D01*
X212074654Y-77145024D01*
X212061866Y-77127781D01*
X212050830Y-77109368D01*
X212041651Y-77089962D01*
X212034419Y-77069750D01*
X212029203Y-77048926D01*
X212026053Y-77027691D01*
X212025000Y-77006250D01*
X212025000Y-76493750D01*
X212026053Y-76472309D01*
X212029203Y-76451074D01*
X212034419Y-76430250D01*
X212041651Y-76410038D01*
X212050830Y-76390632D01*
X212061866Y-76372219D01*
X212074654Y-76354976D01*
X212089070Y-76339070D01*
X212104976Y-76324654D01*
X212122219Y-76311866D01*
X212140632Y-76300830D01*
X212160038Y-76291651D01*
X212180250Y-76284419D01*
X212201074Y-76279203D01*
X212222309Y-76276053D01*
X212243750Y-76275000D01*
X212681250Y-76275000D01*
X212702691Y-76276053D01*
X212702691Y-76276053D01*
G37*
D14*
G04 #@! TD*
G04 #@! TO.P,R6,2*
G04 #@! TO.N,/ZSTEP*
X212462500Y-76750000D03*
D13*
G04 #@! TO.N,Net-(J1-Pad6)*
G04 #@! TO.C,R6*
G36*
X214277691Y-76276053D02*
X214298926Y-76279203D01*
X214319750Y-76284419D01*
X214339962Y-76291651D01*
X214359368Y-76300830D01*
X214377781Y-76311866D01*
X214395024Y-76324654D01*
X214410930Y-76339070D01*
X214425346Y-76354976D01*
X214438134Y-76372219D01*
X214449170Y-76390632D01*
X214458349Y-76410038D01*
X214465581Y-76430250D01*
X214470797Y-76451074D01*
X214473947Y-76472309D01*
X214475000Y-76493750D01*
X214475000Y-77006250D01*
X214473947Y-77027691D01*
X214470797Y-77048926D01*
X214465581Y-77069750D01*
X214458349Y-77089962D01*
X214449170Y-77109368D01*
X214438134Y-77127781D01*
X214425346Y-77145024D01*
X214410930Y-77160930D01*
X214395024Y-77175346D01*
X214377781Y-77188134D01*
X214359368Y-77199170D01*
X214339962Y-77208349D01*
X214319750Y-77215581D01*
X214298926Y-77220797D01*
X214277691Y-77223947D01*
X214256250Y-77225000D01*
X213818750Y-77225000D01*
X213797309Y-77223947D01*
X213776074Y-77220797D01*
X213755250Y-77215581D01*
X213735038Y-77208349D01*
X213715632Y-77199170D01*
X213697219Y-77188134D01*
X213679976Y-77175346D01*
X213664070Y-77160930D01*
X213649654Y-77145024D01*
X213636866Y-77127781D01*
X213625830Y-77109368D01*
X213616651Y-77089962D01*
X213609419Y-77069750D01*
X213604203Y-77048926D01*
X213601053Y-77027691D01*
X213600000Y-77006250D01*
X213600000Y-76493750D01*
X213601053Y-76472309D01*
X213604203Y-76451074D01*
X213609419Y-76430250D01*
X213616651Y-76410038D01*
X213625830Y-76390632D01*
X213636866Y-76372219D01*
X213649654Y-76354976D01*
X213664070Y-76339070D01*
X213679976Y-76324654D01*
X213697219Y-76311866D01*
X213715632Y-76300830D01*
X213735038Y-76291651D01*
X213755250Y-76284419D01*
X213776074Y-76279203D01*
X213797309Y-76276053D01*
X213818750Y-76275000D01*
X214256250Y-76275000D01*
X214277691Y-76276053D01*
X214277691Y-76276053D01*
G37*
D14*
G04 #@! TD*
G04 #@! TO.P,R6,1*
G04 #@! TO.N,Net-(J1-Pad6)*
X214037500Y-76750000D03*
D13*
G04 #@! TO.N,Net-(J1-Pad7)*
G04 #@! TO.C,R7*
G36*
X214277691Y-79026053D02*
X214298926Y-79029203D01*
X214319750Y-79034419D01*
X214339962Y-79041651D01*
X214359368Y-79050830D01*
X214377781Y-79061866D01*
X214395024Y-79074654D01*
X214410930Y-79089070D01*
X214425346Y-79104976D01*
X214438134Y-79122219D01*
X214449170Y-79140632D01*
X214458349Y-79160038D01*
X214465581Y-79180250D01*
X214470797Y-79201074D01*
X214473947Y-79222309D01*
X214475000Y-79243750D01*
X214475000Y-79756250D01*
X214473947Y-79777691D01*
X214470797Y-79798926D01*
X214465581Y-79819750D01*
X214458349Y-79839962D01*
X214449170Y-79859368D01*
X214438134Y-79877781D01*
X214425346Y-79895024D01*
X214410930Y-79910930D01*
X214395024Y-79925346D01*
X214377781Y-79938134D01*
X214359368Y-79949170D01*
X214339962Y-79958349D01*
X214319750Y-79965581D01*
X214298926Y-79970797D01*
X214277691Y-79973947D01*
X214256250Y-79975000D01*
X213818750Y-79975000D01*
X213797309Y-79973947D01*
X213776074Y-79970797D01*
X213755250Y-79965581D01*
X213735038Y-79958349D01*
X213715632Y-79949170D01*
X213697219Y-79938134D01*
X213679976Y-79925346D01*
X213664070Y-79910930D01*
X213649654Y-79895024D01*
X213636866Y-79877781D01*
X213625830Y-79859368D01*
X213616651Y-79839962D01*
X213609419Y-79819750D01*
X213604203Y-79798926D01*
X213601053Y-79777691D01*
X213600000Y-79756250D01*
X213600000Y-79243750D01*
X213601053Y-79222309D01*
X213604203Y-79201074D01*
X213609419Y-79180250D01*
X213616651Y-79160038D01*
X213625830Y-79140632D01*
X213636866Y-79122219D01*
X213649654Y-79104976D01*
X213664070Y-79089070D01*
X213679976Y-79074654D01*
X213697219Y-79061866D01*
X213715632Y-79050830D01*
X213735038Y-79041651D01*
X213755250Y-79034419D01*
X213776074Y-79029203D01*
X213797309Y-79026053D01*
X213818750Y-79025000D01*
X214256250Y-79025000D01*
X214277691Y-79026053D01*
X214277691Y-79026053D01*
G37*
D14*
G04 #@! TD*
G04 #@! TO.P,R7,1*
G04 #@! TO.N,Net-(J1-Pad7)*
X214037500Y-79500000D03*
D13*
G04 #@! TO.N,/ZDIR*
G04 #@! TO.C,R7*
G36*
X212702691Y-79026053D02*
X212723926Y-79029203D01*
X212744750Y-79034419D01*
X212764962Y-79041651D01*
X212784368Y-79050830D01*
X212802781Y-79061866D01*
X212820024Y-79074654D01*
X212835930Y-79089070D01*
X212850346Y-79104976D01*
X212863134Y-79122219D01*
X212874170Y-79140632D01*
X212883349Y-79160038D01*
X212890581Y-79180250D01*
X212895797Y-79201074D01*
X212898947Y-79222309D01*
X212900000Y-79243750D01*
X212900000Y-79756250D01*
X212898947Y-79777691D01*
X212895797Y-79798926D01*
X212890581Y-79819750D01*
X212883349Y-79839962D01*
X212874170Y-79859368D01*
X212863134Y-79877781D01*
X212850346Y-79895024D01*
X212835930Y-79910930D01*
X212820024Y-79925346D01*
X212802781Y-79938134D01*
X212784368Y-79949170D01*
X212764962Y-79958349D01*
X212744750Y-79965581D01*
X212723926Y-79970797D01*
X212702691Y-79973947D01*
X212681250Y-79975000D01*
X212243750Y-79975000D01*
X212222309Y-79973947D01*
X212201074Y-79970797D01*
X212180250Y-79965581D01*
X212160038Y-79958349D01*
X212140632Y-79949170D01*
X212122219Y-79938134D01*
X212104976Y-79925346D01*
X212089070Y-79910930D01*
X212074654Y-79895024D01*
X212061866Y-79877781D01*
X212050830Y-79859368D01*
X212041651Y-79839962D01*
X212034419Y-79819750D01*
X212029203Y-79798926D01*
X212026053Y-79777691D01*
X212025000Y-79756250D01*
X212025000Y-79243750D01*
X212026053Y-79222309D01*
X212029203Y-79201074D01*
X212034419Y-79180250D01*
X212041651Y-79160038D01*
X212050830Y-79140632D01*
X212061866Y-79122219D01*
X212074654Y-79104976D01*
X212089070Y-79089070D01*
X212104976Y-79074654D01*
X212122219Y-79061866D01*
X212140632Y-79050830D01*
X212160038Y-79041651D01*
X212180250Y-79034419D01*
X212201074Y-79029203D01*
X212222309Y-79026053D01*
X212243750Y-79025000D01*
X212681250Y-79025000D01*
X212702691Y-79026053D01*
X212702691Y-79026053D01*
G37*
D14*
G04 #@! TD*
G04 #@! TO.P,R7,2*
G04 #@! TO.N,/ZDIR*
X212462500Y-79500000D03*
D13*
G04 #@! TO.N,Net-(J1-Pad8)*
G04 #@! TO.C,R8*
G36*
X214277691Y-81526053D02*
X214298926Y-81529203D01*
X214319750Y-81534419D01*
X214339962Y-81541651D01*
X214359368Y-81550830D01*
X214377781Y-81561866D01*
X214395024Y-81574654D01*
X214410930Y-81589070D01*
X214425346Y-81604976D01*
X214438134Y-81622219D01*
X214449170Y-81640632D01*
X214458349Y-81660038D01*
X214465581Y-81680250D01*
X214470797Y-81701074D01*
X214473947Y-81722309D01*
X214475000Y-81743750D01*
X214475000Y-82256250D01*
X214473947Y-82277691D01*
X214470797Y-82298926D01*
X214465581Y-82319750D01*
X214458349Y-82339962D01*
X214449170Y-82359368D01*
X214438134Y-82377781D01*
X214425346Y-82395024D01*
X214410930Y-82410930D01*
X214395024Y-82425346D01*
X214377781Y-82438134D01*
X214359368Y-82449170D01*
X214339962Y-82458349D01*
X214319750Y-82465581D01*
X214298926Y-82470797D01*
X214277691Y-82473947D01*
X214256250Y-82475000D01*
X213818750Y-82475000D01*
X213797309Y-82473947D01*
X213776074Y-82470797D01*
X213755250Y-82465581D01*
X213735038Y-82458349D01*
X213715632Y-82449170D01*
X213697219Y-82438134D01*
X213679976Y-82425346D01*
X213664070Y-82410930D01*
X213649654Y-82395024D01*
X213636866Y-82377781D01*
X213625830Y-82359368D01*
X213616651Y-82339962D01*
X213609419Y-82319750D01*
X213604203Y-82298926D01*
X213601053Y-82277691D01*
X213600000Y-82256250D01*
X213600000Y-81743750D01*
X213601053Y-81722309D01*
X213604203Y-81701074D01*
X213609419Y-81680250D01*
X213616651Y-81660038D01*
X213625830Y-81640632D01*
X213636866Y-81622219D01*
X213649654Y-81604976D01*
X213664070Y-81589070D01*
X213679976Y-81574654D01*
X213697219Y-81561866D01*
X213715632Y-81550830D01*
X213735038Y-81541651D01*
X213755250Y-81534419D01*
X213776074Y-81529203D01*
X213797309Y-81526053D01*
X213818750Y-81525000D01*
X214256250Y-81525000D01*
X214277691Y-81526053D01*
X214277691Y-81526053D01*
G37*
D14*
G04 #@! TD*
G04 #@! TO.P,R8,1*
G04 #@! TO.N,Net-(J1-Pad8)*
X214037500Y-82000000D03*
D13*
G04 #@! TO.N,/ASTEP*
G04 #@! TO.C,R8*
G36*
X212702691Y-81526053D02*
X212723926Y-81529203D01*
X212744750Y-81534419D01*
X212764962Y-81541651D01*
X212784368Y-81550830D01*
X212802781Y-81561866D01*
X212820024Y-81574654D01*
X212835930Y-81589070D01*
X212850346Y-81604976D01*
X212863134Y-81622219D01*
X212874170Y-81640632D01*
X212883349Y-81660038D01*
X212890581Y-81680250D01*
X212895797Y-81701074D01*
X212898947Y-81722309D01*
X212900000Y-81743750D01*
X212900000Y-82256250D01*
X212898947Y-82277691D01*
X212895797Y-82298926D01*
X212890581Y-82319750D01*
X212883349Y-82339962D01*
X212874170Y-82359368D01*
X212863134Y-82377781D01*
X212850346Y-82395024D01*
X212835930Y-82410930D01*
X212820024Y-82425346D01*
X212802781Y-82438134D01*
X212784368Y-82449170D01*
X212764962Y-82458349D01*
X212744750Y-82465581D01*
X212723926Y-82470797D01*
X212702691Y-82473947D01*
X212681250Y-82475000D01*
X212243750Y-82475000D01*
X212222309Y-82473947D01*
X212201074Y-82470797D01*
X212180250Y-82465581D01*
X212160038Y-82458349D01*
X212140632Y-82449170D01*
X212122219Y-82438134D01*
X212104976Y-82425346D01*
X212089070Y-82410930D01*
X212074654Y-82395024D01*
X212061866Y-82377781D01*
X212050830Y-82359368D01*
X212041651Y-82339962D01*
X212034419Y-82319750D01*
X212029203Y-82298926D01*
X212026053Y-82277691D01*
X212025000Y-82256250D01*
X212025000Y-81743750D01*
X212026053Y-81722309D01*
X212029203Y-81701074D01*
X212034419Y-81680250D01*
X212041651Y-81660038D01*
X212050830Y-81640632D01*
X212061866Y-81622219D01*
X212074654Y-81604976D01*
X212089070Y-81589070D01*
X212104976Y-81574654D01*
X212122219Y-81561866D01*
X212140632Y-81550830D01*
X212160038Y-81541651D01*
X212180250Y-81534419D01*
X212201074Y-81529203D01*
X212222309Y-81526053D01*
X212243750Y-81525000D01*
X212681250Y-81525000D01*
X212702691Y-81526053D01*
X212702691Y-81526053D01*
G37*
D14*
G04 #@! TD*
G04 #@! TO.P,R8,2*
G04 #@! TO.N,/ASTEP*
X212462500Y-82000000D03*
D13*
G04 #@! TO.N,/ADIR*
G04 #@! TO.C,R9*
G36*
X212702691Y-84026053D02*
X212723926Y-84029203D01*
X212744750Y-84034419D01*
X212764962Y-84041651D01*
X212784368Y-84050830D01*
X212802781Y-84061866D01*
X212820024Y-84074654D01*
X212835930Y-84089070D01*
X212850346Y-84104976D01*
X212863134Y-84122219D01*
X212874170Y-84140632D01*
X212883349Y-84160038D01*
X212890581Y-84180250D01*
X212895797Y-84201074D01*
X212898947Y-84222309D01*
X212900000Y-84243750D01*
X212900000Y-84756250D01*
X212898947Y-84777691D01*
X212895797Y-84798926D01*
X212890581Y-84819750D01*
X212883349Y-84839962D01*
X212874170Y-84859368D01*
X212863134Y-84877781D01*
X212850346Y-84895024D01*
X212835930Y-84910930D01*
X212820024Y-84925346D01*
X212802781Y-84938134D01*
X212784368Y-84949170D01*
X212764962Y-84958349D01*
X212744750Y-84965581D01*
X212723926Y-84970797D01*
X212702691Y-84973947D01*
X212681250Y-84975000D01*
X212243750Y-84975000D01*
X212222309Y-84973947D01*
X212201074Y-84970797D01*
X212180250Y-84965581D01*
X212160038Y-84958349D01*
X212140632Y-84949170D01*
X212122219Y-84938134D01*
X212104976Y-84925346D01*
X212089070Y-84910930D01*
X212074654Y-84895024D01*
X212061866Y-84877781D01*
X212050830Y-84859368D01*
X212041651Y-84839962D01*
X212034419Y-84819750D01*
X212029203Y-84798926D01*
X212026053Y-84777691D01*
X212025000Y-84756250D01*
X212025000Y-84243750D01*
X212026053Y-84222309D01*
X212029203Y-84201074D01*
X212034419Y-84180250D01*
X212041651Y-84160038D01*
X212050830Y-84140632D01*
X212061866Y-84122219D01*
X212074654Y-84104976D01*
X212089070Y-84089070D01*
X212104976Y-84074654D01*
X212122219Y-84061866D01*
X212140632Y-84050830D01*
X212160038Y-84041651D01*
X212180250Y-84034419D01*
X212201074Y-84029203D01*
X212222309Y-84026053D01*
X212243750Y-84025000D01*
X212681250Y-84025000D01*
X212702691Y-84026053D01*
X212702691Y-84026053D01*
G37*
D14*
G04 #@! TD*
G04 #@! TO.P,R9,2*
G04 #@! TO.N,/ADIR*
X212462500Y-84500000D03*
D13*
G04 #@! TO.N,Net-(J1-Pad9)*
G04 #@! TO.C,R9*
G36*
X214277691Y-84026053D02*
X214298926Y-84029203D01*
X214319750Y-84034419D01*
X214339962Y-84041651D01*
X214359368Y-84050830D01*
X214377781Y-84061866D01*
X214395024Y-84074654D01*
X214410930Y-84089070D01*
X214425346Y-84104976D01*
X214438134Y-84122219D01*
X214449170Y-84140632D01*
X214458349Y-84160038D01*
X214465581Y-84180250D01*
X214470797Y-84201074D01*
X214473947Y-84222309D01*
X214475000Y-84243750D01*
X214475000Y-84756250D01*
X214473947Y-84777691D01*
X214470797Y-84798926D01*
X214465581Y-84819750D01*
X214458349Y-84839962D01*
X214449170Y-84859368D01*
X214438134Y-84877781D01*
X214425346Y-84895024D01*
X214410930Y-84910930D01*
X214395024Y-84925346D01*
X214377781Y-84938134D01*
X214359368Y-84949170D01*
X214339962Y-84958349D01*
X214319750Y-84965581D01*
X214298926Y-84970797D01*
X214277691Y-84973947D01*
X214256250Y-84975000D01*
X213818750Y-84975000D01*
X213797309Y-84973947D01*
X213776074Y-84970797D01*
X213755250Y-84965581D01*
X213735038Y-84958349D01*
X213715632Y-84949170D01*
X213697219Y-84938134D01*
X213679976Y-84925346D01*
X213664070Y-84910930D01*
X213649654Y-84895024D01*
X213636866Y-84877781D01*
X213625830Y-84859368D01*
X213616651Y-84839962D01*
X213609419Y-84819750D01*
X213604203Y-84798926D01*
X213601053Y-84777691D01*
X213600000Y-84756250D01*
X213600000Y-84243750D01*
X213601053Y-84222309D01*
X213604203Y-84201074D01*
X213609419Y-84180250D01*
X213616651Y-84160038D01*
X213625830Y-84140632D01*
X213636866Y-84122219D01*
X213649654Y-84104976D01*
X213664070Y-84089070D01*
X213679976Y-84074654D01*
X213697219Y-84061866D01*
X213715632Y-84050830D01*
X213735038Y-84041651D01*
X213755250Y-84034419D01*
X213776074Y-84029203D01*
X213797309Y-84026053D01*
X213818750Y-84025000D01*
X214256250Y-84025000D01*
X214277691Y-84026053D01*
X214277691Y-84026053D01*
G37*
D14*
G04 #@! TD*
G04 #@! TO.P,R9,1*
G04 #@! TO.N,Net-(J1-Pad9)*
X214037500Y-84500000D03*
D13*
G04 #@! TO.N,Net-(J1-Pad10)*
G04 #@! TO.C,R10*
G36*
X214277691Y-86526053D02*
X214298926Y-86529203D01*
X214319750Y-86534419D01*
X214339962Y-86541651D01*
X214359368Y-86550830D01*
X214377781Y-86561866D01*
X214395024Y-86574654D01*
X214410930Y-86589070D01*
X214425346Y-86604976D01*
X214438134Y-86622219D01*
X214449170Y-86640632D01*
X214458349Y-86660038D01*
X214465581Y-86680250D01*
X214470797Y-86701074D01*
X214473947Y-86722309D01*
X214475000Y-86743750D01*
X214475000Y-87256250D01*
X214473947Y-87277691D01*
X214470797Y-87298926D01*
X214465581Y-87319750D01*
X214458349Y-87339962D01*
X214449170Y-87359368D01*
X214438134Y-87377781D01*
X214425346Y-87395024D01*
X214410930Y-87410930D01*
X214395024Y-87425346D01*
X214377781Y-87438134D01*
X214359368Y-87449170D01*
X214339962Y-87458349D01*
X214319750Y-87465581D01*
X214298926Y-87470797D01*
X214277691Y-87473947D01*
X214256250Y-87475000D01*
X213818750Y-87475000D01*
X213797309Y-87473947D01*
X213776074Y-87470797D01*
X213755250Y-87465581D01*
X213735038Y-87458349D01*
X213715632Y-87449170D01*
X213697219Y-87438134D01*
X213679976Y-87425346D01*
X213664070Y-87410930D01*
X213649654Y-87395024D01*
X213636866Y-87377781D01*
X213625830Y-87359368D01*
X213616651Y-87339962D01*
X213609419Y-87319750D01*
X213604203Y-87298926D01*
X213601053Y-87277691D01*
X213600000Y-87256250D01*
X213600000Y-86743750D01*
X213601053Y-86722309D01*
X213604203Y-86701074D01*
X213609419Y-86680250D01*
X213616651Y-86660038D01*
X213625830Y-86640632D01*
X213636866Y-86622219D01*
X213649654Y-86604976D01*
X213664070Y-86589070D01*
X213679976Y-86574654D01*
X213697219Y-86561866D01*
X213715632Y-86550830D01*
X213735038Y-86541651D01*
X213755250Y-86534419D01*
X213776074Y-86529203D01*
X213797309Y-86526053D01*
X213818750Y-86525000D01*
X214256250Y-86525000D01*
X214277691Y-86526053D01*
X214277691Y-86526053D01*
G37*
D14*
G04 #@! TD*
G04 #@! TO.P,R10,1*
G04 #@! TO.N,Net-(J1-Pad10)*
X214037500Y-87000000D03*
D13*
G04 #@! TO.N,/XLIMIT*
G04 #@! TO.C,R10*
G36*
X212702691Y-86526053D02*
X212723926Y-86529203D01*
X212744750Y-86534419D01*
X212764962Y-86541651D01*
X212784368Y-86550830D01*
X212802781Y-86561866D01*
X212820024Y-86574654D01*
X212835930Y-86589070D01*
X212850346Y-86604976D01*
X212863134Y-86622219D01*
X212874170Y-86640632D01*
X212883349Y-86660038D01*
X212890581Y-86680250D01*
X212895797Y-86701074D01*
X212898947Y-86722309D01*
X212900000Y-86743750D01*
X212900000Y-87256250D01*
X212898947Y-87277691D01*
X212895797Y-87298926D01*
X212890581Y-87319750D01*
X212883349Y-87339962D01*
X212874170Y-87359368D01*
X212863134Y-87377781D01*
X212850346Y-87395024D01*
X212835930Y-87410930D01*
X212820024Y-87425346D01*
X212802781Y-87438134D01*
X212784368Y-87449170D01*
X212764962Y-87458349D01*
X212744750Y-87465581D01*
X212723926Y-87470797D01*
X212702691Y-87473947D01*
X212681250Y-87475000D01*
X212243750Y-87475000D01*
X212222309Y-87473947D01*
X212201074Y-87470797D01*
X212180250Y-87465581D01*
X212160038Y-87458349D01*
X212140632Y-87449170D01*
X212122219Y-87438134D01*
X212104976Y-87425346D01*
X212089070Y-87410930D01*
X212074654Y-87395024D01*
X212061866Y-87377781D01*
X212050830Y-87359368D01*
X212041651Y-87339962D01*
X212034419Y-87319750D01*
X212029203Y-87298926D01*
X212026053Y-87277691D01*
X212025000Y-87256250D01*
X212025000Y-86743750D01*
X212026053Y-86722309D01*
X212029203Y-86701074D01*
X212034419Y-86680250D01*
X212041651Y-86660038D01*
X212050830Y-86640632D01*
X212061866Y-86622219D01*
X212074654Y-86604976D01*
X212089070Y-86589070D01*
X212104976Y-86574654D01*
X212122219Y-86561866D01*
X212140632Y-86550830D01*
X212160038Y-86541651D01*
X212180250Y-86534419D01*
X212201074Y-86529203D01*
X212222309Y-86526053D01*
X212243750Y-86525000D01*
X212681250Y-86525000D01*
X212702691Y-86526053D01*
X212702691Y-86526053D01*
G37*
D14*
G04 #@! TD*
G04 #@! TO.P,R10,2*
G04 #@! TO.N,/XLIMIT*
X212462500Y-87000000D03*
D13*
G04 #@! TO.N,/YLIMIT*
G04 #@! TO.C,R11*
G36*
X212702691Y-89276053D02*
X212723926Y-89279203D01*
X212744750Y-89284419D01*
X212764962Y-89291651D01*
X212784368Y-89300830D01*
X212802781Y-89311866D01*
X212820024Y-89324654D01*
X212835930Y-89339070D01*
X212850346Y-89354976D01*
X212863134Y-89372219D01*
X212874170Y-89390632D01*
X212883349Y-89410038D01*
X212890581Y-89430250D01*
X212895797Y-89451074D01*
X212898947Y-89472309D01*
X212900000Y-89493750D01*
X212900000Y-90006250D01*
X212898947Y-90027691D01*
X212895797Y-90048926D01*
X212890581Y-90069750D01*
X212883349Y-90089962D01*
X212874170Y-90109368D01*
X212863134Y-90127781D01*
X212850346Y-90145024D01*
X212835930Y-90160930D01*
X212820024Y-90175346D01*
X212802781Y-90188134D01*
X212784368Y-90199170D01*
X212764962Y-90208349D01*
X212744750Y-90215581D01*
X212723926Y-90220797D01*
X212702691Y-90223947D01*
X212681250Y-90225000D01*
X212243750Y-90225000D01*
X212222309Y-90223947D01*
X212201074Y-90220797D01*
X212180250Y-90215581D01*
X212160038Y-90208349D01*
X212140632Y-90199170D01*
X212122219Y-90188134D01*
X212104976Y-90175346D01*
X212089070Y-90160930D01*
X212074654Y-90145024D01*
X212061866Y-90127781D01*
X212050830Y-90109368D01*
X212041651Y-90089962D01*
X212034419Y-90069750D01*
X212029203Y-90048926D01*
X212026053Y-90027691D01*
X212025000Y-90006250D01*
X212025000Y-89493750D01*
X212026053Y-89472309D01*
X212029203Y-89451074D01*
X212034419Y-89430250D01*
X212041651Y-89410038D01*
X212050830Y-89390632D01*
X212061866Y-89372219D01*
X212074654Y-89354976D01*
X212089070Y-89339070D01*
X212104976Y-89324654D01*
X212122219Y-89311866D01*
X212140632Y-89300830D01*
X212160038Y-89291651D01*
X212180250Y-89284419D01*
X212201074Y-89279203D01*
X212222309Y-89276053D01*
X212243750Y-89275000D01*
X212681250Y-89275000D01*
X212702691Y-89276053D01*
X212702691Y-89276053D01*
G37*
D14*
G04 #@! TD*
G04 #@! TO.P,R11,2*
G04 #@! TO.N,/YLIMIT*
X212462500Y-89750000D03*
D13*
G04 #@! TO.N,Net-(J1-Pad11)*
G04 #@! TO.C,R11*
G36*
X214277691Y-89276053D02*
X214298926Y-89279203D01*
X214319750Y-89284419D01*
X214339962Y-89291651D01*
X214359368Y-89300830D01*
X214377781Y-89311866D01*
X214395024Y-89324654D01*
X214410930Y-89339070D01*
X214425346Y-89354976D01*
X214438134Y-89372219D01*
X214449170Y-89390632D01*
X214458349Y-89410038D01*
X214465581Y-89430250D01*
X214470797Y-89451074D01*
X214473947Y-89472309D01*
X214475000Y-89493750D01*
X214475000Y-90006250D01*
X214473947Y-90027691D01*
X214470797Y-90048926D01*
X214465581Y-90069750D01*
X214458349Y-90089962D01*
X214449170Y-90109368D01*
X214438134Y-90127781D01*
X214425346Y-90145024D01*
X214410930Y-90160930D01*
X214395024Y-90175346D01*
X214377781Y-90188134D01*
X214359368Y-90199170D01*
X214339962Y-90208349D01*
X214319750Y-90215581D01*
X214298926Y-90220797D01*
X214277691Y-90223947D01*
X214256250Y-90225000D01*
X213818750Y-90225000D01*
X213797309Y-90223947D01*
X213776074Y-90220797D01*
X213755250Y-90215581D01*
X213735038Y-90208349D01*
X213715632Y-90199170D01*
X213697219Y-90188134D01*
X213679976Y-90175346D01*
X213664070Y-90160930D01*
X213649654Y-90145024D01*
X213636866Y-90127781D01*
X213625830Y-90109368D01*
X213616651Y-90089962D01*
X213609419Y-90069750D01*
X213604203Y-90048926D01*
X213601053Y-90027691D01*
X213600000Y-90006250D01*
X213600000Y-89493750D01*
X213601053Y-89472309D01*
X213604203Y-89451074D01*
X213609419Y-89430250D01*
X213616651Y-89410038D01*
X213625830Y-89390632D01*
X213636866Y-89372219D01*
X213649654Y-89354976D01*
X213664070Y-89339070D01*
X213679976Y-89324654D01*
X213697219Y-89311866D01*
X213715632Y-89300830D01*
X213735038Y-89291651D01*
X213755250Y-89284419D01*
X213776074Y-89279203D01*
X213797309Y-89276053D01*
X213818750Y-89275000D01*
X214256250Y-89275000D01*
X214277691Y-89276053D01*
X214277691Y-89276053D01*
G37*
D14*
G04 #@! TD*
G04 #@! TO.P,R11,1*
G04 #@! TO.N,Net-(J1-Pad11)*
X214037500Y-89750000D03*
D13*
G04 #@! TO.N,Net-(J1-Pad12)*
G04 #@! TO.C,R12*
G36*
X214277691Y-91776053D02*
X214298926Y-91779203D01*
X214319750Y-91784419D01*
X214339962Y-91791651D01*
X214359368Y-91800830D01*
X214377781Y-91811866D01*
X214395024Y-91824654D01*
X214410930Y-91839070D01*
X214425346Y-91854976D01*
X214438134Y-91872219D01*
X214449170Y-91890632D01*
X214458349Y-91910038D01*
X214465581Y-91930250D01*
X214470797Y-91951074D01*
X214473947Y-91972309D01*
X214475000Y-91993750D01*
X214475000Y-92506250D01*
X214473947Y-92527691D01*
X214470797Y-92548926D01*
X214465581Y-92569750D01*
X214458349Y-92589962D01*
X214449170Y-92609368D01*
X214438134Y-92627781D01*
X214425346Y-92645024D01*
X214410930Y-92660930D01*
X214395024Y-92675346D01*
X214377781Y-92688134D01*
X214359368Y-92699170D01*
X214339962Y-92708349D01*
X214319750Y-92715581D01*
X214298926Y-92720797D01*
X214277691Y-92723947D01*
X214256250Y-92725000D01*
X213818750Y-92725000D01*
X213797309Y-92723947D01*
X213776074Y-92720797D01*
X213755250Y-92715581D01*
X213735038Y-92708349D01*
X213715632Y-92699170D01*
X213697219Y-92688134D01*
X213679976Y-92675346D01*
X213664070Y-92660930D01*
X213649654Y-92645024D01*
X213636866Y-92627781D01*
X213625830Y-92609368D01*
X213616651Y-92589962D01*
X213609419Y-92569750D01*
X213604203Y-92548926D01*
X213601053Y-92527691D01*
X213600000Y-92506250D01*
X213600000Y-91993750D01*
X213601053Y-91972309D01*
X213604203Y-91951074D01*
X213609419Y-91930250D01*
X213616651Y-91910038D01*
X213625830Y-91890632D01*
X213636866Y-91872219D01*
X213649654Y-91854976D01*
X213664070Y-91839070D01*
X213679976Y-91824654D01*
X213697219Y-91811866D01*
X213715632Y-91800830D01*
X213735038Y-91791651D01*
X213755250Y-91784419D01*
X213776074Y-91779203D01*
X213797309Y-91776053D01*
X213818750Y-91775000D01*
X214256250Y-91775000D01*
X214277691Y-91776053D01*
X214277691Y-91776053D01*
G37*
D14*
G04 #@! TD*
G04 #@! TO.P,R12,1*
G04 #@! TO.N,Net-(J1-Pad12)*
X214037500Y-92250000D03*
D13*
G04 #@! TO.N,/ZLIMIT*
G04 #@! TO.C,R12*
G36*
X212702691Y-91776053D02*
X212723926Y-91779203D01*
X212744750Y-91784419D01*
X212764962Y-91791651D01*
X212784368Y-91800830D01*
X212802781Y-91811866D01*
X212820024Y-91824654D01*
X212835930Y-91839070D01*
X212850346Y-91854976D01*
X212863134Y-91872219D01*
X212874170Y-91890632D01*
X212883349Y-91910038D01*
X212890581Y-91930250D01*
X212895797Y-91951074D01*
X212898947Y-91972309D01*
X212900000Y-91993750D01*
X212900000Y-92506250D01*
X212898947Y-92527691D01*
X212895797Y-92548926D01*
X212890581Y-92569750D01*
X212883349Y-92589962D01*
X212874170Y-92609368D01*
X212863134Y-92627781D01*
X212850346Y-92645024D01*
X212835930Y-92660930D01*
X212820024Y-92675346D01*
X212802781Y-92688134D01*
X212784368Y-92699170D01*
X212764962Y-92708349D01*
X212744750Y-92715581D01*
X212723926Y-92720797D01*
X212702691Y-92723947D01*
X212681250Y-92725000D01*
X212243750Y-92725000D01*
X212222309Y-92723947D01*
X212201074Y-92720797D01*
X212180250Y-92715581D01*
X212160038Y-92708349D01*
X212140632Y-92699170D01*
X212122219Y-92688134D01*
X212104976Y-92675346D01*
X212089070Y-92660930D01*
X212074654Y-92645024D01*
X212061866Y-92627781D01*
X212050830Y-92609368D01*
X212041651Y-92589962D01*
X212034419Y-92569750D01*
X212029203Y-92548926D01*
X212026053Y-92527691D01*
X212025000Y-92506250D01*
X212025000Y-91993750D01*
X212026053Y-91972309D01*
X212029203Y-91951074D01*
X212034419Y-91930250D01*
X212041651Y-91910038D01*
X212050830Y-91890632D01*
X212061866Y-91872219D01*
X212074654Y-91854976D01*
X212089070Y-91839070D01*
X212104976Y-91824654D01*
X212122219Y-91811866D01*
X212140632Y-91800830D01*
X212160038Y-91791651D01*
X212180250Y-91784419D01*
X212201074Y-91779203D01*
X212222309Y-91776053D01*
X212243750Y-91775000D01*
X212681250Y-91775000D01*
X212702691Y-91776053D01*
X212702691Y-91776053D01*
G37*
D14*
G04 #@! TD*
G04 #@! TO.P,R12,2*
G04 #@! TO.N,/ZLIMIT*
X212462500Y-92250000D03*
D13*
G04 #@! TO.N,/ESTOP*
G04 #@! TO.C,R13*
G36*
X212702691Y-94026053D02*
X212723926Y-94029203D01*
X212744750Y-94034419D01*
X212764962Y-94041651D01*
X212784368Y-94050830D01*
X212802781Y-94061866D01*
X212820024Y-94074654D01*
X212835930Y-94089070D01*
X212850346Y-94104976D01*
X212863134Y-94122219D01*
X212874170Y-94140632D01*
X212883349Y-94160038D01*
X212890581Y-94180250D01*
X212895797Y-94201074D01*
X212898947Y-94222309D01*
X212900000Y-94243750D01*
X212900000Y-94756250D01*
X212898947Y-94777691D01*
X212895797Y-94798926D01*
X212890581Y-94819750D01*
X212883349Y-94839962D01*
X212874170Y-94859368D01*
X212863134Y-94877781D01*
X212850346Y-94895024D01*
X212835930Y-94910930D01*
X212820024Y-94925346D01*
X212802781Y-94938134D01*
X212784368Y-94949170D01*
X212764962Y-94958349D01*
X212744750Y-94965581D01*
X212723926Y-94970797D01*
X212702691Y-94973947D01*
X212681250Y-94975000D01*
X212243750Y-94975000D01*
X212222309Y-94973947D01*
X212201074Y-94970797D01*
X212180250Y-94965581D01*
X212160038Y-94958349D01*
X212140632Y-94949170D01*
X212122219Y-94938134D01*
X212104976Y-94925346D01*
X212089070Y-94910930D01*
X212074654Y-94895024D01*
X212061866Y-94877781D01*
X212050830Y-94859368D01*
X212041651Y-94839962D01*
X212034419Y-94819750D01*
X212029203Y-94798926D01*
X212026053Y-94777691D01*
X212025000Y-94756250D01*
X212025000Y-94243750D01*
X212026053Y-94222309D01*
X212029203Y-94201074D01*
X212034419Y-94180250D01*
X212041651Y-94160038D01*
X212050830Y-94140632D01*
X212061866Y-94122219D01*
X212074654Y-94104976D01*
X212089070Y-94089070D01*
X212104976Y-94074654D01*
X212122219Y-94061866D01*
X212140632Y-94050830D01*
X212160038Y-94041651D01*
X212180250Y-94034419D01*
X212201074Y-94029203D01*
X212222309Y-94026053D01*
X212243750Y-94025000D01*
X212681250Y-94025000D01*
X212702691Y-94026053D01*
X212702691Y-94026053D01*
G37*
D14*
G04 #@! TD*
G04 #@! TO.P,R13,2*
G04 #@! TO.N,/ESTOP*
X212462500Y-94500000D03*
D13*
G04 #@! TO.N,Net-(J1-Pad13)*
G04 #@! TO.C,R13*
G36*
X214277691Y-94026053D02*
X214298926Y-94029203D01*
X214319750Y-94034419D01*
X214339962Y-94041651D01*
X214359368Y-94050830D01*
X214377781Y-94061866D01*
X214395024Y-94074654D01*
X214410930Y-94089070D01*
X214425346Y-94104976D01*
X214438134Y-94122219D01*
X214449170Y-94140632D01*
X214458349Y-94160038D01*
X214465581Y-94180250D01*
X214470797Y-94201074D01*
X214473947Y-94222309D01*
X214475000Y-94243750D01*
X214475000Y-94756250D01*
X214473947Y-94777691D01*
X214470797Y-94798926D01*
X214465581Y-94819750D01*
X214458349Y-94839962D01*
X214449170Y-94859368D01*
X214438134Y-94877781D01*
X214425346Y-94895024D01*
X214410930Y-94910930D01*
X214395024Y-94925346D01*
X214377781Y-94938134D01*
X214359368Y-94949170D01*
X214339962Y-94958349D01*
X214319750Y-94965581D01*
X214298926Y-94970797D01*
X214277691Y-94973947D01*
X214256250Y-94975000D01*
X213818750Y-94975000D01*
X213797309Y-94973947D01*
X213776074Y-94970797D01*
X213755250Y-94965581D01*
X213735038Y-94958349D01*
X213715632Y-94949170D01*
X213697219Y-94938134D01*
X213679976Y-94925346D01*
X213664070Y-94910930D01*
X213649654Y-94895024D01*
X213636866Y-94877781D01*
X213625830Y-94859368D01*
X213616651Y-94839962D01*
X213609419Y-94819750D01*
X213604203Y-94798926D01*
X213601053Y-94777691D01*
X213600000Y-94756250D01*
X213600000Y-94243750D01*
X213601053Y-94222309D01*
X213604203Y-94201074D01*
X213609419Y-94180250D01*
X213616651Y-94160038D01*
X213625830Y-94140632D01*
X213636866Y-94122219D01*
X213649654Y-94104976D01*
X213664070Y-94089070D01*
X213679976Y-94074654D01*
X213697219Y-94061866D01*
X213715632Y-94050830D01*
X213735038Y-94041651D01*
X213755250Y-94034419D01*
X213776074Y-94029203D01*
X213797309Y-94026053D01*
X213818750Y-94025000D01*
X214256250Y-94025000D01*
X214277691Y-94026053D01*
X214277691Y-94026053D01*
G37*
D14*
G04 #@! TD*
G04 #@! TO.P,R13,1*
G04 #@! TO.N,Net-(J1-Pad13)*
X214037500Y-94500000D03*
D13*
G04 #@! TO.N,Net-(J1-Pad14)*
G04 #@! TO.C,R14*
G36*
X214027691Y-56026053D02*
X214048926Y-56029203D01*
X214069750Y-56034419D01*
X214089962Y-56041651D01*
X214109368Y-56050830D01*
X214127781Y-56061866D01*
X214145024Y-56074654D01*
X214160930Y-56089070D01*
X214175346Y-56104976D01*
X214188134Y-56122219D01*
X214199170Y-56140632D01*
X214208349Y-56160038D01*
X214215581Y-56180250D01*
X214220797Y-56201074D01*
X214223947Y-56222309D01*
X214225000Y-56243750D01*
X214225000Y-56756250D01*
X214223947Y-56777691D01*
X214220797Y-56798926D01*
X214215581Y-56819750D01*
X214208349Y-56839962D01*
X214199170Y-56859368D01*
X214188134Y-56877781D01*
X214175346Y-56895024D01*
X214160930Y-56910930D01*
X214145024Y-56925346D01*
X214127781Y-56938134D01*
X214109368Y-56949170D01*
X214089962Y-56958349D01*
X214069750Y-56965581D01*
X214048926Y-56970797D01*
X214027691Y-56973947D01*
X214006250Y-56975000D01*
X213568750Y-56975000D01*
X213547309Y-56973947D01*
X213526074Y-56970797D01*
X213505250Y-56965581D01*
X213485038Y-56958349D01*
X213465632Y-56949170D01*
X213447219Y-56938134D01*
X213429976Y-56925346D01*
X213414070Y-56910930D01*
X213399654Y-56895024D01*
X213386866Y-56877781D01*
X213375830Y-56859368D01*
X213366651Y-56839962D01*
X213359419Y-56819750D01*
X213354203Y-56798926D01*
X213351053Y-56777691D01*
X213350000Y-56756250D01*
X213350000Y-56243750D01*
X213351053Y-56222309D01*
X213354203Y-56201074D01*
X213359419Y-56180250D01*
X213366651Y-56160038D01*
X213375830Y-56140632D01*
X213386866Y-56122219D01*
X213399654Y-56104976D01*
X213414070Y-56089070D01*
X213429976Y-56074654D01*
X213447219Y-56061866D01*
X213465632Y-56050830D01*
X213485038Y-56041651D01*
X213505250Y-56034419D01*
X213526074Y-56029203D01*
X213547309Y-56026053D01*
X213568750Y-56025000D01*
X214006250Y-56025000D01*
X214027691Y-56026053D01*
X214027691Y-56026053D01*
G37*
D14*
G04 #@! TD*
G04 #@! TO.P,R14,1*
G04 #@! TO.N,Net-(J1-Pad14)*
X213787500Y-56500000D03*
D13*
G04 #@! TO.N,/SPINDIR*
G04 #@! TO.C,R14*
G36*
X212452691Y-56026053D02*
X212473926Y-56029203D01*
X212494750Y-56034419D01*
X212514962Y-56041651D01*
X212534368Y-56050830D01*
X212552781Y-56061866D01*
X212570024Y-56074654D01*
X212585930Y-56089070D01*
X212600346Y-56104976D01*
X212613134Y-56122219D01*
X212624170Y-56140632D01*
X212633349Y-56160038D01*
X212640581Y-56180250D01*
X212645797Y-56201074D01*
X212648947Y-56222309D01*
X212650000Y-56243750D01*
X212650000Y-56756250D01*
X212648947Y-56777691D01*
X212645797Y-56798926D01*
X212640581Y-56819750D01*
X212633349Y-56839962D01*
X212624170Y-56859368D01*
X212613134Y-56877781D01*
X212600346Y-56895024D01*
X212585930Y-56910930D01*
X212570024Y-56925346D01*
X212552781Y-56938134D01*
X212534368Y-56949170D01*
X212514962Y-56958349D01*
X212494750Y-56965581D01*
X212473926Y-56970797D01*
X212452691Y-56973947D01*
X212431250Y-56975000D01*
X211993750Y-56975000D01*
X211972309Y-56973947D01*
X211951074Y-56970797D01*
X211930250Y-56965581D01*
X211910038Y-56958349D01*
X211890632Y-56949170D01*
X211872219Y-56938134D01*
X211854976Y-56925346D01*
X211839070Y-56910930D01*
X211824654Y-56895024D01*
X211811866Y-56877781D01*
X211800830Y-56859368D01*
X211791651Y-56839962D01*
X211784419Y-56819750D01*
X211779203Y-56798926D01*
X211776053Y-56777691D01*
X211775000Y-56756250D01*
X211775000Y-56243750D01*
X211776053Y-56222309D01*
X211779203Y-56201074D01*
X211784419Y-56180250D01*
X211791651Y-56160038D01*
X211800830Y-56140632D01*
X211811866Y-56122219D01*
X211824654Y-56104976D01*
X211839070Y-56089070D01*
X211854976Y-56074654D01*
X211872219Y-56061866D01*
X211890632Y-56050830D01*
X211910038Y-56041651D01*
X211930250Y-56034419D01*
X211951074Y-56029203D01*
X211972309Y-56026053D01*
X211993750Y-56025000D01*
X212431250Y-56025000D01*
X212452691Y-56026053D01*
X212452691Y-56026053D01*
G37*
D14*
G04 #@! TD*
G04 #@! TO.P,R14,2*
G04 #@! TO.N,/SPINDIR*
X212212500Y-56500000D03*
D13*
G04 #@! TO.N,/PROBE*
G04 #@! TO.C,R15*
G36*
X212702691Y-61276053D02*
X212723926Y-61279203D01*
X212744750Y-61284419D01*
X212764962Y-61291651D01*
X212784368Y-61300830D01*
X212802781Y-61311866D01*
X212820024Y-61324654D01*
X212835930Y-61339070D01*
X212850346Y-61354976D01*
X212863134Y-61372219D01*
X212874170Y-61390632D01*
X212883349Y-61410038D01*
X212890581Y-61430250D01*
X212895797Y-61451074D01*
X212898947Y-61472309D01*
X212900000Y-61493750D01*
X212900000Y-62006250D01*
X212898947Y-62027691D01*
X212895797Y-62048926D01*
X212890581Y-62069750D01*
X212883349Y-62089962D01*
X212874170Y-62109368D01*
X212863134Y-62127781D01*
X212850346Y-62145024D01*
X212835930Y-62160930D01*
X212820024Y-62175346D01*
X212802781Y-62188134D01*
X212784368Y-62199170D01*
X212764962Y-62208349D01*
X212744750Y-62215581D01*
X212723926Y-62220797D01*
X212702691Y-62223947D01*
X212681250Y-62225000D01*
X212243750Y-62225000D01*
X212222309Y-62223947D01*
X212201074Y-62220797D01*
X212180250Y-62215581D01*
X212160038Y-62208349D01*
X212140632Y-62199170D01*
X212122219Y-62188134D01*
X212104976Y-62175346D01*
X212089070Y-62160930D01*
X212074654Y-62145024D01*
X212061866Y-62127781D01*
X212050830Y-62109368D01*
X212041651Y-62089962D01*
X212034419Y-62069750D01*
X212029203Y-62048926D01*
X212026053Y-62027691D01*
X212025000Y-62006250D01*
X212025000Y-61493750D01*
X212026053Y-61472309D01*
X212029203Y-61451074D01*
X212034419Y-61430250D01*
X212041651Y-61410038D01*
X212050830Y-61390632D01*
X212061866Y-61372219D01*
X212074654Y-61354976D01*
X212089070Y-61339070D01*
X212104976Y-61324654D01*
X212122219Y-61311866D01*
X212140632Y-61300830D01*
X212160038Y-61291651D01*
X212180250Y-61284419D01*
X212201074Y-61279203D01*
X212222309Y-61276053D01*
X212243750Y-61275000D01*
X212681250Y-61275000D01*
X212702691Y-61276053D01*
X212702691Y-61276053D01*
G37*
D14*
G04 #@! TD*
G04 #@! TO.P,R15,2*
G04 #@! TO.N,/PROBE*
X212462500Y-61750000D03*
D13*
G04 #@! TO.N,Net-(J1-Pad15)*
G04 #@! TO.C,R15*
G36*
X214277691Y-61276053D02*
X214298926Y-61279203D01*
X214319750Y-61284419D01*
X214339962Y-61291651D01*
X214359368Y-61300830D01*
X214377781Y-61311866D01*
X214395024Y-61324654D01*
X214410930Y-61339070D01*
X214425346Y-61354976D01*
X214438134Y-61372219D01*
X214449170Y-61390632D01*
X214458349Y-61410038D01*
X214465581Y-61430250D01*
X214470797Y-61451074D01*
X214473947Y-61472309D01*
X214475000Y-61493750D01*
X214475000Y-62006250D01*
X214473947Y-62027691D01*
X214470797Y-62048926D01*
X214465581Y-62069750D01*
X214458349Y-62089962D01*
X214449170Y-62109368D01*
X214438134Y-62127781D01*
X214425346Y-62145024D01*
X214410930Y-62160930D01*
X214395024Y-62175346D01*
X214377781Y-62188134D01*
X214359368Y-62199170D01*
X214339962Y-62208349D01*
X214319750Y-62215581D01*
X214298926Y-62220797D01*
X214277691Y-62223947D01*
X214256250Y-62225000D01*
X213818750Y-62225000D01*
X213797309Y-62223947D01*
X213776074Y-62220797D01*
X213755250Y-62215581D01*
X213735038Y-62208349D01*
X213715632Y-62199170D01*
X213697219Y-62188134D01*
X213679976Y-62175346D01*
X213664070Y-62160930D01*
X213649654Y-62145024D01*
X213636866Y-62127781D01*
X213625830Y-62109368D01*
X213616651Y-62089962D01*
X213609419Y-62069750D01*
X213604203Y-62048926D01*
X213601053Y-62027691D01*
X213600000Y-62006250D01*
X213600000Y-61493750D01*
X213601053Y-61472309D01*
X213604203Y-61451074D01*
X213609419Y-61430250D01*
X213616651Y-61410038D01*
X213625830Y-61390632D01*
X213636866Y-61372219D01*
X213649654Y-61354976D01*
X213664070Y-61339070D01*
X213679976Y-61324654D01*
X213697219Y-61311866D01*
X213715632Y-61300830D01*
X213735038Y-61291651D01*
X213755250Y-61284419D01*
X213776074Y-61279203D01*
X213797309Y-61276053D01*
X213818750Y-61275000D01*
X214256250Y-61275000D01*
X214277691Y-61276053D01*
X214277691Y-61276053D01*
G37*
D14*
G04 #@! TD*
G04 #@! TO.P,R15,1*
G04 #@! TO.N,Net-(J1-Pad15)*
X214037500Y-61750000D03*
D13*
G04 #@! TO.N,Net-(J1-Pad16)*
G04 #@! TO.C,R16*
G36*
X214277691Y-66276053D02*
X214298926Y-66279203D01*
X214319750Y-66284419D01*
X214339962Y-66291651D01*
X214359368Y-66300830D01*
X214377781Y-66311866D01*
X214395024Y-66324654D01*
X214410930Y-66339070D01*
X214425346Y-66354976D01*
X214438134Y-66372219D01*
X214449170Y-66390632D01*
X214458349Y-66410038D01*
X214465581Y-66430250D01*
X214470797Y-66451074D01*
X214473947Y-66472309D01*
X214475000Y-66493750D01*
X214475000Y-67006250D01*
X214473947Y-67027691D01*
X214470797Y-67048926D01*
X214465581Y-67069750D01*
X214458349Y-67089962D01*
X214449170Y-67109368D01*
X214438134Y-67127781D01*
X214425346Y-67145024D01*
X214410930Y-67160930D01*
X214395024Y-67175346D01*
X214377781Y-67188134D01*
X214359368Y-67199170D01*
X214339962Y-67208349D01*
X214319750Y-67215581D01*
X214298926Y-67220797D01*
X214277691Y-67223947D01*
X214256250Y-67225000D01*
X213818750Y-67225000D01*
X213797309Y-67223947D01*
X213776074Y-67220797D01*
X213755250Y-67215581D01*
X213735038Y-67208349D01*
X213715632Y-67199170D01*
X213697219Y-67188134D01*
X213679976Y-67175346D01*
X213664070Y-67160930D01*
X213649654Y-67145024D01*
X213636866Y-67127781D01*
X213625830Y-67109368D01*
X213616651Y-67089962D01*
X213609419Y-67069750D01*
X213604203Y-67048926D01*
X213601053Y-67027691D01*
X213600000Y-67006250D01*
X213600000Y-66493750D01*
X213601053Y-66472309D01*
X213604203Y-66451074D01*
X213609419Y-66430250D01*
X213616651Y-66410038D01*
X213625830Y-66390632D01*
X213636866Y-66372219D01*
X213649654Y-66354976D01*
X213664070Y-66339070D01*
X213679976Y-66324654D01*
X213697219Y-66311866D01*
X213715632Y-66300830D01*
X213735038Y-66291651D01*
X213755250Y-66284419D01*
X213776074Y-66279203D01*
X213797309Y-66276053D01*
X213818750Y-66275000D01*
X214256250Y-66275000D01*
X214277691Y-66276053D01*
X214277691Y-66276053D01*
G37*
D14*
G04 #@! TD*
G04 #@! TO.P,R16,1*
G04 #@! TO.N,Net-(J1-Pad16)*
X214037500Y-66750000D03*
D13*
G04 #@! TO.N,/AUX*
G04 #@! TO.C,R16*
G36*
X212702691Y-66276053D02*
X212723926Y-66279203D01*
X212744750Y-66284419D01*
X212764962Y-66291651D01*
X212784368Y-66300830D01*
X212802781Y-66311866D01*
X212820024Y-66324654D01*
X212835930Y-66339070D01*
X212850346Y-66354976D01*
X212863134Y-66372219D01*
X212874170Y-66390632D01*
X212883349Y-66410038D01*
X212890581Y-66430250D01*
X212895797Y-66451074D01*
X212898947Y-66472309D01*
X212900000Y-66493750D01*
X212900000Y-67006250D01*
X212898947Y-67027691D01*
X212895797Y-67048926D01*
X212890581Y-67069750D01*
X212883349Y-67089962D01*
X212874170Y-67109368D01*
X212863134Y-67127781D01*
X212850346Y-67145024D01*
X212835930Y-67160930D01*
X212820024Y-67175346D01*
X212802781Y-67188134D01*
X212784368Y-67199170D01*
X212764962Y-67208349D01*
X212744750Y-67215581D01*
X212723926Y-67220797D01*
X212702691Y-67223947D01*
X212681250Y-67225000D01*
X212243750Y-67225000D01*
X212222309Y-67223947D01*
X212201074Y-67220797D01*
X212180250Y-67215581D01*
X212160038Y-67208349D01*
X212140632Y-67199170D01*
X212122219Y-67188134D01*
X212104976Y-67175346D01*
X212089070Y-67160930D01*
X212074654Y-67145024D01*
X212061866Y-67127781D01*
X212050830Y-67109368D01*
X212041651Y-67089962D01*
X212034419Y-67069750D01*
X212029203Y-67048926D01*
X212026053Y-67027691D01*
X212025000Y-67006250D01*
X212025000Y-66493750D01*
X212026053Y-66472309D01*
X212029203Y-66451074D01*
X212034419Y-66430250D01*
X212041651Y-66410038D01*
X212050830Y-66390632D01*
X212061866Y-66372219D01*
X212074654Y-66354976D01*
X212089070Y-66339070D01*
X212104976Y-66324654D01*
X212122219Y-66311866D01*
X212140632Y-66300830D01*
X212160038Y-66291651D01*
X212180250Y-66284419D01*
X212201074Y-66279203D01*
X212222309Y-66276053D01*
X212243750Y-66275000D01*
X212681250Y-66275000D01*
X212702691Y-66276053D01*
X212702691Y-66276053D01*
G37*
D14*
G04 #@! TD*
G04 #@! TO.P,R16,2*
G04 #@! TO.N,/AUX*
X212462500Y-66750000D03*
D13*
G04 #@! TO.N,/SPINPWM*
G04 #@! TO.C,R17*
G36*
X212702691Y-71276053D02*
X212723926Y-71279203D01*
X212744750Y-71284419D01*
X212764962Y-71291651D01*
X212784368Y-71300830D01*
X212802781Y-71311866D01*
X212820024Y-71324654D01*
X212835930Y-71339070D01*
X212850346Y-71354976D01*
X212863134Y-71372219D01*
X212874170Y-71390632D01*
X212883349Y-71410038D01*
X212890581Y-71430250D01*
X212895797Y-71451074D01*
X212898947Y-71472309D01*
X212900000Y-71493750D01*
X212900000Y-72006250D01*
X212898947Y-72027691D01*
X212895797Y-72048926D01*
X212890581Y-72069750D01*
X212883349Y-72089962D01*
X212874170Y-72109368D01*
X212863134Y-72127781D01*
X212850346Y-72145024D01*
X212835930Y-72160930D01*
X212820024Y-72175346D01*
X212802781Y-72188134D01*
X212784368Y-72199170D01*
X212764962Y-72208349D01*
X212744750Y-72215581D01*
X212723926Y-72220797D01*
X212702691Y-72223947D01*
X212681250Y-72225000D01*
X212243750Y-72225000D01*
X212222309Y-72223947D01*
X212201074Y-72220797D01*
X212180250Y-72215581D01*
X212160038Y-72208349D01*
X212140632Y-72199170D01*
X212122219Y-72188134D01*
X212104976Y-72175346D01*
X212089070Y-72160930D01*
X212074654Y-72145024D01*
X212061866Y-72127781D01*
X212050830Y-72109368D01*
X212041651Y-72089962D01*
X212034419Y-72069750D01*
X212029203Y-72048926D01*
X212026053Y-72027691D01*
X212025000Y-72006250D01*
X212025000Y-71493750D01*
X212026053Y-71472309D01*
X212029203Y-71451074D01*
X212034419Y-71430250D01*
X212041651Y-71410038D01*
X212050830Y-71390632D01*
X212061866Y-71372219D01*
X212074654Y-71354976D01*
X212089070Y-71339070D01*
X212104976Y-71324654D01*
X212122219Y-71311866D01*
X212140632Y-71300830D01*
X212160038Y-71291651D01*
X212180250Y-71284419D01*
X212201074Y-71279203D01*
X212222309Y-71276053D01*
X212243750Y-71275000D01*
X212681250Y-71275000D01*
X212702691Y-71276053D01*
X212702691Y-71276053D01*
G37*
D14*
G04 #@! TD*
G04 #@! TO.P,R17,2*
G04 #@! TO.N,/SPINPWM*
X212462500Y-71750000D03*
D13*
G04 #@! TO.N,Net-(J1-Pad17)*
G04 #@! TO.C,R17*
G36*
X214277691Y-71276053D02*
X214298926Y-71279203D01*
X214319750Y-71284419D01*
X214339962Y-71291651D01*
X214359368Y-71300830D01*
X214377781Y-71311866D01*
X214395024Y-71324654D01*
X214410930Y-71339070D01*
X214425346Y-71354976D01*
X214438134Y-71372219D01*
X214449170Y-71390632D01*
X214458349Y-71410038D01*
X214465581Y-71430250D01*
X214470797Y-71451074D01*
X214473947Y-71472309D01*
X214475000Y-71493750D01*
X214475000Y-72006250D01*
X214473947Y-72027691D01*
X214470797Y-72048926D01*
X214465581Y-72069750D01*
X214458349Y-72089962D01*
X214449170Y-72109368D01*
X214438134Y-72127781D01*
X214425346Y-72145024D01*
X214410930Y-72160930D01*
X214395024Y-72175346D01*
X214377781Y-72188134D01*
X214359368Y-72199170D01*
X214339962Y-72208349D01*
X214319750Y-72215581D01*
X214298926Y-72220797D01*
X214277691Y-72223947D01*
X214256250Y-72225000D01*
X213818750Y-72225000D01*
X213797309Y-72223947D01*
X213776074Y-72220797D01*
X213755250Y-72215581D01*
X213735038Y-72208349D01*
X213715632Y-72199170D01*
X213697219Y-72188134D01*
X213679976Y-72175346D01*
X213664070Y-72160930D01*
X213649654Y-72145024D01*
X213636866Y-72127781D01*
X213625830Y-72109368D01*
X213616651Y-72089962D01*
X213609419Y-72069750D01*
X213604203Y-72048926D01*
X213601053Y-72027691D01*
X213600000Y-72006250D01*
X213600000Y-71493750D01*
X213601053Y-71472309D01*
X213604203Y-71451074D01*
X213609419Y-71430250D01*
X213616651Y-71410038D01*
X213625830Y-71390632D01*
X213636866Y-71372219D01*
X213649654Y-71354976D01*
X213664070Y-71339070D01*
X213679976Y-71324654D01*
X213697219Y-71311866D01*
X213715632Y-71300830D01*
X213735038Y-71291651D01*
X213755250Y-71284419D01*
X213776074Y-71279203D01*
X213797309Y-71276053D01*
X213818750Y-71275000D01*
X214256250Y-71275000D01*
X214277691Y-71276053D01*
X214277691Y-71276053D01*
G37*
D14*
G04 #@! TD*
G04 #@! TO.P,R17,1*
G04 #@! TO.N,Net-(J1-Pad17)*
X214037500Y-71750000D03*
D15*
G04 #@! TO.P,J1,1*
G04 #@! TO.N,Net-(J1-Pad1)*
X221900000Y-58400000D03*
D16*
G04 #@! TO.P,J1,2*
G04 #@! TO.N,Net-(J1-Pad2)*
X221900000Y-61170000D03*
G04 #@! TO.P,J1,3*
G04 #@! TO.N,Net-(J1-Pad3)*
X221900000Y-63940000D03*
G04 #@! TO.P,J1,4*
G04 #@! TO.N,Net-(J1-Pad4)*
X221900000Y-66710000D03*
G04 #@! TO.P,J1,5*
G04 #@! TO.N,Net-(J1-Pad5)*
X221900000Y-69480000D03*
G04 #@! TO.P,J1,6*
G04 #@! TO.N,Net-(J1-Pad6)*
X221900000Y-72250000D03*
G04 #@! TO.P,J1,7*
G04 #@! TO.N,Net-(J1-Pad7)*
X221900000Y-75020000D03*
G04 #@! TO.P,J1,8*
G04 #@! TO.N,Net-(J1-Pad8)*
X221900000Y-77790000D03*
G04 #@! TO.P,J1,9*
G04 #@! TO.N,Net-(J1-Pad9)*
X221900000Y-80560000D03*
G04 #@! TO.P,J1,10*
G04 #@! TO.N,Net-(J1-Pad10)*
X221900000Y-83330000D03*
G04 #@! TO.P,J1,11*
G04 #@! TO.N,Net-(J1-Pad11)*
X221900000Y-86100000D03*
G04 #@! TO.P,J1,12*
G04 #@! TO.N,Net-(J1-Pad12)*
X221900000Y-88870000D03*
G04 #@! TO.P,J1,13*
G04 #@! TO.N,Net-(J1-Pad13)*
X221900000Y-91640000D03*
G04 #@! TO.P,J1,14*
G04 #@! TO.N,Net-(J1-Pad14)*
X224740000Y-59785000D03*
G04 #@! TO.P,J1,15*
G04 #@! TO.N,Net-(J1-Pad15)*
X224740000Y-62555000D03*
G04 #@! TO.P,J1,16*
G04 #@! TO.N,Net-(J1-Pad16)*
X224740000Y-65325000D03*
G04 #@! TO.P,J1,17*
G04 #@! TO.N,Net-(J1-Pad17)*
X224740000Y-68095000D03*
G04 #@! TO.P,J1,18*
G04 #@! TO.N,GND*
X224740000Y-70865000D03*
G04 #@! TO.P,J1,19*
X224740000Y-73635000D03*
G04 #@! TO.P,J1,20*
X224740000Y-76405000D03*
G04 #@! TO.P,J1,21*
X224740000Y-79175000D03*
G04 #@! TO.P,J1,22*
X224740000Y-81945000D03*
G04 #@! TO.P,J1,23*
X224740000Y-84715000D03*
G04 #@! TO.P,J1,24*
X224740000Y-87485000D03*
G04 #@! TO.P,J1,25*
X224740000Y-90255000D03*
D17*
G04 #@! TO.P,J1,0*
G04 #@! TO.N,N/C*
X222200000Y-98570000D03*
X222200000Y-51470000D03*
G04 #@! TD*
D18*
G04 #@! TO.P,J3,1*
G04 #@! TO.N,/SPINEN*
X210000000Y-54000000D03*
D19*
G04 #@! TO.P,J3,2*
G04 #@! TO.N,/SPINDIR*
X210000000Y-56540000D03*
G04 #@! TO.P,J3,3*
G04 #@! TO.N,/XSTEP*
X210000000Y-59080000D03*
G04 #@! TO.P,J3,4*
G04 #@! TO.N,/PROBE*
X210000000Y-61620000D03*
G04 #@! TO.P,J3,5*
G04 #@! TO.N,/XDIR*
X210000000Y-64160000D03*
G04 #@! TO.P,J3,6*
G04 #@! TO.N,/AUX*
X210000000Y-66700000D03*
G04 #@! TO.P,J3,7*
G04 #@! TO.N,/YSTEP*
X210000000Y-69240000D03*
G04 #@! TO.P,J3,8*
G04 #@! TO.N,/SPINPWM*
X210000000Y-71780000D03*
G04 #@! TO.P,J3,9*
G04 #@! TO.N,/YDIR*
X210000000Y-74320000D03*
G04 #@! TO.P,J3,10*
G04 #@! TO.N,/ZSTEP*
X210000000Y-76860000D03*
G04 #@! TO.P,J3,11*
G04 #@! TO.N,/ZDIR*
X210000000Y-79400000D03*
G04 #@! TO.P,J3,12*
G04 #@! TO.N,/ASTEP*
X210000000Y-81940000D03*
G04 #@! TO.P,J3,13*
G04 #@! TO.N,/ADIR*
X210000000Y-84480000D03*
G04 #@! TO.P,J3,14*
G04 #@! TO.N,/XLIMIT*
X210000000Y-87020000D03*
G04 #@! TO.P,J3,15*
G04 #@! TO.N,/YLIMIT*
X210000000Y-89560000D03*
G04 #@! TO.P,J3,16*
G04 #@! TO.N,/ZLIMIT*
X210000000Y-92100000D03*
G04 #@! TO.P,J3,17*
G04 #@! TO.N,/ESTOP*
X210000000Y-94640000D03*
G04 #@! TD*
G04 #@! TO.P,J4,17*
G04 #@! TO.N,Net-(J1-Pad13)*
X216535000Y-94615000D03*
G04 #@! TO.P,J4,16*
G04 #@! TO.N,Net-(J1-Pad12)*
X216535000Y-92075000D03*
G04 #@! TO.P,J4,15*
G04 #@! TO.N,Net-(J1-Pad11)*
X216535000Y-89535000D03*
G04 #@! TO.P,J4,14*
G04 #@! TO.N,Net-(J1-Pad10)*
X216535000Y-86995000D03*
G04 #@! TO.P,J4,13*
G04 #@! TO.N,Net-(J1-Pad9)*
X216535000Y-84455000D03*
G04 #@! TO.P,J4,12*
G04 #@! TO.N,Net-(J1-Pad8)*
X216535000Y-81915000D03*
G04 #@! TO.P,J4,11*
G04 #@! TO.N,Net-(J1-Pad7)*
X216535000Y-79375000D03*
G04 #@! TO.P,J4,10*
G04 #@! TO.N,Net-(J1-Pad6)*
X216535000Y-76835000D03*
G04 #@! TO.P,J4,9*
G04 #@! TO.N,Net-(J1-Pad5)*
X216535000Y-74295000D03*
G04 #@! TO.P,J4,8*
G04 #@! TO.N,Net-(J1-Pad17)*
X216535000Y-71755000D03*
G04 #@! TO.P,J4,7*
G04 #@! TO.N,Net-(J1-Pad4)*
X216535000Y-69215000D03*
G04 #@! TO.P,J4,6*
G04 #@! TO.N,Net-(J1-Pad16)*
X216535000Y-66675000D03*
G04 #@! TO.P,J4,5*
G04 #@! TO.N,Net-(J1-Pad3)*
X216535000Y-64135000D03*
G04 #@! TO.P,J4,4*
G04 #@! TO.N,Net-(J1-Pad15)*
X216535000Y-61595000D03*
G04 #@! TO.P,J4,3*
G04 #@! TO.N,Net-(J1-Pad2)*
X216535000Y-59055000D03*
G04 #@! TO.P,J4,2*
G04 #@! TO.N,Net-(J1-Pad14)*
X216535000Y-56515000D03*
D18*
G04 #@! TO.P,J4,1*
G04 #@! TO.N,Net-(J1-Pad1)*
X216535000Y-53975000D03*
G04 #@! TD*
G04 #@! TO.P,J2,1*
G04 #@! TO.N,+3V3*
X203835000Y-50800000D03*
D19*
G04 #@! TO.P,J2,2*
G04 #@! TO.N,/VBAT*
X201295000Y-50800000D03*
G04 #@! TO.P,J2,3*
G04 #@! TO.N,GND*
X203835000Y-53340000D03*
G04 #@! TO.P,J2,4*
G04 #@! TO.N,/PC13*
X201295000Y-53340000D03*
G04 #@! TO.P,J2,5*
G04 #@! TO.N,+5V*
X203835000Y-55880000D03*
G04 #@! TO.P,J2,6*
G04 #@! TO.N,/PC14*
X201295000Y-55880000D03*
G04 #@! TO.P,J2,7*
G04 #@! TO.N,/AUX*
X203835000Y-58420000D03*
G04 #@! TO.P,J2,8*
G04 #@! TO.N,/PC15*
X201295000Y-58420000D03*
G04 #@! TO.P,J2,9*
G04 #@! TO.N,/ESTOP*
X203835000Y-60960000D03*
G04 #@! TO.P,J2,10*
G04 #@! TO.N,/XSTEP*
X201295000Y-60960000D03*
G04 #@! TO.P,J2,11*
G04 #@! TO.N,/TX1*
X203835000Y-63500000D03*
G04 #@! TO.P,J2,12*
G04 #@! TO.N,/XDIR*
X201295000Y-63500000D03*
G04 #@! TO.P,J2,13*
G04 #@! TO.N,/RX1*
X203835000Y-66040000D03*
G04 #@! TO.P,J2,14*
G04 #@! TO.N,/YSTEP*
X201295000Y-66040000D03*
G04 #@! TO.P,J2,15*
G04 #@! TO.N,/RESET*
X203835000Y-68580000D03*
G04 #@! TO.P,J2,16*
G04 #@! TO.N,/YDIR*
X201295000Y-68580000D03*
G04 #@! TO.P,J2,17*
G04 #@! TO.N,/MIST*
X203835000Y-71120000D03*
G04 #@! TO.P,J2,18*
G04 #@! TO.N,/ZSTEP*
X201295000Y-71120000D03*
G04 #@! TO.P,J2,19*
G04 #@! TO.N,/FLOOD*
X203835000Y-73660000D03*
G04 #@! TO.P,J2,20*
G04 #@! TO.N,/ZDIR*
X201295000Y-73660000D03*
G04 #@! TO.P,J2,21*
G04 #@! TO.N,/RPMCNT*
X203835000Y-76200000D03*
G04 #@! TO.P,J2,22*
G04 #@! TO.N,/ASTEP*
X201295000Y-76200000D03*
G04 #@! TO.P,J2,23*
G04 #@! TO.N,/USB-*
X203835000Y-78740000D03*
G04 #@! TO.P,J2,24*
G04 #@! TO.N,/ADIR*
X201295000Y-78740000D03*
G04 #@! TO.P,J2,25*
G04 #@! TO.N,/USB+*
X203835000Y-81280000D03*
G04 #@! TO.P,J2,26*
G04 #@! TO.N,/SPINDIR*
X201295000Y-81280000D03*
G04 #@! TO.P,J2,27*
G04 #@! TO.N,/BDIR*
X203835000Y-83820000D03*
G04 #@! TO.P,J2,28*
G04 #@! TO.N,/SPINEN*
X201295000Y-83820000D03*
G04 #@! TO.P,J2,29*
G04 #@! TO.N,/BSTEP*
X203835000Y-86360000D03*
G04 #@! TO.P,J2,30*
G04 #@! TO.N,/XLIMIT*
X201295000Y-86360000D03*
G04 #@! TO.P,J2,31*
G04 #@! TO.N,/SPINPWM*
X203835000Y-88900000D03*
G04 #@! TO.P,J2,32*
G04 #@! TO.N,/YLIMIT*
X201295000Y-88900000D03*
G04 #@! TO.P,J2,33*
G04 #@! TO.N,/CYCLESTART*
X203835000Y-91440000D03*
G04 #@! TO.P,J2,34*
G04 #@! TO.N,/CHIP_RST*
X201295000Y-91440000D03*
G04 #@! TO.P,J2,35*
G04 #@! TO.N,/FEEDHOLD*
X203835000Y-93980000D03*
G04 #@! TO.P,J2,36*
G04 #@! TO.N,+3V3*
X201295000Y-93980000D03*
G04 #@! TO.P,J2,37*
G04 #@! TO.N,/PROBE*
X203835000Y-96520000D03*
G04 #@! TO.P,J2,38*
G04 #@! TO.N,GND*
X201295000Y-96520000D03*
G04 #@! TO.P,J2,39*
G04 #@! TO.N,/ZLIMIT*
X203835000Y-99060000D03*
G04 #@! TO.P,J2,40*
G04 #@! TO.N,GND*
X201295000Y-99060000D03*
G04 #@! TD*
D20*
G04 #@! TO.N,/SPINEN*
X205100000Y-57100000D03*
G04 #@! TO.N,/SPINDIR*
X204800000Y-82600000D03*
X206130004Y-58351991D03*
G04 #@! TO.N,/XSTEP*
X205600000Y-59200000D03*
G04 #@! TO.N,/XDIR*
X204700000Y-64800000D03*
G04 #@! TO.N,/AUX*
X208200000Y-63900000D03*
G04 #@! TO.N,/YSTEP*
X204800000Y-67400000D03*
G04 #@! TO.N,/SPINPWM*
X206565686Y-70134314D03*
G04 #@! TO.N,/YDIR*
X205200000Y-69900000D03*
G04 #@! TO.N,/ZSTEP*
X205000000Y-72400000D03*
G04 #@! TO.N,/ZDIR*
X205100000Y-75000000D03*
G04 #@! TO.N,/ASTEP*
X204800000Y-77500000D03*
G04 #@! TO.N,/ADIR*
X204800000Y-80000000D03*
G04 #@! TO.N,/XLIMIT*
X204900000Y-87600000D03*
G04 #@! TO.N,/YLIMIT*
X204800000Y-90300000D03*
G04 #@! TO.N,/ESTOP*
X206134314Y-62265686D03*
X207500000Y-60900000D03*
G04 #@! TD*
D21*
G04 #@! TO.N,Net-(J1-Pad1)*
X216510000Y-54000000D02*
X216535000Y-53975000D01*
X214037500Y-54000000D02*
X216510000Y-54000000D01*
G04 #@! TO.N,/SPINEN*
X210000000Y-54000000D02*
X212462500Y-54000000D01*
X205030001Y-57169999D02*
X205100000Y-57100000D01*
X200694999Y-57169999D02*
X205030001Y-57169999D01*
X198899990Y-58965008D02*
X200694999Y-57169999D01*
X201295000Y-83820000D02*
X198899990Y-81424990D01*
X198899990Y-81424990D02*
X198899990Y-58965008D01*
G04 #@! TO.N,/SPINDIR*
X204730001Y-82530001D02*
X204800000Y-82600000D01*
X201295000Y-81280000D02*
X202545001Y-82530001D01*
X202545001Y-82530001D02*
X204730001Y-82530001D01*
X212172500Y-56540000D02*
X212212500Y-56500000D01*
X210000000Y-56540000D02*
X212172500Y-56540000D01*
X199500000Y-79485000D02*
X199500000Y-63444998D01*
X199500000Y-63444998D02*
X200734997Y-62210001D01*
X200734997Y-62210001D02*
X204435001Y-62210001D01*
X206530003Y-60114999D02*
X206530003Y-58751990D01*
X204435001Y-62210001D02*
X206530003Y-60114999D01*
X206530003Y-58751990D02*
X206130004Y-58351991D01*
X201295000Y-81280000D02*
X199500000Y-79485000D01*
G04 #@! TO.N,Net-(J1-Pad14)*
X213802500Y-56515000D02*
X213787500Y-56500000D01*
X216535000Y-56515000D02*
X213802500Y-56515000D01*
G04 #@! TO.N,Net-(J1-Pad2)*
X216480000Y-59000000D02*
X216535000Y-59055000D01*
X214037500Y-59000000D02*
X216480000Y-59000000D01*
G04 #@! TO.N,/XSTEP*
X212382500Y-59080000D02*
X212462500Y-59000000D01*
X210000000Y-59080000D02*
X212382500Y-59080000D01*
X201295000Y-60960000D02*
X202555001Y-59699999D01*
X205200001Y-59599999D02*
X205600000Y-59200000D01*
X205100001Y-59699999D02*
X205200001Y-59599999D01*
X202555001Y-59699999D02*
X205100001Y-59699999D01*
G04 #@! TO.N,/PROBE*
X212332500Y-61620000D02*
X212462500Y-61750000D01*
X210000000Y-61620000D02*
X212332500Y-61620000D01*
G04 #@! TO.N,Net-(J1-Pad15)*
X216380000Y-61750000D02*
X216535000Y-61595000D01*
X214037500Y-61750000D02*
X216380000Y-61750000D01*
G04 #@! TO.N,Net-(J1-Pad3)*
X216420000Y-64250000D02*
X216535000Y-64135000D01*
X213787500Y-64250000D02*
X216420000Y-64250000D01*
G04 #@! TO.N,/XDIR*
X204650001Y-64750001D02*
X204700000Y-64800000D01*
X201295000Y-63500000D02*
X202545001Y-64750001D01*
X202545001Y-64750001D02*
X204650001Y-64750001D01*
X212122500Y-64160000D02*
X212212500Y-64250000D01*
X210000000Y-64160000D02*
X212122500Y-64160000D01*
G04 #@! TO.N,/AUX*
X212412500Y-66700000D02*
X212462500Y-66750000D01*
X210000000Y-66700000D02*
X212412500Y-66700000D01*
X208200000Y-64900000D02*
X210000000Y-66700000D01*
X208200000Y-63900000D02*
X208200000Y-64900000D01*
G04 #@! TO.N,Net-(J1-Pad16)*
X216460000Y-66750000D02*
X216535000Y-66675000D01*
X214037500Y-66750000D02*
X216460000Y-66750000D01*
G04 #@! TO.N,Net-(J1-Pad4)*
X216500000Y-69250000D02*
X216535000Y-69215000D01*
X214037500Y-69250000D02*
X216500000Y-69250000D01*
G04 #@! TO.N,/YSTEP*
X204690001Y-67290001D02*
X204800000Y-67400000D01*
X201295000Y-66040000D02*
X202545001Y-67290001D01*
X202545001Y-67290001D02*
X204690001Y-67290001D01*
X212452500Y-69240000D02*
X212462500Y-69250000D01*
X210000000Y-69240000D02*
X212452500Y-69240000D01*
G04 #@! TO.N,Net-(J1-Pad17)*
X216530000Y-71750000D02*
X216535000Y-71755000D01*
X214037500Y-71750000D02*
X216530000Y-71750000D01*
G04 #@! TO.N,/SPINPWM*
X212432500Y-71780000D02*
X212462500Y-71750000D01*
X210000000Y-71780000D02*
X212432500Y-71780000D01*
X205037081Y-88900000D02*
X205900000Y-88037081D01*
X203835000Y-88900000D02*
X205037081Y-88900000D01*
X205900000Y-88037081D02*
X205900000Y-70800000D01*
X205900000Y-70800000D02*
X206565686Y-70134314D01*
G04 #@! TO.N,/YDIR*
X205130001Y-69830001D02*
X205200000Y-69900000D01*
X201295000Y-68580000D02*
X202545001Y-69830001D01*
X202545001Y-69830001D02*
X205130001Y-69830001D01*
X212392500Y-74320000D02*
X212462500Y-74250000D01*
X210000000Y-74320000D02*
X212392500Y-74320000D01*
G04 #@! TO.N,Net-(J1-Pad5)*
X216490000Y-74250000D02*
X216535000Y-74295000D01*
X214037500Y-74250000D02*
X216490000Y-74250000D01*
G04 #@! TO.N,Net-(J1-Pad6)*
X216450000Y-76750000D02*
X216535000Y-76835000D01*
X214037500Y-76750000D02*
X216450000Y-76750000D01*
G04 #@! TO.N,/ZSTEP*
X201295000Y-71120000D02*
X202575000Y-72400000D01*
X202575000Y-72400000D02*
X205000000Y-72400000D01*
X212352500Y-76860000D02*
X212462500Y-76750000D01*
X210000000Y-76860000D02*
X212352500Y-76860000D01*
G04 #@! TO.N,/ZDIR*
X205010001Y-74910001D02*
X205100000Y-75000000D01*
X201295000Y-73660000D02*
X202545001Y-74910001D01*
X202545001Y-74910001D02*
X205010001Y-74910001D01*
X212362500Y-79400000D02*
X212462500Y-79500000D01*
X210000000Y-79400000D02*
X212362500Y-79400000D01*
G04 #@! TO.N,Net-(J1-Pad7)*
X216410000Y-79500000D02*
X216535000Y-79375000D01*
X214037500Y-79500000D02*
X216410000Y-79500000D01*
G04 #@! TO.N,Net-(J1-Pad8)*
X216450000Y-82000000D02*
X216535000Y-81915000D01*
X214037500Y-82000000D02*
X216450000Y-82000000D01*
G04 #@! TO.N,/ASTEP*
X204750001Y-77450001D02*
X204800000Y-77500000D01*
X201295000Y-76200000D02*
X202545001Y-77450001D01*
X202545001Y-77450001D02*
X204750001Y-77450001D01*
X212402500Y-81940000D02*
X212462500Y-82000000D01*
X210000000Y-81940000D02*
X212402500Y-81940000D01*
G04 #@! TO.N,/ADIR*
X201295000Y-78740000D02*
X202555000Y-80000000D01*
X202555000Y-80000000D02*
X204800000Y-80000000D01*
X212442500Y-84480000D02*
X212462500Y-84500000D01*
X210000000Y-84480000D02*
X212442500Y-84480000D01*
G04 #@! TO.N,Net-(J1-Pad9)*
X216490000Y-84500000D02*
X216535000Y-84455000D01*
X214037500Y-84500000D02*
X216490000Y-84500000D01*
G04 #@! TO.N,Net-(J1-Pad10)*
X216530000Y-87000000D02*
X216535000Y-86995000D01*
X214037500Y-87000000D02*
X216530000Y-87000000D01*
G04 #@! TO.N,/XLIMIT*
X204889999Y-87610001D02*
X204900000Y-87600000D01*
X201295000Y-86360000D02*
X202545001Y-87610001D01*
X202545001Y-87610001D02*
X204889999Y-87610001D01*
X212442500Y-87020000D02*
X212462500Y-87000000D01*
X210000000Y-87020000D02*
X212442500Y-87020000D01*
G04 #@! TO.N,/YLIMIT*
X204650001Y-90150001D02*
X204800000Y-90300000D01*
X201295000Y-88900000D02*
X202545001Y-90150001D01*
X202545001Y-90150001D02*
X204650001Y-90150001D01*
X212272500Y-89560000D02*
X212462500Y-89750000D01*
X210000000Y-89560000D02*
X212272500Y-89560000D01*
G04 #@! TO.N,Net-(J1-Pad11)*
X216320000Y-89750000D02*
X216535000Y-89535000D01*
X214037500Y-89750000D02*
X216320000Y-89750000D01*
G04 #@! TO.N,Net-(J1-Pad12)*
X216360000Y-92250000D02*
X216535000Y-92075000D01*
X214037500Y-92250000D02*
X216360000Y-92250000D01*
G04 #@! TO.N,/ZLIMIT*
X212312500Y-92100000D02*
X212462500Y-92250000D01*
X210000000Y-92100000D02*
X212312500Y-92100000D01*
G04 #@! TO.N,/ESTOP*
X212322500Y-94640000D02*
X212462500Y-94500000D01*
X210000000Y-94640000D02*
X212322500Y-94640000D01*
X206134314Y-62265686D02*
X207500000Y-60900000D01*
G04 #@! TO.N,Net-(J1-Pad13)*
X216420000Y-94500000D02*
X216535000Y-94615000D01*
X214037500Y-94500000D02*
X216420000Y-94500000D01*
G04 #@! TD*
D22*
G04 #@! TO.N,GND*
G36*
X227943752Y-48271701D02*
X228359620Y-48436355D01*
X228721476Y-48699259D01*
X229006581Y-49043891D01*
X229197024Y-49448604D01*
X229287172Y-49921175D01*
X229290000Y-50011163D01*
X229290001Y-97430070D01*
X229290000Y-97430075D01*
X229290001Y-99955320D01*
X229228299Y-100443751D01*
X229063646Y-100859618D01*
X228800741Y-101221477D01*
X228456105Y-101506583D01*
X228051395Y-101697024D01*
X227578825Y-101787172D01*
X227488837Y-101790000D01*
X176210000Y-101790000D01*
X176210000Y-99368226D01*
X177988642Y-99368226D01*
X178010473Y-99465357D01*
X178294127Y-99979068D01*
X178752778Y-100345125D01*
X179316600Y-100507800D01*
X179578000Y-100507800D01*
X179578000Y-99136200D01*
X179832000Y-99136200D01*
X179832000Y-100507800D01*
X180093400Y-100507800D01*
X180657222Y-100345125D01*
X181115873Y-99979068D01*
X181399527Y-99465357D01*
X181421358Y-99368226D01*
X181300217Y-99136200D01*
X179832000Y-99136200D01*
X179578000Y-99136200D01*
X178109783Y-99136200D01*
X177988642Y-99368226D01*
X176210000Y-99368226D01*
X176210000Y-96828226D01*
X177988642Y-96828226D01*
X178010473Y-96925357D01*
X178294127Y-97439068D01*
X178670177Y-97739200D01*
X178294127Y-98039332D01*
X178010473Y-98553043D01*
X177988642Y-98650174D01*
X178109783Y-98882200D01*
X179578000Y-98882200D01*
X179578000Y-96596200D01*
X179832000Y-96596200D01*
X179832000Y-98882200D01*
X181300217Y-98882200D01*
X181421358Y-98650174D01*
X181399527Y-98553043D01*
X181115873Y-98039332D01*
X180739823Y-97739200D01*
X181115873Y-97439068D01*
X181399527Y-96925357D01*
X181421358Y-96828226D01*
X181300217Y-96596200D01*
X179832000Y-96596200D01*
X179578000Y-96596200D01*
X178109783Y-96596200D01*
X177988642Y-96828226D01*
X176210000Y-96828226D01*
X176210000Y-53289200D01*
X177915641Y-53289200D01*
X178031950Y-53873925D01*
X178363170Y-54369630D01*
X178646881Y-54559200D01*
X178363170Y-54748770D01*
X178031950Y-55244475D01*
X177915641Y-55829200D01*
X178031950Y-56413925D01*
X178363170Y-56909630D01*
X178646881Y-57099200D01*
X178363170Y-57288770D01*
X178031950Y-57784475D01*
X177915641Y-58369200D01*
X178031950Y-58953925D01*
X178363170Y-59449630D01*
X178646881Y-59639200D01*
X178363170Y-59828770D01*
X178031950Y-60324475D01*
X177915641Y-60909200D01*
X178031950Y-61493925D01*
X178363170Y-61989630D01*
X178646881Y-62179200D01*
X178363170Y-62368770D01*
X178031950Y-62864475D01*
X177915641Y-63449200D01*
X178031950Y-64033925D01*
X178363170Y-64529630D01*
X178646881Y-64719200D01*
X178363170Y-64908770D01*
X178031950Y-65404475D01*
X177915641Y-65989200D01*
X178031950Y-66573925D01*
X178363170Y-67069630D01*
X178646881Y-67259200D01*
X178363170Y-67448770D01*
X178031950Y-67944475D01*
X177915641Y-68529200D01*
X178031950Y-69113925D01*
X178363170Y-69609630D01*
X178646881Y-69799200D01*
X178363170Y-69988770D01*
X178031950Y-70484475D01*
X177915641Y-71069200D01*
X178031950Y-71653925D01*
X178363170Y-72149630D01*
X178646881Y-72339200D01*
X178363170Y-72528770D01*
X178031950Y-73024475D01*
X177915641Y-73609200D01*
X178031950Y-74193925D01*
X178363170Y-74689630D01*
X178646881Y-74879200D01*
X178363170Y-75068770D01*
X178031950Y-75564475D01*
X177915641Y-76149200D01*
X178031950Y-76733925D01*
X178363170Y-77229630D01*
X178646881Y-77419200D01*
X178363170Y-77608770D01*
X178031950Y-78104475D01*
X177915641Y-78689200D01*
X178031950Y-79273925D01*
X178363170Y-79769630D01*
X178646881Y-79959200D01*
X178363170Y-80148770D01*
X178031950Y-80644475D01*
X177915641Y-81229200D01*
X178031950Y-81813925D01*
X178363170Y-82309630D01*
X178646881Y-82499200D01*
X178363170Y-82688770D01*
X178031950Y-83184475D01*
X177915641Y-83769200D01*
X178031950Y-84353925D01*
X178363170Y-84849630D01*
X178646881Y-85039200D01*
X178363170Y-85228770D01*
X178031950Y-85724475D01*
X177915641Y-86309200D01*
X178031950Y-86893925D01*
X178363170Y-87389630D01*
X178646881Y-87579200D01*
X178363170Y-87768770D01*
X178031950Y-88264475D01*
X177915641Y-88849200D01*
X178031950Y-89433925D01*
X178363170Y-89929630D01*
X178646881Y-90119200D01*
X178363170Y-90308770D01*
X178031950Y-90804475D01*
X177915641Y-91389200D01*
X178031950Y-91973925D01*
X178363170Y-92469630D01*
X178646881Y-92659200D01*
X178363170Y-92848770D01*
X178031950Y-93344475D01*
X177915641Y-93929200D01*
X178031950Y-94513925D01*
X178363170Y-95009630D01*
X178659561Y-95207673D01*
X178294127Y-95499332D01*
X178010473Y-96013043D01*
X177988642Y-96110174D01*
X178109783Y-96342200D01*
X179578000Y-96342200D01*
X179578000Y-96322200D01*
X179832000Y-96322200D01*
X179832000Y-96342200D01*
X181300217Y-96342200D01*
X181421358Y-96110174D01*
X181399527Y-96013043D01*
X181115873Y-95499332D01*
X180750439Y-95207673D01*
X181046830Y-95009630D01*
X181378050Y-94513925D01*
X181494359Y-93929200D01*
X181378050Y-93344475D01*
X181046830Y-92848770D01*
X180763119Y-92659200D01*
X181046830Y-92469630D01*
X181378050Y-91973925D01*
X181494359Y-91389200D01*
X181378050Y-90804475D01*
X181046830Y-90308770D01*
X180763119Y-90119200D01*
X181046830Y-89929630D01*
X181378050Y-89433925D01*
X181494359Y-88849200D01*
X181378050Y-88264475D01*
X181046830Y-87768770D01*
X180763119Y-87579200D01*
X181046830Y-87389630D01*
X181378050Y-86893925D01*
X181494359Y-86309200D01*
X181378050Y-85724475D01*
X181046830Y-85228770D01*
X180763119Y-85039200D01*
X181046830Y-84849630D01*
X181378050Y-84353925D01*
X181494359Y-83769200D01*
X181378050Y-83184475D01*
X181046830Y-82688770D01*
X180763119Y-82499200D01*
X181046830Y-82309630D01*
X181378050Y-81813925D01*
X181494359Y-81229200D01*
X181378050Y-80644475D01*
X181046830Y-80148770D01*
X180763119Y-79959200D01*
X181046830Y-79769630D01*
X181378050Y-79273925D01*
X181494359Y-78689200D01*
X181378050Y-78104475D01*
X181046830Y-77608770D01*
X180763119Y-77419200D01*
X181046830Y-77229630D01*
X181378050Y-76733925D01*
X181494359Y-76149200D01*
X181378050Y-75564475D01*
X181046830Y-75068770D01*
X180763119Y-74879200D01*
X181046830Y-74689630D01*
X181378050Y-74193925D01*
X181494359Y-73609200D01*
X181378050Y-73024475D01*
X181046830Y-72528770D01*
X180763119Y-72339200D01*
X181046830Y-72149630D01*
X181378050Y-71653925D01*
X181494359Y-71069200D01*
X181378050Y-70484475D01*
X181046830Y-69988770D01*
X180763119Y-69799200D01*
X181046830Y-69609630D01*
X181378050Y-69113925D01*
X181494359Y-68529200D01*
X181378050Y-67944475D01*
X181046830Y-67448770D01*
X180763119Y-67259200D01*
X181046830Y-67069630D01*
X181378050Y-66573925D01*
X181494359Y-65989200D01*
X181378050Y-65404475D01*
X181046830Y-64908770D01*
X180763119Y-64719200D01*
X181046830Y-64529630D01*
X181378050Y-64033925D01*
X181494359Y-63449200D01*
X181378050Y-62864475D01*
X181046830Y-62368770D01*
X180763119Y-62179200D01*
X181046830Y-61989630D01*
X181378050Y-61493925D01*
X181494359Y-60909200D01*
X181378050Y-60324475D01*
X181046830Y-59828770D01*
X180763119Y-59639200D01*
X181046830Y-59449630D01*
X181378050Y-58953925D01*
X181494359Y-58369200D01*
X181378050Y-57784475D01*
X181046830Y-57288770D01*
X180763119Y-57099200D01*
X181046830Y-56909630D01*
X181378050Y-56413925D01*
X181494359Y-55829200D01*
X181378050Y-55244475D01*
X181046830Y-54748770D01*
X180763119Y-54559200D01*
X184537041Y-54559200D01*
X184653350Y-55143925D01*
X184984570Y-55639630D01*
X185480275Y-55970850D01*
X185917402Y-56057800D01*
X186212598Y-56057800D01*
X186649725Y-55970850D01*
X187145430Y-55639630D01*
X187335000Y-55355919D01*
X187524570Y-55639630D01*
X188020275Y-55970850D01*
X188457402Y-56057800D01*
X188752598Y-56057800D01*
X189189725Y-55970850D01*
X189401718Y-55829200D01*
X193155641Y-55829200D01*
X193271950Y-56413925D01*
X193603170Y-56909630D01*
X193886881Y-57099200D01*
X193603170Y-57288770D01*
X193271950Y-57784475D01*
X193155641Y-58369200D01*
X193271950Y-58953925D01*
X193603170Y-59449630D01*
X193886881Y-59639200D01*
X193603170Y-59828770D01*
X193271950Y-60324475D01*
X193155641Y-60909200D01*
X193271950Y-61493925D01*
X193603170Y-61989630D01*
X193886881Y-62179200D01*
X193603170Y-62368770D01*
X193271950Y-62864475D01*
X193155641Y-63449200D01*
X193271950Y-64033925D01*
X193603170Y-64529630D01*
X193886881Y-64719200D01*
X193603170Y-64908770D01*
X193271950Y-65404475D01*
X193155641Y-65989200D01*
X193271950Y-66573925D01*
X193603170Y-67069630D01*
X193886881Y-67259200D01*
X193603170Y-67448770D01*
X193271950Y-67944475D01*
X193155641Y-68529200D01*
X193271950Y-69113925D01*
X193603170Y-69609630D01*
X193886881Y-69799200D01*
X193603170Y-69988770D01*
X193271950Y-70484475D01*
X193155641Y-71069200D01*
X193271950Y-71653925D01*
X193603170Y-72149630D01*
X193886881Y-72339200D01*
X193603170Y-72528770D01*
X193271950Y-73024475D01*
X193155641Y-73609200D01*
X193271950Y-74193925D01*
X193603170Y-74689630D01*
X193886881Y-74879200D01*
X193603170Y-75068770D01*
X193271950Y-75564475D01*
X193155641Y-76149200D01*
X193271950Y-76733925D01*
X193603170Y-77229630D01*
X193886881Y-77419200D01*
X193603170Y-77608770D01*
X193271950Y-78104475D01*
X193155641Y-78689200D01*
X193271950Y-79273925D01*
X193603170Y-79769630D01*
X193886881Y-79959200D01*
X193603170Y-80148770D01*
X193271950Y-80644475D01*
X193155641Y-81229200D01*
X193271950Y-81813925D01*
X193603170Y-82309630D01*
X193886881Y-82499200D01*
X193603170Y-82688770D01*
X193271950Y-83184475D01*
X193155641Y-83769200D01*
X193271950Y-84353925D01*
X193603170Y-84849630D01*
X193886881Y-85039200D01*
X193603170Y-85228770D01*
X193271950Y-85724475D01*
X193155641Y-86309200D01*
X193271950Y-86893925D01*
X193603170Y-87389630D01*
X193886881Y-87579200D01*
X193603170Y-87768770D01*
X193271950Y-88264475D01*
X193155641Y-88849200D01*
X193271950Y-89433925D01*
X193603170Y-89929630D01*
X193886881Y-90119200D01*
X193603170Y-90308770D01*
X193271950Y-90804475D01*
X193155641Y-91389200D01*
X193271950Y-91973925D01*
X193603170Y-92469630D01*
X193886881Y-92659200D01*
X193603170Y-92848770D01*
X193271950Y-93344475D01*
X193155641Y-93929200D01*
X193271950Y-94513925D01*
X193603170Y-95009630D01*
X193886881Y-95199200D01*
X193603170Y-95388770D01*
X193271950Y-95884475D01*
X193155641Y-96469200D01*
X193271950Y-97053925D01*
X193603170Y-97549630D01*
X193886881Y-97739200D01*
X193603170Y-97928770D01*
X193271950Y-98424475D01*
X193155641Y-99009200D01*
X193271950Y-99593925D01*
X193603170Y-100089630D01*
X194098875Y-100420850D01*
X194536002Y-100507800D01*
X195353998Y-100507800D01*
X195791125Y-100420850D01*
X196286830Y-100089630D01*
X196618050Y-99593925D01*
X196653264Y-99416890D01*
X199853524Y-99416890D01*
X200023355Y-99826924D01*
X200413642Y-100255183D01*
X200938108Y-100501486D01*
X201168000Y-100380819D01*
X201168000Y-99187000D01*
X199974845Y-99187000D01*
X199853524Y-99416890D01*
X196653264Y-99416890D01*
X196734359Y-99009200D01*
X196618050Y-98424475D01*
X196286830Y-97928770D01*
X196003119Y-97739200D01*
X196286830Y-97549630D01*
X196618050Y-97053925D01*
X196653264Y-96876890D01*
X199853524Y-96876890D01*
X200023355Y-97286924D01*
X200413642Y-97715183D01*
X200572954Y-97790000D01*
X200413642Y-97864817D01*
X200023355Y-98293076D01*
X199853524Y-98703110D01*
X199974845Y-98933000D01*
X201168000Y-98933000D01*
X201168000Y-96647000D01*
X199974845Y-96647000D01*
X199853524Y-96876890D01*
X196653264Y-96876890D01*
X196734359Y-96469200D01*
X196618050Y-95884475D01*
X196286830Y-95388770D01*
X196003119Y-95199200D01*
X196286830Y-95009630D01*
X196618050Y-94513925D01*
X196734359Y-93929200D01*
X196618050Y-93344475D01*
X196286830Y-92848770D01*
X196003119Y-92659200D01*
X196286830Y-92469630D01*
X196618050Y-91973925D01*
X196734359Y-91389200D01*
X196618050Y-90804475D01*
X196286830Y-90308770D01*
X196003119Y-90119200D01*
X196286830Y-89929630D01*
X196618050Y-89433925D01*
X196734359Y-88849200D01*
X196618050Y-88264475D01*
X196286830Y-87768770D01*
X196003119Y-87579200D01*
X196286830Y-87389630D01*
X196618050Y-86893925D01*
X196734359Y-86309200D01*
X196618050Y-85724475D01*
X196286830Y-85228770D01*
X196003119Y-85039200D01*
X196286830Y-84849630D01*
X196618050Y-84353925D01*
X196734359Y-83769200D01*
X196618050Y-83184475D01*
X196286830Y-82688770D01*
X196003119Y-82499200D01*
X196286830Y-82309630D01*
X196618050Y-81813925D01*
X196734359Y-81229200D01*
X196618050Y-80644475D01*
X196286830Y-80148770D01*
X196003119Y-79959200D01*
X196286830Y-79769630D01*
X196618050Y-79273925D01*
X196734359Y-78689200D01*
X196618050Y-78104475D01*
X196286830Y-77608770D01*
X196003119Y-77419200D01*
X196286830Y-77229630D01*
X196618050Y-76733925D01*
X196734359Y-76149200D01*
X196618050Y-75564475D01*
X196286830Y-75068770D01*
X196003119Y-74879200D01*
X196286830Y-74689630D01*
X196618050Y-74193925D01*
X196734359Y-73609200D01*
X196618050Y-73024475D01*
X196286830Y-72528770D01*
X196003119Y-72339200D01*
X196286830Y-72149630D01*
X196618050Y-71653925D01*
X196734359Y-71069200D01*
X196618050Y-70484475D01*
X196286830Y-69988770D01*
X196003119Y-69799200D01*
X196286830Y-69609630D01*
X196618050Y-69113925D01*
X196734359Y-68529200D01*
X196618050Y-67944475D01*
X196286830Y-67448770D01*
X196003119Y-67259200D01*
X196286830Y-67069630D01*
X196618050Y-66573925D01*
X196734359Y-65989200D01*
X196618050Y-65404475D01*
X196286830Y-64908770D01*
X196003119Y-64719200D01*
X196286830Y-64529630D01*
X196618050Y-64033925D01*
X196734359Y-63449200D01*
X196618050Y-62864475D01*
X196286830Y-62368770D01*
X196003119Y-62179200D01*
X196286830Y-61989630D01*
X196618050Y-61493925D01*
X196734359Y-60909200D01*
X196618050Y-60324475D01*
X196286830Y-59828770D01*
X196003119Y-59639200D01*
X196286830Y-59449630D01*
X196610644Y-58965008D01*
X198048633Y-58965008D01*
X198064991Y-59047246D01*
X198064990Y-81342757D01*
X198048633Y-81424990D01*
X198064990Y-81507223D01*
X198064990Y-81507226D01*
X198113438Y-81750790D01*
X198297989Y-82026991D01*
X198367710Y-82073577D01*
X199836193Y-83542061D01*
X199780908Y-83820000D01*
X199896161Y-84399418D01*
X200224375Y-84890625D01*
X200522761Y-85090000D01*
X200224375Y-85289375D01*
X199896161Y-85780582D01*
X199780908Y-86360000D01*
X199896161Y-86939418D01*
X200224375Y-87430625D01*
X200522761Y-87630000D01*
X200224375Y-87829375D01*
X199896161Y-88320582D01*
X199780908Y-88900000D01*
X199896161Y-89479418D01*
X200224375Y-89970625D01*
X200522761Y-90170000D01*
X200224375Y-90369375D01*
X199896161Y-90860582D01*
X199780908Y-91440000D01*
X199896161Y-92019418D01*
X200224375Y-92510625D01*
X200522761Y-92710000D01*
X200224375Y-92909375D01*
X199896161Y-93400582D01*
X199780908Y-93980000D01*
X199896161Y-94559418D01*
X200224375Y-95050625D01*
X200543478Y-95263843D01*
X200413642Y-95324817D01*
X200023355Y-95753076D01*
X199853524Y-96163110D01*
X199974845Y-96393000D01*
X201168000Y-96393000D01*
X201168000Y-96373000D01*
X201422000Y-96373000D01*
X201422000Y-96393000D01*
X201442000Y-96393000D01*
X201442000Y-96647000D01*
X201422000Y-96647000D01*
X201422000Y-98933000D01*
X201442000Y-98933000D01*
X201442000Y-99187000D01*
X201422000Y-99187000D01*
X201422000Y-100380819D01*
X201651892Y-100501486D01*
X202176358Y-100255183D01*
X202563647Y-99830214D01*
X202764375Y-100130625D01*
X203255582Y-100458839D01*
X203688744Y-100545000D01*
X203981256Y-100545000D01*
X204414418Y-100458839D01*
X204905625Y-100130625D01*
X205233839Y-99639418D01*
X205349092Y-99060000D01*
X205233839Y-98480582D01*
X204943372Y-98045866D01*
X219565000Y-98045866D01*
X219565000Y-99094134D01*
X219966155Y-100062608D01*
X220707392Y-100803845D01*
X221675866Y-101205000D01*
X222724134Y-101205000D01*
X223692608Y-100803845D01*
X224433845Y-100062608D01*
X224835000Y-99094134D01*
X224835000Y-98045866D01*
X224433845Y-97077392D01*
X223692608Y-96336155D01*
X222724134Y-95935000D01*
X221675866Y-95935000D01*
X220707392Y-96336155D01*
X219966155Y-97077392D01*
X219565000Y-98045866D01*
X204943372Y-98045866D01*
X204905625Y-97989375D01*
X204607239Y-97790000D01*
X204905625Y-97590625D01*
X205233839Y-97099418D01*
X205349092Y-96520000D01*
X205233839Y-95940582D01*
X204905625Y-95449375D01*
X204607239Y-95250000D01*
X204905625Y-95050625D01*
X205233839Y-94559418D01*
X205349092Y-93980000D01*
X205233839Y-93400582D01*
X204905625Y-92909375D01*
X204607239Y-92710000D01*
X204905625Y-92510625D01*
X205233839Y-92019418D01*
X205349092Y-91440000D01*
X205303670Y-91211649D01*
X205386280Y-91177431D01*
X205677431Y-90886280D01*
X205835000Y-90505874D01*
X205835000Y-90094126D01*
X205677431Y-89713720D01*
X205535154Y-89571443D01*
X205639082Y-89502001D01*
X205685668Y-89432280D01*
X206432283Y-88685666D01*
X206502001Y-88639082D01*
X206686552Y-88362882D01*
X206735000Y-88119318D01*
X206735000Y-88119317D01*
X206751358Y-88037081D01*
X206735000Y-87954844D01*
X206735000Y-71169314D01*
X206771560Y-71169314D01*
X207151966Y-71011745D01*
X207443117Y-70720594D01*
X207600686Y-70340188D01*
X207600686Y-69928440D01*
X207443117Y-69548034D01*
X207151966Y-69256883D01*
X206771560Y-69099314D01*
X206359812Y-69099314D01*
X206008530Y-69244819D01*
X205786280Y-69022569D01*
X205405874Y-68865000D01*
X205292402Y-68865000D01*
X205349092Y-68580000D01*
X205296319Y-68314694D01*
X205386280Y-68277431D01*
X205677431Y-67986280D01*
X205835000Y-67605874D01*
X205835000Y-67194126D01*
X205677431Y-66813720D01*
X205386280Y-66522569D01*
X205263241Y-66471605D01*
X205349092Y-66040000D01*
X205277681Y-65680993D01*
X205286280Y-65677431D01*
X205577431Y-65386280D01*
X205735000Y-65005874D01*
X205735000Y-64594126D01*
X205577431Y-64213720D01*
X205286280Y-63922569D01*
X205266655Y-63914440D01*
X205310478Y-63694126D01*
X207165000Y-63694126D01*
X207165000Y-64105874D01*
X207322569Y-64486280D01*
X207365001Y-64528712D01*
X207365001Y-64817763D01*
X207348643Y-64900000D01*
X207413448Y-65225800D01*
X207413449Y-65225801D01*
X207598000Y-65502001D01*
X207667718Y-65548585D01*
X208541193Y-66422061D01*
X208485908Y-66700000D01*
X208601161Y-67279418D01*
X208929375Y-67770625D01*
X209227761Y-67970000D01*
X208929375Y-68169375D01*
X208601161Y-68660582D01*
X208485908Y-69240000D01*
X208601161Y-69819418D01*
X208929375Y-70310625D01*
X209227761Y-70510000D01*
X208929375Y-70709375D01*
X208601161Y-71200582D01*
X208485908Y-71780000D01*
X208601161Y-72359418D01*
X208929375Y-72850625D01*
X209227761Y-73050000D01*
X208929375Y-73249375D01*
X208601161Y-73740582D01*
X208485908Y-74320000D01*
X208601161Y-74899418D01*
X208929375Y-75390625D01*
X209227761Y-75590000D01*
X208929375Y-75789375D01*
X208601161Y-76280582D01*
X208485908Y-76860000D01*
X208601161Y-77439418D01*
X208929375Y-77930625D01*
X209227761Y-78130000D01*
X208929375Y-78329375D01*
X208601161Y-78820582D01*
X208485908Y-79400000D01*
X208601161Y-79979418D01*
X208929375Y-80470625D01*
X209227761Y-80670000D01*
X208929375Y-80869375D01*
X208601161Y-81360582D01*
X208485908Y-81940000D01*
X208601161Y-82519418D01*
X208929375Y-83010625D01*
X209227761Y-83210000D01*
X208929375Y-83409375D01*
X208601161Y-83900582D01*
X208485908Y-84480000D01*
X208601161Y-85059418D01*
X208929375Y-85550625D01*
X209227761Y-85750000D01*
X208929375Y-85949375D01*
X208601161Y-86440582D01*
X208485908Y-87020000D01*
X208601161Y-87599418D01*
X208929375Y-88090625D01*
X209227761Y-88290000D01*
X208929375Y-88489375D01*
X208601161Y-88980582D01*
X208485908Y-89560000D01*
X208601161Y-90139418D01*
X208929375Y-90630625D01*
X209227761Y-90830000D01*
X208929375Y-91029375D01*
X208601161Y-91520582D01*
X208485908Y-92100000D01*
X208601161Y-92679418D01*
X208929375Y-93170625D01*
X209227761Y-93370000D01*
X208929375Y-93569375D01*
X208601161Y-94060582D01*
X208485908Y-94640000D01*
X208601161Y-95219418D01*
X208929375Y-95710625D01*
X209420582Y-96038839D01*
X209853744Y-96125000D01*
X210146256Y-96125000D01*
X210579418Y-96038839D01*
X211070625Y-95710625D01*
X211228065Y-95475000D01*
X211790292Y-95475000D01*
X211912273Y-95556505D01*
X212243750Y-95622440D01*
X212681250Y-95622440D01*
X213012727Y-95556505D01*
X213250000Y-95397964D01*
X213487273Y-95556505D01*
X213818750Y-95622440D01*
X214256250Y-95622440D01*
X214587727Y-95556505D01*
X214868739Y-95368739D01*
X214891283Y-95335000D01*
X215230095Y-95335000D01*
X215464375Y-95685625D01*
X215955582Y-96013839D01*
X216388744Y-96100000D01*
X216681256Y-96100000D01*
X217114418Y-96013839D01*
X217605625Y-95685625D01*
X217933839Y-95194418D01*
X218049092Y-94615000D01*
X217933839Y-94035582D01*
X217605625Y-93544375D01*
X217307239Y-93345000D01*
X217605625Y-93145625D01*
X217933839Y-92654418D01*
X218049092Y-92075000D01*
X217933839Y-91495582D01*
X217605625Y-91004375D01*
X217307239Y-90805000D01*
X217605625Y-90605625D01*
X217933839Y-90114418D01*
X218049092Y-89535000D01*
X217933839Y-88955582D01*
X217605625Y-88464375D01*
X217307239Y-88265000D01*
X217605625Y-88065625D01*
X217933839Y-87574418D01*
X218049092Y-86995000D01*
X217933839Y-86415582D01*
X217605625Y-85924375D01*
X217307239Y-85725000D01*
X217605625Y-85525625D01*
X217933839Y-85034418D01*
X218049092Y-84455000D01*
X217933839Y-83875582D01*
X217605625Y-83384375D01*
X217307239Y-83185000D01*
X217605625Y-82985625D01*
X217933839Y-82494418D01*
X218049092Y-81915000D01*
X217933839Y-81335582D01*
X217605625Y-80844375D01*
X217307239Y-80645000D01*
X217605625Y-80445625D01*
X217933839Y-79954418D01*
X218049092Y-79375000D01*
X217933839Y-78795582D01*
X217605625Y-78304375D01*
X217307239Y-78105000D01*
X217605625Y-77905625D01*
X217933839Y-77414418D01*
X218049092Y-76835000D01*
X217933839Y-76255582D01*
X217605625Y-75764375D01*
X217307239Y-75565000D01*
X217605625Y-75365625D01*
X217933839Y-74874418D01*
X218049092Y-74295000D01*
X217933839Y-73715582D01*
X217605625Y-73224375D01*
X217307239Y-73025000D01*
X217605625Y-72825625D01*
X217933839Y-72334418D01*
X218049092Y-71755000D01*
X217933839Y-71175582D01*
X217605625Y-70684375D01*
X217307239Y-70485000D01*
X217605625Y-70285625D01*
X217933839Y-69794418D01*
X218049092Y-69215000D01*
X217933839Y-68635582D01*
X217605625Y-68144375D01*
X217307239Y-67945000D01*
X217605625Y-67745625D01*
X217933839Y-67254418D01*
X218049092Y-66675000D01*
X217933839Y-66095582D01*
X217605625Y-65604375D01*
X217307239Y-65405000D01*
X217605625Y-65205625D01*
X217933839Y-64714418D01*
X218049092Y-64135000D01*
X217933839Y-63555582D01*
X217605625Y-63064375D01*
X217307239Y-62865000D01*
X217605625Y-62665625D01*
X217933839Y-62174418D01*
X218049092Y-61595000D01*
X217933839Y-61015582D01*
X217605625Y-60524375D01*
X217307239Y-60325000D01*
X217605625Y-60125625D01*
X217933839Y-59634418D01*
X218049092Y-59055000D01*
X217933839Y-58475582D01*
X217605625Y-57984375D01*
X217307239Y-57785000D01*
X217584111Y-57600000D01*
X220452560Y-57600000D01*
X220452560Y-59200000D01*
X220501843Y-59447765D01*
X220642191Y-59657809D01*
X220852235Y-59798157D01*
X221100000Y-59847440D01*
X221343107Y-59847440D01*
X221087138Y-59953466D01*
X220683466Y-60357138D01*
X220465000Y-60884561D01*
X220465000Y-61455439D01*
X220683466Y-61982862D01*
X221087138Y-62386534D01*
X221493850Y-62555000D01*
X221087138Y-62723466D01*
X220683466Y-63127138D01*
X220465000Y-63654561D01*
X220465000Y-64225439D01*
X220683466Y-64752862D01*
X221087138Y-65156534D01*
X221493850Y-65325000D01*
X221087138Y-65493466D01*
X220683466Y-65897138D01*
X220465000Y-66424561D01*
X220465000Y-66995439D01*
X220683466Y-67522862D01*
X221087138Y-67926534D01*
X221493850Y-68095000D01*
X221087138Y-68263466D01*
X220683466Y-68667138D01*
X220465000Y-69194561D01*
X220465000Y-69765439D01*
X220683466Y-70292862D01*
X221087138Y-70696534D01*
X221493850Y-70865000D01*
X221087138Y-71033466D01*
X220683466Y-71437138D01*
X220465000Y-71964561D01*
X220465000Y-72535439D01*
X220683466Y-73062862D01*
X221087138Y-73466534D01*
X221493850Y-73635000D01*
X221087138Y-73803466D01*
X220683466Y-74207138D01*
X220465000Y-74734561D01*
X220465000Y-75305439D01*
X220683466Y-75832862D01*
X221087138Y-76236534D01*
X221493850Y-76405000D01*
X221087138Y-76573466D01*
X220683466Y-76977138D01*
X220465000Y-77504561D01*
X220465000Y-78075439D01*
X220683466Y-78602862D01*
X221087138Y-79006534D01*
X221493850Y-79175000D01*
X221087138Y-79343466D01*
X220683466Y-79747138D01*
X220465000Y-80274561D01*
X220465000Y-80845439D01*
X220683466Y-81372862D01*
X221087138Y-81776534D01*
X221493850Y-81945000D01*
X221087138Y-82113466D01*
X220683466Y-82517138D01*
X220465000Y-83044561D01*
X220465000Y-83615439D01*
X220683466Y-84142862D01*
X221087138Y-84546534D01*
X221493850Y-84715000D01*
X221087138Y-84883466D01*
X220683466Y-85287138D01*
X220465000Y-85814561D01*
X220465000Y-86385439D01*
X220683466Y-86912862D01*
X221087138Y-87316534D01*
X221493850Y-87485000D01*
X221087138Y-87653466D01*
X220683466Y-88057138D01*
X220465000Y-88584561D01*
X220465000Y-89155439D01*
X220683466Y-89682862D01*
X221087138Y-90086534D01*
X221493850Y-90255000D01*
X221087138Y-90423466D01*
X220683466Y-90827138D01*
X220465000Y-91354561D01*
X220465000Y-91925439D01*
X220683466Y-92452862D01*
X221087138Y-92856534D01*
X221614561Y-93075000D01*
X222185439Y-93075000D01*
X222712862Y-92856534D01*
X223116534Y-92452862D01*
X223335000Y-91925439D01*
X223335000Y-91354561D01*
X223296969Y-91262745D01*
X223911861Y-91262745D01*
X223985995Y-91508864D01*
X224523223Y-91701965D01*
X225093454Y-91674778D01*
X225494005Y-91508864D01*
X225568139Y-91262745D01*
X224740000Y-90434605D01*
X223911861Y-91262745D01*
X223296969Y-91262745D01*
X223116534Y-90827138D01*
X222712862Y-90423466D01*
X222306150Y-90255000D01*
X222712862Y-90086534D01*
X222761173Y-90038223D01*
X223293035Y-90038223D01*
X223320222Y-90608454D01*
X223486136Y-91009005D01*
X223732255Y-91083139D01*
X224560395Y-90255000D01*
X224919605Y-90255000D01*
X225747745Y-91083139D01*
X225993864Y-91009005D01*
X226186965Y-90471777D01*
X226159778Y-89901546D01*
X225993864Y-89500995D01*
X225747745Y-89426861D01*
X224919605Y-90255000D01*
X224560395Y-90255000D01*
X223732255Y-89426861D01*
X223486136Y-89500995D01*
X223293035Y-90038223D01*
X222761173Y-90038223D01*
X223116534Y-89682862D01*
X223335000Y-89155439D01*
X223335000Y-88584561D01*
X223296969Y-88492745D01*
X223911861Y-88492745D01*
X223985995Y-88738864D01*
X224324999Y-88860716D01*
X223985995Y-89001136D01*
X223911861Y-89247255D01*
X224740000Y-90075395D01*
X225568139Y-89247255D01*
X225494005Y-89001136D01*
X225155001Y-88879284D01*
X225494005Y-88738864D01*
X225568139Y-88492745D01*
X224740000Y-87664605D01*
X223911861Y-88492745D01*
X223296969Y-88492745D01*
X223116534Y-88057138D01*
X222712862Y-87653466D01*
X222306150Y-87485000D01*
X222712862Y-87316534D01*
X222761173Y-87268223D01*
X223293035Y-87268223D01*
X223320222Y-87838454D01*
X223486136Y-88239005D01*
X223732255Y-88313139D01*
X224560395Y-87485000D01*
X224919605Y-87485000D01*
X225747745Y-88313139D01*
X225993864Y-88239005D01*
X226186965Y-87701777D01*
X226159778Y-87131546D01*
X225993864Y-86730995D01*
X225747745Y-86656861D01*
X224919605Y-87485000D01*
X224560395Y-87485000D01*
X223732255Y-86656861D01*
X223486136Y-86730995D01*
X223293035Y-87268223D01*
X222761173Y-87268223D01*
X223116534Y-86912862D01*
X223335000Y-86385439D01*
X223335000Y-85814561D01*
X223296969Y-85722745D01*
X223911861Y-85722745D01*
X223985995Y-85968864D01*
X224324999Y-86090716D01*
X223985995Y-86231136D01*
X223911861Y-86477255D01*
X224740000Y-87305395D01*
X225568139Y-86477255D01*
X225494005Y-86231136D01*
X225155001Y-86109284D01*
X225494005Y-85968864D01*
X225568139Y-85722745D01*
X224740000Y-84894605D01*
X223911861Y-85722745D01*
X223296969Y-85722745D01*
X223116534Y-85287138D01*
X222712862Y-84883466D01*
X222306150Y-84715000D01*
X222712862Y-84546534D01*
X222761173Y-84498223D01*
X223293035Y-84498223D01*
X223320222Y-85068454D01*
X223486136Y-85469005D01*
X223732255Y-85543139D01*
X224560395Y-84715000D01*
X224919605Y-84715000D01*
X225747745Y-85543139D01*
X225993864Y-85469005D01*
X226186965Y-84931777D01*
X226159778Y-84361546D01*
X225993864Y-83960995D01*
X225747745Y-83886861D01*
X224919605Y-84715000D01*
X224560395Y-84715000D01*
X223732255Y-83886861D01*
X223486136Y-83960995D01*
X223293035Y-84498223D01*
X222761173Y-84498223D01*
X223116534Y-84142862D01*
X223335000Y-83615439D01*
X223335000Y-83044561D01*
X223296969Y-82952745D01*
X223911861Y-82952745D01*
X223985995Y-83198864D01*
X224324999Y-83320716D01*
X223985995Y-83461136D01*
X223911861Y-83707255D01*
X224740000Y-84535395D01*
X225568139Y-83707255D01*
X225494005Y-83461136D01*
X225155001Y-83339284D01*
X225494005Y-83198864D01*
X225568139Y-82952745D01*
X224740000Y-82124605D01*
X223911861Y-82952745D01*
X223296969Y-82952745D01*
X223116534Y-82517138D01*
X222712862Y-82113466D01*
X222306150Y-81945000D01*
X222712862Y-81776534D01*
X222761173Y-81728223D01*
X223293035Y-81728223D01*
X223320222Y-82298454D01*
X223486136Y-82699005D01*
X223732255Y-82773139D01*
X224560395Y-81945000D01*
X224919605Y-81945000D01*
X225747745Y-82773139D01*
X225993864Y-82699005D01*
X226186965Y-82161777D01*
X226159778Y-81591546D01*
X225993864Y-81190995D01*
X225747745Y-81116861D01*
X224919605Y-81945000D01*
X224560395Y-81945000D01*
X223732255Y-81116861D01*
X223486136Y-81190995D01*
X223293035Y-81728223D01*
X222761173Y-81728223D01*
X223116534Y-81372862D01*
X223335000Y-80845439D01*
X223335000Y-80274561D01*
X223296969Y-80182745D01*
X223911861Y-80182745D01*
X223985995Y-80428864D01*
X224324999Y-80550716D01*
X223985995Y-80691136D01*
X223911861Y-80937255D01*
X224740000Y-81765395D01*
X225568139Y-80937255D01*
X225494005Y-80691136D01*
X225155001Y-80569284D01*
X225494005Y-80428864D01*
X225568139Y-80182745D01*
X224740000Y-79354605D01*
X223911861Y-80182745D01*
X223296969Y-80182745D01*
X223116534Y-79747138D01*
X222712862Y-79343466D01*
X222306150Y-79175000D01*
X222712862Y-79006534D01*
X222761173Y-78958223D01*
X223293035Y-78958223D01*
X223320222Y-79528454D01*
X223486136Y-79929005D01*
X223732255Y-80003139D01*
X224560395Y-79175000D01*
X224919605Y-79175000D01*
X225747745Y-80003139D01*
X225993864Y-79929005D01*
X226186965Y-79391777D01*
X226159778Y-78821546D01*
X225993864Y-78420995D01*
X225747745Y-78346861D01*
X224919605Y-79175000D01*
X224560395Y-79175000D01*
X223732255Y-78346861D01*
X223486136Y-78420995D01*
X223293035Y-78958223D01*
X222761173Y-78958223D01*
X223116534Y-78602862D01*
X223335000Y-78075439D01*
X223335000Y-77504561D01*
X223296969Y-77412745D01*
X223911861Y-77412745D01*
X223985995Y-77658864D01*
X224324999Y-77780716D01*
X223985995Y-77921136D01*
X223911861Y-78167255D01*
X224740000Y-78995395D01*
X225568139Y-78167255D01*
X225494005Y-77921136D01*
X225155001Y-77799284D01*
X225494005Y-77658864D01*
X225568139Y-77412745D01*
X224740000Y-76584605D01*
X223911861Y-77412745D01*
X223296969Y-77412745D01*
X223116534Y-76977138D01*
X222712862Y-76573466D01*
X222306150Y-76405000D01*
X222712862Y-76236534D01*
X222761173Y-76188223D01*
X223293035Y-76188223D01*
X223320222Y-76758454D01*
X223486136Y-77159005D01*
X223732255Y-77233139D01*
X224560395Y-76405000D01*
X224919605Y-76405000D01*
X225747745Y-77233139D01*
X225993864Y-77159005D01*
X226186965Y-76621777D01*
X226159778Y-76051546D01*
X225993864Y-75650995D01*
X225747745Y-75576861D01*
X224919605Y-76405000D01*
X224560395Y-76405000D01*
X223732255Y-75576861D01*
X223486136Y-75650995D01*
X223293035Y-76188223D01*
X222761173Y-76188223D01*
X223116534Y-75832862D01*
X223335000Y-75305439D01*
X223335000Y-74734561D01*
X223296969Y-74642745D01*
X223911861Y-74642745D01*
X223985995Y-74888864D01*
X224324999Y-75010716D01*
X223985995Y-75151136D01*
X223911861Y-75397255D01*
X224740000Y-76225395D01*
X225568139Y-75397255D01*
X225494005Y-75151136D01*
X225155001Y-75029284D01*
X225494005Y-74888864D01*
X225568139Y-74642745D01*
X224740000Y-73814605D01*
X223911861Y-74642745D01*
X223296969Y-74642745D01*
X223116534Y-74207138D01*
X222712862Y-73803466D01*
X222306150Y-73635000D01*
X222712862Y-73466534D01*
X222761173Y-73418223D01*
X223293035Y-73418223D01*
X223320222Y-73988454D01*
X223486136Y-74389005D01*
X223732255Y-74463139D01*
X224560395Y-73635000D01*
X224919605Y-73635000D01*
X225747745Y-74463139D01*
X225993864Y-74389005D01*
X226186965Y-73851777D01*
X226159778Y-73281546D01*
X225993864Y-72880995D01*
X225747745Y-72806861D01*
X224919605Y-73635000D01*
X224560395Y-73635000D01*
X223732255Y-72806861D01*
X223486136Y-72880995D01*
X223293035Y-73418223D01*
X222761173Y-73418223D01*
X223116534Y-73062862D01*
X223335000Y-72535439D01*
X223335000Y-71964561D01*
X223296969Y-71872745D01*
X223911861Y-71872745D01*
X223985995Y-72118864D01*
X224324999Y-72240716D01*
X223985995Y-72381136D01*
X223911861Y-72627255D01*
X224740000Y-73455395D01*
X225568139Y-72627255D01*
X225494005Y-72381136D01*
X225155001Y-72259284D01*
X225494005Y-72118864D01*
X225568139Y-71872745D01*
X224740000Y-71044605D01*
X223911861Y-71872745D01*
X223296969Y-71872745D01*
X223116534Y-71437138D01*
X222712862Y-71033466D01*
X222306150Y-70865000D01*
X222712862Y-70696534D01*
X222761173Y-70648223D01*
X223293035Y-70648223D01*
X223320222Y-71218454D01*
X223486136Y-71619005D01*
X223732255Y-71693139D01*
X224560395Y-70865000D01*
X224919605Y-70865000D01*
X225747745Y-71693139D01*
X225993864Y-71619005D01*
X226186965Y-71081777D01*
X226159778Y-70511546D01*
X225993864Y-70110995D01*
X225747745Y-70036861D01*
X224919605Y-70865000D01*
X224560395Y-70865000D01*
X223732255Y-70036861D01*
X223486136Y-70110995D01*
X223293035Y-70648223D01*
X222761173Y-70648223D01*
X223116534Y-70292862D01*
X223335000Y-69765439D01*
X223335000Y-69194561D01*
X223116534Y-68667138D01*
X222712862Y-68263466D01*
X222306150Y-68095000D01*
X222712862Y-67926534D01*
X223116534Y-67522862D01*
X223335000Y-66995439D01*
X223335000Y-66424561D01*
X223116534Y-65897138D01*
X222712862Y-65493466D01*
X222306150Y-65325000D01*
X222712862Y-65156534D01*
X223116534Y-64752862D01*
X223335000Y-64225439D01*
X223335000Y-63654561D01*
X223116534Y-63127138D01*
X222712862Y-62723466D01*
X222306150Y-62555000D01*
X222712862Y-62386534D01*
X223116534Y-61982862D01*
X223335000Y-61455439D01*
X223335000Y-60884561D01*
X223116534Y-60357138D01*
X222712862Y-59953466D01*
X222456893Y-59847440D01*
X222700000Y-59847440D01*
X222947765Y-59798157D01*
X223157809Y-59657809D01*
X223263547Y-59499561D01*
X223305000Y-59499561D01*
X223305000Y-60070439D01*
X223523466Y-60597862D01*
X223927138Y-61001534D01*
X224333850Y-61170000D01*
X223927138Y-61338466D01*
X223523466Y-61742138D01*
X223305000Y-62269561D01*
X223305000Y-62840439D01*
X223523466Y-63367862D01*
X223927138Y-63771534D01*
X224333850Y-63940000D01*
X223927138Y-64108466D01*
X223523466Y-64512138D01*
X223305000Y-65039561D01*
X223305000Y-65610439D01*
X223523466Y-66137862D01*
X223927138Y-66541534D01*
X224333850Y-66710000D01*
X223927138Y-66878466D01*
X223523466Y-67282138D01*
X223305000Y-67809561D01*
X223305000Y-68380439D01*
X223523466Y-68907862D01*
X223927138Y-69311534D01*
X224318218Y-69473525D01*
X223985995Y-69611136D01*
X223911861Y-69857255D01*
X224740000Y-70685395D01*
X225568139Y-69857255D01*
X225494005Y-69611136D01*
X225138261Y-69483268D01*
X225552862Y-69311534D01*
X225956534Y-68907862D01*
X226175000Y-68380439D01*
X226175000Y-67809561D01*
X225956534Y-67282138D01*
X225552862Y-66878466D01*
X225146150Y-66710000D01*
X225552862Y-66541534D01*
X225956534Y-66137862D01*
X226175000Y-65610439D01*
X226175000Y-65039561D01*
X225956534Y-64512138D01*
X225552862Y-64108466D01*
X225146150Y-63940000D01*
X225552862Y-63771534D01*
X225956534Y-63367862D01*
X226175000Y-62840439D01*
X226175000Y-62269561D01*
X225956534Y-61742138D01*
X225552862Y-61338466D01*
X225146150Y-61170000D01*
X225552862Y-61001534D01*
X225956534Y-60597862D01*
X226175000Y-60070439D01*
X226175000Y-59499561D01*
X225956534Y-58972138D01*
X225552862Y-58568466D01*
X225025439Y-58350000D01*
X224454561Y-58350000D01*
X223927138Y-58568466D01*
X223523466Y-58972138D01*
X223305000Y-59499561D01*
X223263547Y-59499561D01*
X223298157Y-59447765D01*
X223347440Y-59200000D01*
X223347440Y-57600000D01*
X223298157Y-57352235D01*
X223157809Y-57142191D01*
X222947765Y-57001843D01*
X222700000Y-56952560D01*
X221100000Y-56952560D01*
X220852235Y-57001843D01*
X220642191Y-57142191D01*
X220501843Y-57352235D01*
X220452560Y-57600000D01*
X217584111Y-57600000D01*
X217605625Y-57585625D01*
X217933839Y-57094418D01*
X218049092Y-56515000D01*
X217933839Y-55935582D01*
X217605625Y-55444375D01*
X217587381Y-55432184D01*
X217632765Y-55423157D01*
X217842809Y-55282809D01*
X217983157Y-55072765D01*
X218032440Y-54825000D01*
X218032440Y-53125000D01*
X217983157Y-52877235D01*
X217842809Y-52667191D01*
X217632765Y-52526843D01*
X217385000Y-52477560D01*
X215685000Y-52477560D01*
X215437235Y-52526843D01*
X215227191Y-52667191D01*
X215086843Y-52877235D01*
X215037560Y-53125000D01*
X215037560Y-53165000D01*
X214891283Y-53165000D01*
X214868739Y-53131261D01*
X214587727Y-52943495D01*
X214256250Y-52877560D01*
X213818750Y-52877560D01*
X213487273Y-52943495D01*
X213250000Y-53102036D01*
X213012727Y-52943495D01*
X212681250Y-52877560D01*
X212243750Y-52877560D01*
X211912273Y-52943495D01*
X211631261Y-53131261D01*
X211608717Y-53165000D01*
X211497440Y-53165000D01*
X211497440Y-53150000D01*
X211448157Y-52902235D01*
X211307809Y-52692191D01*
X211097765Y-52551843D01*
X210850000Y-52502560D01*
X209150000Y-52502560D01*
X208902235Y-52551843D01*
X208692191Y-52692191D01*
X208551843Y-52902235D01*
X208502560Y-53150000D01*
X208502560Y-54850000D01*
X208551843Y-55097765D01*
X208692191Y-55307809D01*
X208902235Y-55448157D01*
X208947619Y-55457184D01*
X208929375Y-55469375D01*
X208601161Y-55960582D01*
X208485908Y-56540000D01*
X208601161Y-57119418D01*
X208929375Y-57610625D01*
X209227761Y-57810000D01*
X208929375Y-58009375D01*
X208601161Y-58500582D01*
X208485908Y-59080000D01*
X208601161Y-59659418D01*
X208929375Y-60150625D01*
X209227761Y-60350000D01*
X208929375Y-60549375D01*
X208601161Y-61040582D01*
X208485908Y-61620000D01*
X208601161Y-62199418D01*
X208929375Y-62690625D01*
X209227761Y-62890000D01*
X208929375Y-63089375D01*
X208898818Y-63135107D01*
X208786280Y-63022569D01*
X208405874Y-62865000D01*
X207994126Y-62865000D01*
X207613720Y-63022569D01*
X207322569Y-63313720D01*
X207165000Y-63694126D01*
X205310478Y-63694126D01*
X205349092Y-63500000D01*
X205233839Y-62920582D01*
X205102240Y-62723630D01*
X205174000Y-62651869D01*
X205256883Y-62851966D01*
X205548034Y-63143117D01*
X205928440Y-63300686D01*
X206340188Y-63300686D01*
X206720594Y-63143117D01*
X207011745Y-62851966D01*
X207169314Y-62471560D01*
X207169314Y-62411553D01*
X207645868Y-61935000D01*
X207705874Y-61935000D01*
X208086280Y-61777431D01*
X208377431Y-61486280D01*
X208535000Y-61105874D01*
X208535000Y-60694126D01*
X208377431Y-60313720D01*
X208086280Y-60022569D01*
X207705874Y-59865000D01*
X207365003Y-59865000D01*
X207365003Y-58834222D01*
X207381360Y-58751989D01*
X207365003Y-58669756D01*
X207365003Y-58669753D01*
X207316555Y-58426189D01*
X207165004Y-58199377D01*
X207165004Y-58146117D01*
X207007435Y-57765711D01*
X206716284Y-57474560D01*
X206335878Y-57316991D01*
X206130395Y-57316991D01*
X206135000Y-57305874D01*
X206135000Y-56894126D01*
X205977431Y-56513720D01*
X205686280Y-56222569D01*
X205311805Y-56067457D01*
X205349092Y-55880000D01*
X205233839Y-55300582D01*
X204905625Y-54809375D01*
X204586522Y-54596157D01*
X204716358Y-54535183D01*
X205106645Y-54106924D01*
X205276476Y-53696890D01*
X205155155Y-53467000D01*
X203962000Y-53467000D01*
X203962000Y-53487000D01*
X203708000Y-53487000D01*
X203708000Y-53467000D01*
X203688000Y-53467000D01*
X203688000Y-53213000D01*
X203708000Y-53213000D01*
X203708000Y-53193000D01*
X203962000Y-53193000D01*
X203962000Y-53213000D01*
X205155155Y-53213000D01*
X205276476Y-52983110D01*
X205106645Y-52573076D01*
X204829292Y-52268739D01*
X204932765Y-52248157D01*
X205142809Y-52107809D01*
X205283157Y-51897765D01*
X205332440Y-51650000D01*
X205332440Y-50945866D01*
X219565000Y-50945866D01*
X219565000Y-51994134D01*
X219966155Y-52962608D01*
X220707392Y-53703845D01*
X221675866Y-54105000D01*
X222724134Y-54105000D01*
X223692608Y-53703845D01*
X224433845Y-52962608D01*
X224835000Y-51994134D01*
X224835000Y-50945866D01*
X224433845Y-49977392D01*
X223692608Y-49236155D01*
X222724134Y-48835000D01*
X221675866Y-48835000D01*
X220707392Y-49236155D01*
X219966155Y-49977392D01*
X219565000Y-50945866D01*
X205332440Y-50945866D01*
X205332440Y-49950000D01*
X205283157Y-49702235D01*
X205142809Y-49492191D01*
X204932765Y-49351843D01*
X204685000Y-49302560D01*
X202985000Y-49302560D01*
X202737235Y-49351843D01*
X202527191Y-49492191D01*
X202386843Y-49702235D01*
X202377816Y-49747619D01*
X202365625Y-49729375D01*
X201874418Y-49401161D01*
X201441256Y-49315000D01*
X201148744Y-49315000D01*
X200715582Y-49401161D01*
X200224375Y-49729375D01*
X199896161Y-50220582D01*
X199780908Y-50800000D01*
X199896161Y-51379418D01*
X200224375Y-51870625D01*
X200522761Y-52070000D01*
X200224375Y-52269375D01*
X199896161Y-52760582D01*
X199780908Y-53340000D01*
X199896161Y-53919418D01*
X200224375Y-54410625D01*
X200522761Y-54610000D01*
X200224375Y-54809375D01*
X199896161Y-55300582D01*
X199780908Y-55880000D01*
X199896161Y-56459418D01*
X200027760Y-56656370D01*
X198367708Y-58316423D01*
X198297990Y-58363007D01*
X198251406Y-58432725D01*
X198113438Y-58639208D01*
X198048633Y-58965008D01*
X196610644Y-58965008D01*
X196618050Y-58953925D01*
X196734359Y-58369200D01*
X196618050Y-57784475D01*
X196286830Y-57288770D01*
X196003119Y-57099200D01*
X196286830Y-56909630D01*
X196618050Y-56413925D01*
X196734359Y-55829200D01*
X196618050Y-55244475D01*
X196286830Y-54748770D01*
X195990439Y-54550727D01*
X196355873Y-54259068D01*
X196639527Y-53745357D01*
X196661358Y-53648226D01*
X196540217Y-53416200D01*
X195072000Y-53416200D01*
X195072000Y-53436200D01*
X194818000Y-53436200D01*
X194818000Y-53416200D01*
X193349783Y-53416200D01*
X193228642Y-53648226D01*
X193250473Y-53745357D01*
X193534127Y-54259068D01*
X193899561Y-54550727D01*
X193603170Y-54748770D01*
X193271950Y-55244475D01*
X193155641Y-55829200D01*
X189401718Y-55829200D01*
X189685430Y-55639630D01*
X190016650Y-55143925D01*
X190132959Y-54559200D01*
X190016650Y-53974475D01*
X189685430Y-53478770D01*
X189189725Y-53147550D01*
X188752598Y-53060600D01*
X188457402Y-53060600D01*
X188020275Y-53147550D01*
X187524570Y-53478770D01*
X187335000Y-53762481D01*
X187145430Y-53478770D01*
X186649725Y-53147550D01*
X186212598Y-53060600D01*
X185917402Y-53060600D01*
X185480275Y-53147550D01*
X184984570Y-53478770D01*
X184653350Y-53974475D01*
X184537041Y-54559200D01*
X180763119Y-54559200D01*
X181046830Y-54369630D01*
X181378050Y-53873925D01*
X181494359Y-53289200D01*
X181378050Y-52704475D01*
X181051749Y-52216132D01*
X181077765Y-52210957D01*
X181287809Y-52070609D01*
X181428157Y-51860565D01*
X181477440Y-51612800D01*
X181477440Y-50698400D01*
X193155641Y-50698400D01*
X193271950Y-51283125D01*
X193603170Y-51778830D01*
X193934207Y-52000022D01*
X193534127Y-52319332D01*
X193250473Y-52833043D01*
X193228642Y-52930174D01*
X193349783Y-53162200D01*
X194818000Y-53162200D01*
X194818000Y-53142200D01*
X195072000Y-53142200D01*
X195072000Y-53162200D01*
X196540217Y-53162200D01*
X196661358Y-52930174D01*
X196639527Y-52833043D01*
X196355873Y-52319332D01*
X195955793Y-52000022D01*
X196286830Y-51778830D01*
X196618050Y-51283125D01*
X196734359Y-50698400D01*
X196618050Y-50113675D01*
X196286830Y-49617970D01*
X195791125Y-49286750D01*
X195353998Y-49199800D01*
X194536002Y-49199800D01*
X194098875Y-49286750D01*
X193603170Y-49617970D01*
X193271950Y-50113675D01*
X193155641Y-50698400D01*
X181477440Y-50698400D01*
X181477440Y-49885600D01*
X181428157Y-49637835D01*
X181287809Y-49427791D01*
X181077765Y-49287443D01*
X180830000Y-49238160D01*
X178580000Y-49238160D01*
X178332235Y-49287443D01*
X178122191Y-49427791D01*
X177981843Y-49637835D01*
X177932560Y-49885600D01*
X177932560Y-51612800D01*
X177981843Y-51860565D01*
X178122191Y-52070609D01*
X178332235Y-52210957D01*
X178358251Y-52216132D01*
X178031950Y-52704475D01*
X177915641Y-53289200D01*
X176210000Y-53289200D01*
X176210000Y-48210000D01*
X227455335Y-48210000D01*
X227943752Y-48271701D01*
X227943752Y-48271701D01*
G37*
X227943752Y-48271701D02*
X228359620Y-48436355D01*
X228721476Y-48699259D01*
X229006581Y-49043891D01*
X229197024Y-49448604D01*
X229287172Y-49921175D01*
X229290000Y-50011163D01*
X229290001Y-97430070D01*
X229290000Y-97430075D01*
X229290001Y-99955320D01*
X229228299Y-100443751D01*
X229063646Y-100859618D01*
X228800741Y-101221477D01*
X228456105Y-101506583D01*
X228051395Y-101697024D01*
X227578825Y-101787172D01*
X227488837Y-101790000D01*
X176210000Y-101790000D01*
X176210000Y-99368226D01*
X177988642Y-99368226D01*
X178010473Y-99465357D01*
X178294127Y-99979068D01*
X178752778Y-100345125D01*
X179316600Y-100507800D01*
X179578000Y-100507800D01*
X179578000Y-99136200D01*
X179832000Y-99136200D01*
X179832000Y-100507800D01*
X180093400Y-100507800D01*
X180657222Y-100345125D01*
X181115873Y-99979068D01*
X181399527Y-99465357D01*
X181421358Y-99368226D01*
X181300217Y-99136200D01*
X179832000Y-99136200D01*
X179578000Y-99136200D01*
X178109783Y-99136200D01*
X177988642Y-99368226D01*
X176210000Y-99368226D01*
X176210000Y-96828226D01*
X177988642Y-96828226D01*
X178010473Y-96925357D01*
X178294127Y-97439068D01*
X178670177Y-97739200D01*
X178294127Y-98039332D01*
X178010473Y-98553043D01*
X177988642Y-98650174D01*
X178109783Y-98882200D01*
X179578000Y-98882200D01*
X179578000Y-96596200D01*
X179832000Y-96596200D01*
X179832000Y-98882200D01*
X181300217Y-98882200D01*
X181421358Y-98650174D01*
X181399527Y-98553043D01*
X181115873Y-98039332D01*
X180739823Y-97739200D01*
X181115873Y-97439068D01*
X181399527Y-96925357D01*
X181421358Y-96828226D01*
X181300217Y-96596200D01*
X179832000Y-96596200D01*
X179578000Y-96596200D01*
X178109783Y-96596200D01*
X177988642Y-96828226D01*
X176210000Y-96828226D01*
X176210000Y-53289200D01*
X177915641Y-53289200D01*
X178031950Y-53873925D01*
X178363170Y-54369630D01*
X178646881Y-54559200D01*
X178363170Y-54748770D01*
X178031950Y-55244475D01*
X177915641Y-55829200D01*
X178031950Y-56413925D01*
X178363170Y-56909630D01*
X178646881Y-57099200D01*
X178363170Y-57288770D01*
X178031950Y-57784475D01*
X177915641Y-58369200D01*
X178031950Y-58953925D01*
X178363170Y-59449630D01*
X178646881Y-59639200D01*
X178363170Y-59828770D01*
X178031950Y-60324475D01*
X177915641Y-60909200D01*
X178031950Y-61493925D01*
X178363170Y-61989630D01*
X178646881Y-62179200D01*
X178363170Y-62368770D01*
X178031950Y-62864475D01*
X177915641Y-63449200D01*
X178031950Y-64033925D01*
X178363170Y-64529630D01*
X178646881Y-64719200D01*
X178363170Y-64908770D01*
X178031950Y-65404475D01*
X177915641Y-65989200D01*
X178031950Y-66573925D01*
X178363170Y-67069630D01*
X178646881Y-67259200D01*
X178363170Y-67448770D01*
X178031950Y-67944475D01*
X177915641Y-68529200D01*
X178031950Y-69113925D01*
X178363170Y-69609630D01*
X178646881Y-69799200D01*
X178363170Y-69988770D01*
X178031950Y-70484475D01*
X177915641Y-71069200D01*
X178031950Y-71653925D01*
X178363170Y-72149630D01*
X178646881Y-72339200D01*
X178363170Y-72528770D01*
X178031950Y-73024475D01*
X177915641Y-73609200D01*
X178031950Y-74193925D01*
X178363170Y-74689630D01*
X178646881Y-74879200D01*
X178363170Y-75068770D01*
X178031950Y-75564475D01*
X177915641Y-76149200D01*
X178031950Y-76733925D01*
X178363170Y-77229630D01*
X178646881Y-77419200D01*
X178363170Y-77608770D01*
X178031950Y-78104475D01*
X177915641Y-78689200D01*
X178031950Y-79273925D01*
X178363170Y-79769630D01*
X178646881Y-79959200D01*
X178363170Y-80148770D01*
X178031950Y-80644475D01*
X177915641Y-81229200D01*
X178031950Y-81813925D01*
X178363170Y-82309630D01*
X178646881Y-82499200D01*
X178363170Y-82688770D01*
X178031950Y-83184475D01*
X177915641Y-83769200D01*
X178031950Y-84353925D01*
X178363170Y-84849630D01*
X178646881Y-85039200D01*
X178363170Y-85228770D01*
X178031950Y-85724475D01*
X177915641Y-86309200D01*
X178031950Y-86893925D01*
X178363170Y-87389630D01*
X178646881Y-87579200D01*
X178363170Y-87768770D01*
X178031950Y-88264475D01*
X177915641Y-88849200D01*
X178031950Y-89433925D01*
X178363170Y-89929630D01*
X178646881Y-90119200D01*
X178363170Y-90308770D01*
X178031950Y-90804475D01*
X177915641Y-91389200D01*
X178031950Y-91973925D01*
X178363170Y-92469630D01*
X178646881Y-92659200D01*
X178363170Y-92848770D01*
X178031950Y-93344475D01*
X177915641Y-93929200D01*
X178031950Y-94513925D01*
X178363170Y-95009630D01*
X178659561Y-95207673D01*
X178294127Y-95499332D01*
X178010473Y-96013043D01*
X177988642Y-96110174D01*
X178109783Y-96342200D01*
X179578000Y-96342200D01*
X179578000Y-96322200D01*
X179832000Y-96322200D01*
X179832000Y-96342200D01*
X181300217Y-96342200D01*
X181421358Y-96110174D01*
X181399527Y-96013043D01*
X181115873Y-95499332D01*
X180750439Y-95207673D01*
X181046830Y-95009630D01*
X181378050Y-94513925D01*
X181494359Y-93929200D01*
X181378050Y-93344475D01*
X181046830Y-92848770D01*
X180763119Y-92659200D01*
X181046830Y-92469630D01*
X181378050Y-91973925D01*
X181494359Y-91389200D01*
X181378050Y-90804475D01*
X181046830Y-90308770D01*
X180763119Y-90119200D01*
X181046830Y-89929630D01*
X181378050Y-89433925D01*
X181494359Y-88849200D01*
X181378050Y-88264475D01*
X181046830Y-87768770D01*
X180763119Y-87579200D01*
X181046830Y-87389630D01*
X181378050Y-86893925D01*
X181494359Y-86309200D01*
X181378050Y-85724475D01*
X181046830Y-85228770D01*
X180763119Y-85039200D01*
X181046830Y-84849630D01*
X181378050Y-84353925D01*
X181494359Y-83769200D01*
X181378050Y-83184475D01*
X181046830Y-82688770D01*
X180763119Y-82499200D01*
X181046830Y-82309630D01*
X181378050Y-81813925D01*
X181494359Y-81229200D01*
X181378050Y-80644475D01*
X181046830Y-80148770D01*
X180763119Y-79959200D01*
X181046830Y-79769630D01*
X181378050Y-79273925D01*
X181494359Y-78689200D01*
X181378050Y-78104475D01*
X181046830Y-77608770D01*
X180763119Y-77419200D01*
X181046830Y-77229630D01*
X181378050Y-76733925D01*
X181494359Y-76149200D01*
X181378050Y-75564475D01*
X181046830Y-75068770D01*
X180763119Y-74879200D01*
X181046830Y-74689630D01*
X181378050Y-74193925D01*
X181494359Y-73609200D01*
X181378050Y-73024475D01*
X181046830Y-72528770D01*
X180763119Y-72339200D01*
X181046830Y-72149630D01*
X181378050Y-71653925D01*
X181494359Y-71069200D01*
X181378050Y-70484475D01*
X181046830Y-69988770D01*
X180763119Y-69799200D01*
X181046830Y-69609630D01*
X181378050Y-69113925D01*
X181494359Y-68529200D01*
X181378050Y-67944475D01*
X181046830Y-67448770D01*
X180763119Y-67259200D01*
X181046830Y-67069630D01*
X181378050Y-66573925D01*
X181494359Y-65989200D01*
X181378050Y-65404475D01*
X181046830Y-64908770D01*
X180763119Y-64719200D01*
X181046830Y-64529630D01*
X181378050Y-64033925D01*
X181494359Y-63449200D01*
X181378050Y-62864475D01*
X181046830Y-62368770D01*
X180763119Y-62179200D01*
X181046830Y-61989630D01*
X181378050Y-61493925D01*
X181494359Y-60909200D01*
X181378050Y-60324475D01*
X181046830Y-59828770D01*
X180763119Y-59639200D01*
X181046830Y-59449630D01*
X181378050Y-58953925D01*
X181494359Y-58369200D01*
X181378050Y-57784475D01*
X181046830Y-57288770D01*
X180763119Y-57099200D01*
X181046830Y-56909630D01*
X181378050Y-56413925D01*
X181494359Y-55829200D01*
X181378050Y-55244475D01*
X181046830Y-54748770D01*
X180763119Y-54559200D01*
X184537041Y-54559200D01*
X184653350Y-55143925D01*
X184984570Y-55639630D01*
X185480275Y-55970850D01*
X185917402Y-56057800D01*
X186212598Y-56057800D01*
X186649725Y-55970850D01*
X187145430Y-55639630D01*
X187335000Y-55355919D01*
X187524570Y-55639630D01*
X188020275Y-55970850D01*
X188457402Y-56057800D01*
X188752598Y-56057800D01*
X189189725Y-55970850D01*
X189401718Y-55829200D01*
X193155641Y-55829200D01*
X193271950Y-56413925D01*
X193603170Y-56909630D01*
X193886881Y-57099200D01*
X193603170Y-57288770D01*
X193271950Y-57784475D01*
X193155641Y-58369200D01*
X193271950Y-58953925D01*
X193603170Y-59449630D01*
X193886881Y-59639200D01*
X193603170Y-59828770D01*
X193271950Y-60324475D01*
X193155641Y-60909200D01*
X193271950Y-61493925D01*
X193603170Y-61989630D01*
X193886881Y-62179200D01*
X193603170Y-62368770D01*
X193271950Y-62864475D01*
X193155641Y-63449200D01*
X193271950Y-64033925D01*
X193603170Y-64529630D01*
X193886881Y-64719200D01*
X193603170Y-64908770D01*
X193271950Y-65404475D01*
X193155641Y-65989200D01*
X193271950Y-66573925D01*
X193603170Y-67069630D01*
X193886881Y-67259200D01*
X193603170Y-67448770D01*
X193271950Y-67944475D01*
X193155641Y-68529200D01*
X193271950Y-69113925D01*
X193603170Y-69609630D01*
X193886881Y-69799200D01*
X193603170Y-69988770D01*
X193271950Y-70484475D01*
X193155641Y-71069200D01*
X193271950Y-71653925D01*
X193603170Y-72149630D01*
X193886881Y-72339200D01*
X193603170Y-72528770D01*
X193271950Y-73024475D01*
X193155641Y-73609200D01*
X193271950Y-74193925D01*
X193603170Y-74689630D01*
X193886881Y-74879200D01*
X193603170Y-75068770D01*
X193271950Y-75564475D01*
X193155641Y-76149200D01*
X193271950Y-76733925D01*
X193603170Y-77229630D01*
X193886881Y-77419200D01*
X193603170Y-77608770D01*
X193271950Y-78104475D01*
X193155641Y-78689200D01*
X193271950Y-79273925D01*
X193603170Y-79769630D01*
X193886881Y-79959200D01*
X193603170Y-80148770D01*
X193271950Y-80644475D01*
X193155641Y-81229200D01*
X193271950Y-81813925D01*
X193603170Y-82309630D01*
X193886881Y-82499200D01*
X193603170Y-82688770D01*
X193271950Y-83184475D01*
X193155641Y-83769200D01*
X193271950Y-84353925D01*
X193603170Y-84849630D01*
X193886881Y-85039200D01*
X193603170Y-85228770D01*
X193271950Y-85724475D01*
X193155641Y-86309200D01*
X193271950Y-86893925D01*
X193603170Y-87389630D01*
X193886881Y-87579200D01*
X193603170Y-87768770D01*
X193271950Y-88264475D01*
X193155641Y-88849200D01*
X193271950Y-89433925D01*
X193603170Y-89929630D01*
X193886881Y-90119200D01*
X193603170Y-90308770D01*
X193271950Y-90804475D01*
X193155641Y-91389200D01*
X193271950Y-91973925D01*
X193603170Y-92469630D01*
X193886881Y-92659200D01*
X193603170Y-92848770D01*
X193271950Y-93344475D01*
X193155641Y-93929200D01*
X193271950Y-94513925D01*
X193603170Y-95009630D01*
X193886881Y-95199200D01*
X193603170Y-95388770D01*
X193271950Y-95884475D01*
X193155641Y-96469200D01*
X193271950Y-97053925D01*
X193603170Y-97549630D01*
X193886881Y-97739200D01*
X193603170Y-97928770D01*
X193271950Y-98424475D01*
X193155641Y-99009200D01*
X193271950Y-99593925D01*
X193603170Y-100089630D01*
X194098875Y-100420850D01*
X194536002Y-100507800D01*
X195353998Y-100507800D01*
X195791125Y-100420850D01*
X196286830Y-100089630D01*
X196618050Y-99593925D01*
X196653264Y-99416890D01*
X199853524Y-99416890D01*
X200023355Y-99826924D01*
X200413642Y-100255183D01*
X200938108Y-100501486D01*
X201168000Y-100380819D01*
X201168000Y-99187000D01*
X199974845Y-99187000D01*
X199853524Y-99416890D01*
X196653264Y-99416890D01*
X196734359Y-99009200D01*
X196618050Y-98424475D01*
X196286830Y-97928770D01*
X196003119Y-97739200D01*
X196286830Y-97549630D01*
X196618050Y-97053925D01*
X196653264Y-96876890D01*
X199853524Y-96876890D01*
X200023355Y-97286924D01*
X200413642Y-97715183D01*
X200572954Y-97790000D01*
X200413642Y-97864817D01*
X200023355Y-98293076D01*
X199853524Y-98703110D01*
X199974845Y-98933000D01*
X201168000Y-98933000D01*
X201168000Y-96647000D01*
X199974845Y-96647000D01*
X199853524Y-96876890D01*
X196653264Y-96876890D01*
X196734359Y-96469200D01*
X196618050Y-95884475D01*
X196286830Y-95388770D01*
X196003119Y-95199200D01*
X196286830Y-95009630D01*
X196618050Y-94513925D01*
X196734359Y-93929200D01*
X196618050Y-93344475D01*
X196286830Y-92848770D01*
X196003119Y-92659200D01*
X196286830Y-92469630D01*
X196618050Y-91973925D01*
X196734359Y-91389200D01*
X196618050Y-90804475D01*
X196286830Y-90308770D01*
X196003119Y-90119200D01*
X196286830Y-89929630D01*
X196618050Y-89433925D01*
X196734359Y-88849200D01*
X196618050Y-88264475D01*
X196286830Y-87768770D01*
X196003119Y-87579200D01*
X196286830Y-87389630D01*
X196618050Y-86893925D01*
X196734359Y-86309200D01*
X196618050Y-85724475D01*
X196286830Y-85228770D01*
X196003119Y-85039200D01*
X196286830Y-84849630D01*
X196618050Y-84353925D01*
X196734359Y-83769200D01*
X196618050Y-83184475D01*
X196286830Y-82688770D01*
X196003119Y-82499200D01*
X196286830Y-82309630D01*
X196618050Y-81813925D01*
X196734359Y-81229200D01*
X196618050Y-80644475D01*
X196286830Y-80148770D01*
X196003119Y-79959200D01*
X196286830Y-79769630D01*
X196618050Y-79273925D01*
X196734359Y-78689200D01*
X196618050Y-78104475D01*
X196286830Y-77608770D01*
X196003119Y-77419200D01*
X196286830Y-77229630D01*
X196618050Y-76733925D01*
X196734359Y-76149200D01*
X196618050Y-75564475D01*
X196286830Y-75068770D01*
X196003119Y-74879200D01*
X196286830Y-74689630D01*
X196618050Y-74193925D01*
X196734359Y-73609200D01*
X196618050Y-73024475D01*
X196286830Y-72528770D01*
X196003119Y-72339200D01*
X196286830Y-72149630D01*
X196618050Y-71653925D01*
X196734359Y-71069200D01*
X196618050Y-70484475D01*
X196286830Y-69988770D01*
X196003119Y-69799200D01*
X196286830Y-69609630D01*
X196618050Y-69113925D01*
X196734359Y-68529200D01*
X196618050Y-67944475D01*
X196286830Y-67448770D01*
X196003119Y-67259200D01*
X196286830Y-67069630D01*
X196618050Y-66573925D01*
X196734359Y-65989200D01*
X196618050Y-65404475D01*
X196286830Y-64908770D01*
X196003119Y-64719200D01*
X196286830Y-64529630D01*
X196618050Y-64033925D01*
X196734359Y-63449200D01*
X196618050Y-62864475D01*
X196286830Y-62368770D01*
X196003119Y-62179200D01*
X196286830Y-61989630D01*
X196618050Y-61493925D01*
X196734359Y-60909200D01*
X196618050Y-60324475D01*
X196286830Y-59828770D01*
X196003119Y-59639200D01*
X196286830Y-59449630D01*
X196610644Y-58965008D01*
X198048633Y-58965008D01*
X198064991Y-59047246D01*
X198064990Y-81342757D01*
X198048633Y-81424990D01*
X198064990Y-81507223D01*
X198064990Y-81507226D01*
X198113438Y-81750790D01*
X198297989Y-82026991D01*
X198367710Y-82073577D01*
X199836193Y-83542061D01*
X199780908Y-83820000D01*
X199896161Y-84399418D01*
X200224375Y-84890625D01*
X200522761Y-85090000D01*
X200224375Y-85289375D01*
X199896161Y-85780582D01*
X199780908Y-86360000D01*
X199896161Y-86939418D01*
X200224375Y-87430625D01*
X200522761Y-87630000D01*
X200224375Y-87829375D01*
X199896161Y-88320582D01*
X199780908Y-88900000D01*
X199896161Y-89479418D01*
X200224375Y-89970625D01*
X200522761Y-90170000D01*
X200224375Y-90369375D01*
X199896161Y-90860582D01*
X199780908Y-91440000D01*
X199896161Y-92019418D01*
X200224375Y-92510625D01*
X200522761Y-92710000D01*
X200224375Y-92909375D01*
X199896161Y-93400582D01*
X199780908Y-93980000D01*
X199896161Y-94559418D01*
X200224375Y-95050625D01*
X200543478Y-95263843D01*
X200413642Y-95324817D01*
X200023355Y-95753076D01*
X199853524Y-96163110D01*
X199974845Y-96393000D01*
X201168000Y-96393000D01*
X201168000Y-96373000D01*
X201422000Y-96373000D01*
X201422000Y-96393000D01*
X201442000Y-96393000D01*
X201442000Y-96647000D01*
X201422000Y-96647000D01*
X201422000Y-98933000D01*
X201442000Y-98933000D01*
X201442000Y-99187000D01*
X201422000Y-99187000D01*
X201422000Y-100380819D01*
X201651892Y-100501486D01*
X202176358Y-100255183D01*
X202563647Y-99830214D01*
X202764375Y-100130625D01*
X203255582Y-100458839D01*
X203688744Y-100545000D01*
X203981256Y-100545000D01*
X204414418Y-100458839D01*
X204905625Y-100130625D01*
X205233839Y-99639418D01*
X205349092Y-99060000D01*
X205233839Y-98480582D01*
X204943372Y-98045866D01*
X219565000Y-98045866D01*
X219565000Y-99094134D01*
X219966155Y-100062608D01*
X220707392Y-100803845D01*
X221675866Y-101205000D01*
X222724134Y-101205000D01*
X223692608Y-100803845D01*
X224433845Y-100062608D01*
X224835000Y-99094134D01*
X224835000Y-98045866D01*
X224433845Y-97077392D01*
X223692608Y-96336155D01*
X222724134Y-95935000D01*
X221675866Y-95935000D01*
X220707392Y-96336155D01*
X219966155Y-97077392D01*
X219565000Y-98045866D01*
X204943372Y-98045866D01*
X204905625Y-97989375D01*
X204607239Y-97790000D01*
X204905625Y-97590625D01*
X205233839Y-97099418D01*
X205349092Y-96520000D01*
X205233839Y-95940582D01*
X204905625Y-95449375D01*
X204607239Y-95250000D01*
X204905625Y-95050625D01*
X205233839Y-94559418D01*
X205349092Y-93980000D01*
X205233839Y-93400582D01*
X204905625Y-92909375D01*
X204607239Y-92710000D01*
X204905625Y-92510625D01*
X205233839Y-92019418D01*
X205349092Y-91440000D01*
X205303670Y-91211649D01*
X205386280Y-91177431D01*
X205677431Y-90886280D01*
X205835000Y-90505874D01*
X205835000Y-90094126D01*
X205677431Y-89713720D01*
X205535154Y-89571443D01*
X205639082Y-89502001D01*
X205685668Y-89432280D01*
X206432283Y-88685666D01*
X206502001Y-88639082D01*
X206686552Y-88362882D01*
X206735000Y-88119318D01*
X206735000Y-88119317D01*
X206751358Y-88037081D01*
X206735000Y-87954844D01*
X206735000Y-71169314D01*
X206771560Y-71169314D01*
X207151966Y-71011745D01*
X207443117Y-70720594D01*
X207600686Y-70340188D01*
X207600686Y-69928440D01*
X207443117Y-69548034D01*
X207151966Y-69256883D01*
X206771560Y-69099314D01*
X206359812Y-69099314D01*
X206008530Y-69244819D01*
X205786280Y-69022569D01*
X205405874Y-68865000D01*
X205292402Y-68865000D01*
X205349092Y-68580000D01*
X205296319Y-68314694D01*
X205386280Y-68277431D01*
X205677431Y-67986280D01*
X205835000Y-67605874D01*
X205835000Y-67194126D01*
X205677431Y-66813720D01*
X205386280Y-66522569D01*
X205263241Y-66471605D01*
X205349092Y-66040000D01*
X205277681Y-65680993D01*
X205286280Y-65677431D01*
X205577431Y-65386280D01*
X205735000Y-65005874D01*
X205735000Y-64594126D01*
X205577431Y-64213720D01*
X205286280Y-63922569D01*
X205266655Y-63914440D01*
X205310478Y-63694126D01*
X207165000Y-63694126D01*
X207165000Y-64105874D01*
X207322569Y-64486280D01*
X207365001Y-64528712D01*
X207365001Y-64817763D01*
X207348643Y-64900000D01*
X207413448Y-65225800D01*
X207413449Y-65225801D01*
X207598000Y-65502001D01*
X207667718Y-65548585D01*
X208541193Y-66422061D01*
X208485908Y-66700000D01*
X208601161Y-67279418D01*
X208929375Y-67770625D01*
X209227761Y-67970000D01*
X208929375Y-68169375D01*
X208601161Y-68660582D01*
X208485908Y-69240000D01*
X208601161Y-69819418D01*
X208929375Y-70310625D01*
X209227761Y-70510000D01*
X208929375Y-70709375D01*
X208601161Y-71200582D01*
X208485908Y-71780000D01*
X208601161Y-72359418D01*
X208929375Y-72850625D01*
X209227761Y-73050000D01*
X208929375Y-73249375D01*
X208601161Y-73740582D01*
X208485908Y-74320000D01*
X208601161Y-74899418D01*
X208929375Y-75390625D01*
X209227761Y-75590000D01*
X208929375Y-75789375D01*
X208601161Y-76280582D01*
X208485908Y-76860000D01*
X208601161Y-77439418D01*
X208929375Y-77930625D01*
X209227761Y-78130000D01*
X208929375Y-78329375D01*
X208601161Y-78820582D01*
X208485908Y-79400000D01*
X208601161Y-79979418D01*
X208929375Y-80470625D01*
X209227761Y-80670000D01*
X208929375Y-80869375D01*
X208601161Y-81360582D01*
X208485908Y-81940000D01*
X208601161Y-82519418D01*
X208929375Y-83010625D01*
X209227761Y-83210000D01*
X208929375Y-83409375D01*
X208601161Y-83900582D01*
X208485908Y-84480000D01*
X208601161Y-85059418D01*
X208929375Y-85550625D01*
X209227761Y-85750000D01*
X208929375Y-85949375D01*
X208601161Y-86440582D01*
X208485908Y-87020000D01*
X208601161Y-87599418D01*
X208929375Y-88090625D01*
X209227761Y-88290000D01*
X208929375Y-88489375D01*
X208601161Y-88980582D01*
X208485908Y-89560000D01*
X208601161Y-90139418D01*
X208929375Y-90630625D01*
X209227761Y-90830000D01*
X208929375Y-91029375D01*
X208601161Y-91520582D01*
X208485908Y-92100000D01*
X208601161Y-92679418D01*
X208929375Y-93170625D01*
X209227761Y-93370000D01*
X208929375Y-93569375D01*
X208601161Y-94060582D01*
X208485908Y-94640000D01*
X208601161Y-95219418D01*
X208929375Y-95710625D01*
X209420582Y-96038839D01*
X209853744Y-96125000D01*
X210146256Y-96125000D01*
X210579418Y-96038839D01*
X211070625Y-95710625D01*
X211228065Y-95475000D01*
X211790292Y-95475000D01*
X211912273Y-95556505D01*
X212243750Y-95622440D01*
X212681250Y-95622440D01*
X213012727Y-95556505D01*
X213250000Y-95397964D01*
X213487273Y-95556505D01*
X213818750Y-95622440D01*
X214256250Y-95622440D01*
X214587727Y-95556505D01*
X214868739Y-95368739D01*
X214891283Y-95335000D01*
X215230095Y-95335000D01*
X215464375Y-95685625D01*
X215955582Y-96013839D01*
X216388744Y-96100000D01*
X216681256Y-96100000D01*
X217114418Y-96013839D01*
X217605625Y-95685625D01*
X217933839Y-95194418D01*
X218049092Y-94615000D01*
X217933839Y-94035582D01*
X217605625Y-93544375D01*
X217307239Y-93345000D01*
X217605625Y-93145625D01*
X217933839Y-92654418D01*
X218049092Y-92075000D01*
X217933839Y-91495582D01*
X217605625Y-91004375D01*
X217307239Y-90805000D01*
X217605625Y-90605625D01*
X217933839Y-90114418D01*
X218049092Y-89535000D01*
X217933839Y-88955582D01*
X217605625Y-88464375D01*
X217307239Y-88265000D01*
X217605625Y-88065625D01*
X217933839Y-87574418D01*
X218049092Y-86995000D01*
X217933839Y-86415582D01*
X217605625Y-85924375D01*
X217307239Y-85725000D01*
X217605625Y-85525625D01*
X217933839Y-85034418D01*
X218049092Y-84455000D01*
X217933839Y-83875582D01*
X217605625Y-83384375D01*
X217307239Y-83185000D01*
X217605625Y-82985625D01*
X217933839Y-82494418D01*
X218049092Y-81915000D01*
X217933839Y-81335582D01*
X217605625Y-80844375D01*
X217307239Y-80645000D01*
X217605625Y-80445625D01*
X217933839Y-79954418D01*
X218049092Y-79375000D01*
X217933839Y-78795582D01*
X217605625Y-78304375D01*
X217307239Y-78105000D01*
X217605625Y-77905625D01*
X217933839Y-77414418D01*
X218049092Y-76835000D01*
X217933839Y-76255582D01*
X217605625Y-75764375D01*
X217307239Y-75565000D01*
X217605625Y-75365625D01*
X217933839Y-74874418D01*
X218049092Y-74295000D01*
X217933839Y-73715582D01*
X217605625Y-73224375D01*
X217307239Y-73025000D01*
X217605625Y-72825625D01*
X217933839Y-72334418D01*
X218049092Y-71755000D01*
X217933839Y-71175582D01*
X217605625Y-70684375D01*
X217307239Y-70485000D01*
X217605625Y-70285625D01*
X217933839Y-69794418D01*
X218049092Y-69215000D01*
X217933839Y-68635582D01*
X217605625Y-68144375D01*
X217307239Y-67945000D01*
X217605625Y-67745625D01*
X217933839Y-67254418D01*
X218049092Y-66675000D01*
X217933839Y-66095582D01*
X217605625Y-65604375D01*
X217307239Y-65405000D01*
X217605625Y-65205625D01*
X217933839Y-64714418D01*
X218049092Y-64135000D01*
X217933839Y-63555582D01*
X217605625Y-63064375D01*
X217307239Y-62865000D01*
X217605625Y-62665625D01*
X217933839Y-62174418D01*
X218049092Y-61595000D01*
X217933839Y-61015582D01*
X217605625Y-60524375D01*
X217307239Y-60325000D01*
X217605625Y-60125625D01*
X217933839Y-59634418D01*
X218049092Y-59055000D01*
X217933839Y-58475582D01*
X217605625Y-57984375D01*
X217307239Y-57785000D01*
X217584111Y-57600000D01*
X220452560Y-57600000D01*
X220452560Y-59200000D01*
X220501843Y-59447765D01*
X220642191Y-59657809D01*
X220852235Y-59798157D01*
X221100000Y-59847440D01*
X221343107Y-59847440D01*
X221087138Y-59953466D01*
X220683466Y-60357138D01*
X220465000Y-60884561D01*
X220465000Y-61455439D01*
X220683466Y-61982862D01*
X221087138Y-62386534D01*
X221493850Y-62555000D01*
X221087138Y-62723466D01*
X220683466Y-63127138D01*
X220465000Y-63654561D01*
X220465000Y-64225439D01*
X220683466Y-64752862D01*
X221087138Y-65156534D01*
X221493850Y-65325000D01*
X221087138Y-65493466D01*
X220683466Y-65897138D01*
X220465000Y-66424561D01*
X220465000Y-66995439D01*
X220683466Y-67522862D01*
X221087138Y-67926534D01*
X221493850Y-68095000D01*
X221087138Y-68263466D01*
X220683466Y-68667138D01*
X220465000Y-69194561D01*
X220465000Y-69765439D01*
X220683466Y-70292862D01*
X221087138Y-70696534D01*
X221493850Y-70865000D01*
X221087138Y-71033466D01*
X220683466Y-71437138D01*
X220465000Y-71964561D01*
X220465000Y-72535439D01*
X220683466Y-73062862D01*
X221087138Y-73466534D01*
X221493850Y-73635000D01*
X221087138Y-73803466D01*
X220683466Y-74207138D01*
X220465000Y-74734561D01*
X220465000Y-75305439D01*
X220683466Y-75832862D01*
X221087138Y-76236534D01*
X221493850Y-76405000D01*
X221087138Y-76573466D01*
X220683466Y-76977138D01*
X220465000Y-77504561D01*
X220465000Y-78075439D01*
X220683466Y-78602862D01*
X221087138Y-79006534D01*
X221493850Y-79175000D01*
X221087138Y-79343466D01*
X220683466Y-79747138D01*
X220465000Y-80274561D01*
X220465000Y-80845439D01*
X220683466Y-81372862D01*
X221087138Y-81776534D01*
X221493850Y-81945000D01*
X221087138Y-82113466D01*
X220683466Y-82517138D01*
X220465000Y-83044561D01*
X220465000Y-83615439D01*
X220683466Y-84142862D01*
X221087138Y-84546534D01*
X221493850Y-84715000D01*
X221087138Y-84883466D01*
X220683466Y-85287138D01*
X220465000Y-85814561D01*
X220465000Y-86385439D01*
X220683466Y-86912862D01*
X221087138Y-87316534D01*
X221493850Y-87485000D01*
X221087138Y-87653466D01*
X220683466Y-88057138D01*
X220465000Y-88584561D01*
X220465000Y-89155439D01*
X220683466Y-89682862D01*
X221087138Y-90086534D01*
X221493850Y-90255000D01*
X221087138Y-90423466D01*
X220683466Y-90827138D01*
X220465000Y-91354561D01*
X220465000Y-91925439D01*
X220683466Y-92452862D01*
X221087138Y-92856534D01*
X221614561Y-93075000D01*
X222185439Y-93075000D01*
X222712862Y-92856534D01*
X223116534Y-92452862D01*
X223335000Y-91925439D01*
X223335000Y-91354561D01*
X223296969Y-91262745D01*
X223911861Y-91262745D01*
X223985995Y-91508864D01*
X224523223Y-91701965D01*
X225093454Y-91674778D01*
X225494005Y-91508864D01*
X225568139Y-91262745D01*
X224740000Y-90434605D01*
X223911861Y-91262745D01*
X223296969Y-91262745D01*
X223116534Y-90827138D01*
X222712862Y-90423466D01*
X222306150Y-90255000D01*
X222712862Y-90086534D01*
X222761173Y-90038223D01*
X223293035Y-90038223D01*
X223320222Y-90608454D01*
X223486136Y-91009005D01*
X223732255Y-91083139D01*
X224560395Y-90255000D01*
X224919605Y-90255000D01*
X225747745Y-91083139D01*
X225993864Y-91009005D01*
X226186965Y-90471777D01*
X226159778Y-89901546D01*
X225993864Y-89500995D01*
X225747745Y-89426861D01*
X224919605Y-90255000D01*
X224560395Y-90255000D01*
X223732255Y-89426861D01*
X223486136Y-89500995D01*
X223293035Y-90038223D01*
X222761173Y-90038223D01*
X223116534Y-89682862D01*
X223335000Y-89155439D01*
X223335000Y-88584561D01*
X223296969Y-88492745D01*
X223911861Y-88492745D01*
X223985995Y-88738864D01*
X224324999Y-88860716D01*
X223985995Y-89001136D01*
X223911861Y-89247255D01*
X224740000Y-90075395D01*
X225568139Y-89247255D01*
X225494005Y-89001136D01*
X225155001Y-88879284D01*
X225494005Y-88738864D01*
X225568139Y-88492745D01*
X224740000Y-87664605D01*
X223911861Y-88492745D01*
X223296969Y-88492745D01*
X223116534Y-88057138D01*
X222712862Y-87653466D01*
X222306150Y-87485000D01*
X222712862Y-87316534D01*
X222761173Y-87268223D01*
X223293035Y-87268223D01*
X223320222Y-87838454D01*
X223486136Y-88239005D01*
X223732255Y-88313139D01*
X224560395Y-87485000D01*
X224919605Y-87485000D01*
X225747745Y-88313139D01*
X225993864Y-88239005D01*
X226186965Y-87701777D01*
X226159778Y-87131546D01*
X225993864Y-86730995D01*
X225747745Y-86656861D01*
X224919605Y-87485000D01*
X224560395Y-87485000D01*
X223732255Y-86656861D01*
X223486136Y-86730995D01*
X223293035Y-87268223D01*
X222761173Y-87268223D01*
X223116534Y-86912862D01*
X223335000Y-86385439D01*
X223335000Y-85814561D01*
X223296969Y-85722745D01*
X223911861Y-85722745D01*
X223985995Y-85968864D01*
X224324999Y-86090716D01*
X223985995Y-86231136D01*
X223911861Y-86477255D01*
X224740000Y-87305395D01*
X225568139Y-86477255D01*
X225494005Y-86231136D01*
X225155001Y-86109284D01*
X225494005Y-85968864D01*
X225568139Y-85722745D01*
X224740000Y-84894605D01*
X223911861Y-85722745D01*
X223296969Y-85722745D01*
X223116534Y-85287138D01*
X222712862Y-84883466D01*
X222306150Y-84715000D01*
X222712862Y-84546534D01*
X222761173Y-84498223D01*
X223293035Y-84498223D01*
X223320222Y-85068454D01*
X223486136Y-85469005D01*
X223732255Y-85543139D01*
X224560395Y-84715000D01*
X224919605Y-84715000D01*
X225747745Y-85543139D01*
X225993864Y-85469005D01*
X226186965Y-84931777D01*
X226159778Y-84361546D01*
X225993864Y-83960995D01*
X225747745Y-83886861D01*
X224919605Y-84715000D01*
X224560395Y-84715000D01*
X223732255Y-83886861D01*
X223486136Y-83960995D01*
X223293035Y-84498223D01*
X222761173Y-84498223D01*
X223116534Y-84142862D01*
X223335000Y-83615439D01*
X223335000Y-83044561D01*
X223296969Y-82952745D01*
X223911861Y-82952745D01*
X223985995Y-83198864D01*
X224324999Y-83320716D01*
X223985995Y-83461136D01*
X223911861Y-83707255D01*
X224740000Y-84535395D01*
X225568139Y-83707255D01*
X225494005Y-83461136D01*
X225155001Y-83339284D01*
X225494005Y-83198864D01*
X225568139Y-82952745D01*
X224740000Y-82124605D01*
X223911861Y-82952745D01*
X223296969Y-82952745D01*
X223116534Y-82517138D01*
X222712862Y-82113466D01*
X222306150Y-81945000D01*
X222712862Y-81776534D01*
X222761173Y-81728223D01*
X223293035Y-81728223D01*
X223320222Y-82298454D01*
X223486136Y-82699005D01*
X223732255Y-82773139D01*
X224560395Y-81945000D01*
X224919605Y-81945000D01*
X225747745Y-82773139D01*
X225993864Y-82699005D01*
X226186965Y-82161777D01*
X226159778Y-81591546D01*
X225993864Y-81190995D01*
X225747745Y-81116861D01*
X224919605Y-81945000D01*
X224560395Y-81945000D01*
X223732255Y-81116861D01*
X223486136Y-81190995D01*
X223293035Y-81728223D01*
X222761173Y-81728223D01*
X223116534Y-81372862D01*
X223335000Y-80845439D01*
X223335000Y-80274561D01*
X223296969Y-80182745D01*
X223911861Y-80182745D01*
X223985995Y-80428864D01*
X224324999Y-80550716D01*
X223985995Y-80691136D01*
X223911861Y-80937255D01*
X224740000Y-81765395D01*
X225568139Y-80937255D01*
X225494005Y-80691136D01*
X225155001Y-80569284D01*
X225494005Y-80428864D01*
X225568139Y-80182745D01*
X224740000Y-79354605D01*
X223911861Y-80182745D01*
X223296969Y-80182745D01*
X223116534Y-79747138D01*
X222712862Y-79343466D01*
X222306150Y-79175000D01*
X222712862Y-79006534D01*
X222761173Y-78958223D01*
X223293035Y-78958223D01*
X223320222Y-79528454D01*
X223486136Y-79929005D01*
X223732255Y-80003139D01*
X224560395Y-79175000D01*
X224919605Y-79175000D01*
X225747745Y-80003139D01*
X225993864Y-79929005D01*
X226186965Y-79391777D01*
X226159778Y-78821546D01*
X225993864Y-78420995D01*
X225747745Y-78346861D01*
X224919605Y-79175000D01*
X224560395Y-79175000D01*
X223732255Y-78346861D01*
X223486136Y-78420995D01*
X223293035Y-78958223D01*
X222761173Y-78958223D01*
X223116534Y-78602862D01*
X223335000Y-78075439D01*
X223335000Y-77504561D01*
X223296969Y-77412745D01*
X223911861Y-77412745D01*
X223985995Y-77658864D01*
X224324999Y-77780716D01*
X223985995Y-77921136D01*
X223911861Y-78167255D01*
X224740000Y-78995395D01*
X225568139Y-78167255D01*
X225494005Y-77921136D01*
X225155001Y-77799284D01*
X225494005Y-77658864D01*
X225568139Y-77412745D01*
X224740000Y-76584605D01*
X223911861Y-77412745D01*
X223296969Y-77412745D01*
X223116534Y-76977138D01*
X222712862Y-76573466D01*
X222306150Y-76405000D01*
X222712862Y-76236534D01*
X222761173Y-76188223D01*
X223293035Y-76188223D01*
X223320222Y-76758454D01*
X223486136Y-77159005D01*
X223732255Y-77233139D01*
X224560395Y-76405000D01*
X224919605Y-76405000D01*
X225747745Y-77233139D01*
X225993864Y-77159005D01*
X226186965Y-76621777D01*
X226159778Y-76051546D01*
X225993864Y-75650995D01*
X225747745Y-75576861D01*
X224919605Y-76405000D01*
X224560395Y-76405000D01*
X223732255Y-75576861D01*
X223486136Y-75650995D01*
X223293035Y-76188223D01*
X222761173Y-76188223D01*
X223116534Y-75832862D01*
X223335000Y-75305439D01*
X223335000Y-74734561D01*
X223296969Y-74642745D01*
X223911861Y-74642745D01*
X223985995Y-74888864D01*
X224324999Y-75010716D01*
X223985995Y-75151136D01*
X223911861Y-75397255D01*
X224740000Y-76225395D01*
X225568139Y-75397255D01*
X225494005Y-75151136D01*
X225155001Y-75029284D01*
X225494005Y-74888864D01*
X225568139Y-74642745D01*
X224740000Y-73814605D01*
X223911861Y-74642745D01*
X223296969Y-74642745D01*
X223116534Y-74207138D01*
X222712862Y-73803466D01*
X222306150Y-73635000D01*
X222712862Y-73466534D01*
X222761173Y-73418223D01*
X223293035Y-73418223D01*
X223320222Y-73988454D01*
X223486136Y-74389005D01*
X223732255Y-74463139D01*
X224560395Y-73635000D01*
X224919605Y-73635000D01*
X225747745Y-74463139D01*
X225993864Y-74389005D01*
X226186965Y-73851777D01*
X226159778Y-73281546D01*
X225993864Y-72880995D01*
X225747745Y-72806861D01*
X224919605Y-73635000D01*
X224560395Y-73635000D01*
X223732255Y-72806861D01*
X223486136Y-72880995D01*
X223293035Y-73418223D01*
X222761173Y-73418223D01*
X223116534Y-73062862D01*
X223335000Y-72535439D01*
X223335000Y-71964561D01*
X223296969Y-71872745D01*
X223911861Y-71872745D01*
X223985995Y-72118864D01*
X224324999Y-72240716D01*
X223985995Y-72381136D01*
X223911861Y-72627255D01*
X224740000Y-73455395D01*
X225568139Y-72627255D01*
X225494005Y-72381136D01*
X225155001Y-72259284D01*
X225494005Y-72118864D01*
X225568139Y-71872745D01*
X224740000Y-71044605D01*
X223911861Y-71872745D01*
X223296969Y-71872745D01*
X223116534Y-71437138D01*
X222712862Y-71033466D01*
X222306150Y-70865000D01*
X222712862Y-70696534D01*
X222761173Y-70648223D01*
X223293035Y-70648223D01*
X223320222Y-71218454D01*
X223486136Y-71619005D01*
X223732255Y-71693139D01*
X224560395Y-70865000D01*
X224919605Y-70865000D01*
X225747745Y-71693139D01*
X225993864Y-71619005D01*
X226186965Y-71081777D01*
X226159778Y-70511546D01*
X225993864Y-70110995D01*
X225747745Y-70036861D01*
X224919605Y-70865000D01*
X224560395Y-70865000D01*
X223732255Y-70036861D01*
X223486136Y-70110995D01*
X223293035Y-70648223D01*
X222761173Y-70648223D01*
X223116534Y-70292862D01*
X223335000Y-69765439D01*
X223335000Y-69194561D01*
X223116534Y-68667138D01*
X222712862Y-68263466D01*
X222306150Y-68095000D01*
X222712862Y-67926534D01*
X223116534Y-67522862D01*
X223335000Y-66995439D01*
X223335000Y-66424561D01*
X223116534Y-65897138D01*
X222712862Y-65493466D01*
X222306150Y-65325000D01*
X222712862Y-65156534D01*
X223116534Y-64752862D01*
X223335000Y-64225439D01*
X223335000Y-63654561D01*
X223116534Y-63127138D01*
X222712862Y-62723466D01*
X222306150Y-62555000D01*
X222712862Y-62386534D01*
X223116534Y-61982862D01*
X223335000Y-61455439D01*
X223335000Y-60884561D01*
X223116534Y-60357138D01*
X222712862Y-59953466D01*
X222456893Y-59847440D01*
X222700000Y-59847440D01*
X222947765Y-59798157D01*
X223157809Y-59657809D01*
X223263547Y-59499561D01*
X223305000Y-59499561D01*
X223305000Y-60070439D01*
X223523466Y-60597862D01*
X223927138Y-61001534D01*
X224333850Y-61170000D01*
X223927138Y-61338466D01*
X223523466Y-61742138D01*
X223305000Y-62269561D01*
X223305000Y-62840439D01*
X223523466Y-63367862D01*
X223927138Y-63771534D01*
X224333850Y-63940000D01*
X223927138Y-64108466D01*
X223523466Y-64512138D01*
X223305000Y-65039561D01*
X223305000Y-65610439D01*
X223523466Y-66137862D01*
X223927138Y-66541534D01*
X224333850Y-66710000D01*
X223927138Y-66878466D01*
X223523466Y-67282138D01*
X223305000Y-67809561D01*
X223305000Y-68380439D01*
X223523466Y-68907862D01*
X223927138Y-69311534D01*
X224318218Y-69473525D01*
X223985995Y-69611136D01*
X223911861Y-69857255D01*
X224740000Y-70685395D01*
X225568139Y-69857255D01*
X225494005Y-69611136D01*
X225138261Y-69483268D01*
X225552862Y-69311534D01*
X225956534Y-68907862D01*
X226175000Y-68380439D01*
X226175000Y-67809561D01*
X225956534Y-67282138D01*
X225552862Y-66878466D01*
X225146150Y-66710000D01*
X225552862Y-66541534D01*
X225956534Y-66137862D01*
X226175000Y-65610439D01*
X226175000Y-65039561D01*
X225956534Y-64512138D01*
X225552862Y-64108466D01*
X225146150Y-63940000D01*
X225552862Y-63771534D01*
X225956534Y-63367862D01*
X226175000Y-62840439D01*
X226175000Y-62269561D01*
X225956534Y-61742138D01*
X225552862Y-61338466D01*
X225146150Y-61170000D01*
X225552862Y-61001534D01*
X225956534Y-60597862D01*
X226175000Y-60070439D01*
X226175000Y-59499561D01*
X225956534Y-58972138D01*
X225552862Y-58568466D01*
X225025439Y-58350000D01*
X224454561Y-58350000D01*
X223927138Y-58568466D01*
X223523466Y-58972138D01*
X223305000Y-59499561D01*
X223263547Y-59499561D01*
X223298157Y-59447765D01*
X223347440Y-59200000D01*
X223347440Y-57600000D01*
X223298157Y-57352235D01*
X223157809Y-57142191D01*
X222947765Y-57001843D01*
X222700000Y-56952560D01*
X221100000Y-56952560D01*
X220852235Y-57001843D01*
X220642191Y-57142191D01*
X220501843Y-57352235D01*
X220452560Y-57600000D01*
X217584111Y-57600000D01*
X217605625Y-57585625D01*
X217933839Y-57094418D01*
X218049092Y-56515000D01*
X217933839Y-55935582D01*
X217605625Y-55444375D01*
X217587381Y-55432184D01*
X217632765Y-55423157D01*
X217842809Y-55282809D01*
X217983157Y-55072765D01*
X218032440Y-54825000D01*
X218032440Y-53125000D01*
X217983157Y-52877235D01*
X217842809Y-52667191D01*
X217632765Y-52526843D01*
X217385000Y-52477560D01*
X215685000Y-52477560D01*
X215437235Y-52526843D01*
X215227191Y-52667191D01*
X215086843Y-52877235D01*
X215037560Y-53125000D01*
X215037560Y-53165000D01*
X214891283Y-53165000D01*
X214868739Y-53131261D01*
X214587727Y-52943495D01*
X214256250Y-52877560D01*
X213818750Y-52877560D01*
X213487273Y-52943495D01*
X213250000Y-53102036D01*
X213012727Y-52943495D01*
X212681250Y-52877560D01*
X212243750Y-52877560D01*
X211912273Y-52943495D01*
X211631261Y-53131261D01*
X211608717Y-53165000D01*
X211497440Y-53165000D01*
X211497440Y-53150000D01*
X211448157Y-52902235D01*
X211307809Y-52692191D01*
X211097765Y-52551843D01*
X210850000Y-52502560D01*
X209150000Y-52502560D01*
X208902235Y-52551843D01*
X208692191Y-52692191D01*
X208551843Y-52902235D01*
X208502560Y-53150000D01*
X208502560Y-54850000D01*
X208551843Y-55097765D01*
X208692191Y-55307809D01*
X208902235Y-55448157D01*
X208947619Y-55457184D01*
X208929375Y-55469375D01*
X208601161Y-55960582D01*
X208485908Y-56540000D01*
X208601161Y-57119418D01*
X208929375Y-57610625D01*
X209227761Y-57810000D01*
X208929375Y-58009375D01*
X208601161Y-58500582D01*
X208485908Y-59080000D01*
X208601161Y-59659418D01*
X208929375Y-60150625D01*
X209227761Y-60350000D01*
X208929375Y-60549375D01*
X208601161Y-61040582D01*
X208485908Y-61620000D01*
X208601161Y-62199418D01*
X208929375Y-62690625D01*
X209227761Y-62890000D01*
X208929375Y-63089375D01*
X208898818Y-63135107D01*
X208786280Y-63022569D01*
X208405874Y-62865000D01*
X207994126Y-62865000D01*
X207613720Y-63022569D01*
X207322569Y-63313720D01*
X207165000Y-63694126D01*
X205310478Y-63694126D01*
X205349092Y-63500000D01*
X205233839Y-62920582D01*
X205102240Y-62723630D01*
X205174000Y-62651869D01*
X205256883Y-62851966D01*
X205548034Y-63143117D01*
X205928440Y-63300686D01*
X206340188Y-63300686D01*
X206720594Y-63143117D01*
X207011745Y-62851966D01*
X207169314Y-62471560D01*
X207169314Y-62411553D01*
X207645868Y-61935000D01*
X207705874Y-61935000D01*
X208086280Y-61777431D01*
X208377431Y-61486280D01*
X208535000Y-61105874D01*
X208535000Y-60694126D01*
X208377431Y-60313720D01*
X208086280Y-60022569D01*
X207705874Y-59865000D01*
X207365003Y-59865000D01*
X207365003Y-58834222D01*
X207381360Y-58751989D01*
X207365003Y-58669756D01*
X207365003Y-58669753D01*
X207316555Y-58426189D01*
X207165004Y-58199377D01*
X207165004Y-58146117D01*
X207007435Y-57765711D01*
X206716284Y-57474560D01*
X206335878Y-57316991D01*
X206130395Y-57316991D01*
X206135000Y-57305874D01*
X206135000Y-56894126D01*
X205977431Y-56513720D01*
X205686280Y-56222569D01*
X205311805Y-56067457D01*
X205349092Y-55880000D01*
X205233839Y-55300582D01*
X204905625Y-54809375D01*
X204586522Y-54596157D01*
X204716358Y-54535183D01*
X205106645Y-54106924D01*
X205276476Y-53696890D01*
X205155155Y-53467000D01*
X203962000Y-53467000D01*
X203962000Y-53487000D01*
X203708000Y-53487000D01*
X203708000Y-53467000D01*
X203688000Y-53467000D01*
X203688000Y-53213000D01*
X203708000Y-53213000D01*
X203708000Y-53193000D01*
X203962000Y-53193000D01*
X203962000Y-53213000D01*
X205155155Y-53213000D01*
X205276476Y-52983110D01*
X205106645Y-52573076D01*
X204829292Y-52268739D01*
X204932765Y-52248157D01*
X205142809Y-52107809D01*
X205283157Y-51897765D01*
X205332440Y-51650000D01*
X205332440Y-50945866D01*
X219565000Y-50945866D01*
X219565000Y-51994134D01*
X219966155Y-52962608D01*
X220707392Y-53703845D01*
X221675866Y-54105000D01*
X222724134Y-54105000D01*
X223692608Y-53703845D01*
X224433845Y-52962608D01*
X224835000Y-51994134D01*
X224835000Y-50945866D01*
X224433845Y-49977392D01*
X223692608Y-49236155D01*
X222724134Y-48835000D01*
X221675866Y-48835000D01*
X220707392Y-49236155D01*
X219966155Y-49977392D01*
X219565000Y-50945866D01*
X205332440Y-50945866D01*
X205332440Y-49950000D01*
X205283157Y-49702235D01*
X205142809Y-49492191D01*
X204932765Y-49351843D01*
X204685000Y-49302560D01*
X202985000Y-49302560D01*
X202737235Y-49351843D01*
X202527191Y-49492191D01*
X202386843Y-49702235D01*
X202377816Y-49747619D01*
X202365625Y-49729375D01*
X201874418Y-49401161D01*
X201441256Y-49315000D01*
X201148744Y-49315000D01*
X200715582Y-49401161D01*
X200224375Y-49729375D01*
X199896161Y-50220582D01*
X199780908Y-50800000D01*
X199896161Y-51379418D01*
X200224375Y-51870625D01*
X200522761Y-52070000D01*
X200224375Y-52269375D01*
X199896161Y-52760582D01*
X199780908Y-53340000D01*
X199896161Y-53919418D01*
X200224375Y-54410625D01*
X200522761Y-54610000D01*
X200224375Y-54809375D01*
X199896161Y-55300582D01*
X199780908Y-55880000D01*
X199896161Y-56459418D01*
X200027760Y-56656370D01*
X198367708Y-58316423D01*
X198297990Y-58363007D01*
X198251406Y-58432725D01*
X198113438Y-58639208D01*
X198048633Y-58965008D01*
X196610644Y-58965008D01*
X196618050Y-58953925D01*
X196734359Y-58369200D01*
X196618050Y-57784475D01*
X196286830Y-57288770D01*
X196003119Y-57099200D01*
X196286830Y-56909630D01*
X196618050Y-56413925D01*
X196734359Y-55829200D01*
X196618050Y-55244475D01*
X196286830Y-54748770D01*
X195990439Y-54550727D01*
X196355873Y-54259068D01*
X196639527Y-53745357D01*
X196661358Y-53648226D01*
X196540217Y-53416200D01*
X195072000Y-53416200D01*
X195072000Y-53436200D01*
X194818000Y-53436200D01*
X194818000Y-53416200D01*
X193349783Y-53416200D01*
X193228642Y-53648226D01*
X193250473Y-53745357D01*
X193534127Y-54259068D01*
X193899561Y-54550727D01*
X193603170Y-54748770D01*
X193271950Y-55244475D01*
X193155641Y-55829200D01*
X189401718Y-55829200D01*
X189685430Y-55639630D01*
X190016650Y-55143925D01*
X190132959Y-54559200D01*
X190016650Y-53974475D01*
X189685430Y-53478770D01*
X189189725Y-53147550D01*
X188752598Y-53060600D01*
X188457402Y-53060600D01*
X188020275Y-53147550D01*
X187524570Y-53478770D01*
X187335000Y-53762481D01*
X187145430Y-53478770D01*
X186649725Y-53147550D01*
X186212598Y-53060600D01*
X185917402Y-53060600D01*
X185480275Y-53147550D01*
X184984570Y-53478770D01*
X184653350Y-53974475D01*
X184537041Y-54559200D01*
X180763119Y-54559200D01*
X181046830Y-54369630D01*
X181378050Y-53873925D01*
X181494359Y-53289200D01*
X181378050Y-52704475D01*
X181051749Y-52216132D01*
X181077765Y-52210957D01*
X181287809Y-52070609D01*
X181428157Y-51860565D01*
X181477440Y-51612800D01*
X181477440Y-50698400D01*
X193155641Y-50698400D01*
X193271950Y-51283125D01*
X193603170Y-51778830D01*
X193934207Y-52000022D01*
X193534127Y-52319332D01*
X193250473Y-52833043D01*
X193228642Y-52930174D01*
X193349783Y-53162200D01*
X194818000Y-53162200D01*
X194818000Y-53142200D01*
X195072000Y-53142200D01*
X195072000Y-53162200D01*
X196540217Y-53162200D01*
X196661358Y-52930174D01*
X196639527Y-52833043D01*
X196355873Y-52319332D01*
X195955793Y-52000022D01*
X196286830Y-51778830D01*
X196618050Y-51283125D01*
X196734359Y-50698400D01*
X196618050Y-50113675D01*
X196286830Y-49617970D01*
X195791125Y-49286750D01*
X195353998Y-49199800D01*
X194536002Y-49199800D01*
X194098875Y-49286750D01*
X193603170Y-49617970D01*
X193271950Y-50113675D01*
X193155641Y-50698400D01*
X181477440Y-50698400D01*
X181477440Y-49885600D01*
X181428157Y-49637835D01*
X181287809Y-49427791D01*
X181077765Y-49287443D01*
X180830000Y-49238160D01*
X178580000Y-49238160D01*
X178332235Y-49287443D01*
X178122191Y-49427791D01*
X177981843Y-49637835D01*
X177932560Y-49885600D01*
X177932560Y-51612800D01*
X177981843Y-51860565D01*
X178122191Y-52070609D01*
X178332235Y-52210957D01*
X178358251Y-52216132D01*
X178031950Y-52704475D01*
X177915641Y-53289200D01*
X176210000Y-53289200D01*
X176210000Y-48210000D01*
X227455335Y-48210000D01*
X227943752Y-48271701D01*
G04 #@! TD*
M02*
