M48
;DRILL file {KiCad (5.0.2)-1} date 04/05/2020 12:03:51
;FORMAT={-:-/ absolute / inch / decimal}
FMAT,2
INCH,TZ
T1C0.0157
T2C0.0394
T3C0.0400
T4C0.1260
%
G90
G05
T1
X8.0591Y-2.5512
X8.063Y-2.6535
X8.063Y-3.0512
X8.063Y-3.1496
X8.063Y-3.252
X8.063Y-3.5551
X8.0669Y-3.4488
X8.0709Y-2.8504
X8.0748Y-2.248
X8.0748Y-2.9528
X8.0787Y-2.752
X8.0945Y-2.3307
X8.1154Y-2.2973
X8.1155Y-2.4514
X8.1325Y-2.7612
X8.1693Y-2.3976
X8.1969Y-2.5157
T2
X8.2677Y-2.126
X8.2677Y-2.226
X8.2677Y-2.326
X8.2677Y-2.426
X8.2677Y-2.526
X8.2677Y-2.626
X8.2677Y-2.726
X8.2677Y-2.826
X8.2677Y-2.926
X8.2677Y-3.026
X8.2677Y-3.126
X8.2677Y-3.226
X8.2677Y-3.326
X8.2677Y-3.426
X8.2677Y-3.526
X8.2677Y-3.626
X8.2677Y-3.726
X8.525Y-2.125
X8.525Y-2.225
X8.525Y-2.325
X8.525Y-2.425
X8.525Y-2.525
X8.525Y-2.625
X8.525Y-2.725
X8.525Y-2.825
X8.525Y-2.925
X8.525Y-3.025
X8.525Y-3.125
X8.525Y-3.225
X8.525Y-3.325
X8.525Y-3.425
X8.525Y-3.525
X8.525Y-3.625
X8.525Y-3.725
X8.7362Y-2.2992
X8.7362Y-2.4083
X8.7362Y-2.5173
X8.7362Y-2.6264
X8.7362Y-2.7354
X8.7362Y-2.8445
X8.7362Y-2.9535
X8.7362Y-3.0626
X8.7362Y-3.1717
X8.7362Y-3.2807
X8.7362Y-3.3898
X8.7362Y-3.4988
X8.7362Y-3.6079
X8.848Y-2.3537
X8.848Y-2.4628
X8.848Y-2.5719
X8.848Y-2.6809
X8.848Y-2.79
X8.848Y-2.899
X8.848Y-3.0081
X8.848Y-3.1171
X8.848Y-3.2262
X8.848Y-3.3352
X8.848Y-3.4443
X8.848Y-3.5533
X7.925Y-2.
X7.925Y-2.1
X7.925Y-2.2
X7.925Y-2.3
X7.925Y-2.4
X7.925Y-2.5
X7.925Y-2.6
X7.925Y-2.7
X7.925Y-2.8
X7.925Y-2.9
X7.925Y-3.
X7.925Y-3.1
X7.925Y-3.2
X7.925Y-3.3
X7.925Y-3.4
X7.925Y-3.5
X7.925Y-3.6
X7.925Y-3.7
X7.925Y-3.8
X7.925Y-3.9
X8.025Y-2.
X8.025Y-2.1
X8.025Y-2.2
X8.025Y-2.3
X8.025Y-2.4
X8.025Y-2.5
X8.025Y-2.6
X8.025Y-2.7
X8.025Y-2.8
X8.025Y-2.9
X8.025Y-3.
X8.025Y-3.1
X8.025Y-3.2
X8.025Y-3.3
X8.025Y-3.4
X8.025Y-3.5
X8.025Y-3.6
X8.025Y-3.7
X8.025Y-3.8
X8.025Y-3.9
T3
X7.075Y-1.998
X7.075Y-2.098
X7.075Y-2.198
X7.075Y-2.298
X7.075Y-2.398
X7.075Y-2.498
X7.075Y-2.598
X7.075Y-2.698
X7.075Y-2.798
X7.075Y-2.898
X7.075Y-2.998
X7.075Y-3.098
X7.075Y-3.198
X7.075Y-3.298
X7.075Y-3.398
X7.075Y-3.498
X7.075Y-3.598
X7.075Y-3.698
X7.075Y-3.798
X7.075Y-3.898
X7.3254Y-2.148
X7.4254Y-2.148
X7.675Y-1.996
X7.675Y-2.098
X7.675Y-2.198
X7.675Y-2.298
X7.675Y-2.398
X7.675Y-2.498
X7.675Y-2.598
X7.675Y-2.698
X7.675Y-2.798
X7.675Y-2.898
X7.675Y-2.998
X7.675Y-3.098
X7.675Y-3.198
X7.675Y-3.298
X7.675Y-3.398
X7.675Y-3.498
X7.675Y-3.598
X7.675Y-3.698
X7.675Y-3.798
X7.675Y-3.898
T4
X8.748Y-2.0264
X8.748Y-3.8807
T0
M30
